<svg width="32" height="32" xmlns="http://www.w3.org/2000/svg" stroke="#" fill="none">

 <g>
  <title>Layer 1</title>
  <g stroke-width="0" id="SVGRepo_bgCarrier"/>
  <g stroke-linejoin="round" stroke-linecap="round" id="SVGRepo_tracerCarrier"/>
  <g>
   <g stroke-width="0" id="svg_4"/>
   <g stroke-linejoin="round" stroke-linecap="round" id="svg_3"/>
   <g id="svg_2">
    <path fill="#1e1e1e" d="m21.54309,18.26719c0.2857,-0.2999 0.2741,-0.7746 -0.0259,-1.0603c-0.2999,-0.2857 -0.7746,-0.2741 -1.0603,0.0259l1.0862,1.0344zm-6.0862,4.2156c-0.2857,0.2999 -0.2741,0.7746 0.0259,1.0603c0.2999,0.2857 0.7746,0.2741 1.0603,-0.0259l-1.0862,-1.0344zm0,1.0344c0.2857,0.3 0.7604,0.3116 1.0603,0.0259c0.3,-0.2857 0.3116,-0.7604 0.0259,-1.0603l-1.0862,1.0344zm-3.9138,-6.2844c-0.28566,-0.3 -0.76039,-0.3116 -1.06034,-0.0259c-0.29995,0.2857 -0.31153,0.7604 -0.02586,1.0603l1.0862,-1.0344zm3.7069,5.7672c0,0.4142 0.3358,0.75 0.75,0.75c0.4142,0 0.75,-0.3358 0.75,-0.75l-1.5,0zm1.5,-14c0,-0.41421 -0.3358,-0.75 -0.75,-0.75c-0.4142,0 -0.75,0.33579 -0.75,0.75l1.5,0zm3.7069,8.2328l-5,5.25l1.0862,1.0344l5,-5.25l-1.0862,-1.0344zm-3.9138,5.25l-5,-5.25l-1.0862,1.0344l5,5.25l1.0862,-1.0344zm0.2069,0.5172l0,-14l-1.5,0l0,14l1.5,0z"/>
   </g>
  </g>
 </g>
</svg>