<svg xmlns="http://www.w3.org/2000/svg" width="32" height="32" viewBox="0 0 32 32">
    <path style="fill:none" d="M0 0h32v32H0z"/>
    <path data-name="패스 1575" d="M5880.57 1141.35a.2.2 0 0 1-.2-.2v-3.526h-3.525a.2.2 0 0 1-.2-.2v-1.861a.2.2 0 0 1 .2-.2h3.525v-3.526a.2.2 0 0 1 .2-.2h1.861a.194.194 0 0 1 .195.2v3.526h3.526a.2.2 0 0 1 .2.2v1.861a.2.2 0 0 1-.2.2h-3.526v3.526a.2.2 0 0 1-.195.2z" transform="translate(-5865.5 -1120.5)" style="fill:#0078d4"/>
    <path data-name="타원 201" d="M10 2a8 8 0 1 0 8 8 8.009 8.009 0 0 0-8-8m0-2A10 10 0 1 1 0 10 10 10 0 0 1 10 0z" transform="translate(6 6)" style="fill:#0078d4"/>
</svg>
