<svg width="32" height="32" xmlns="http://www.w3.org/2000/svg" stroke="#" fill="none">

 <g>
  <title>Layer 1</title>
  <g stroke-width="0" id="SVGRepo_bgCarrier"/>
  <g stroke-linejoin="round" stroke-linecap="round" id="SVGRepo_tracerCarrier"/>
  <g stroke="null" id="SVGRepo_iconCarrier">
   <path stroke="null" id="svg_1" fill="#1e1e1e" d="m10.45689,13.73276c-0.28567,0.29994 -0.27409,0.77464 0.02586,1.06034c0.29995,0.2857 0.77468,0.2741 1.06034,-0.0259l-1.0862,-1.03444zm6.0862,-4.21552c0.2857,-0.29995 0.2741,-0.77468 -0.0259,-1.06034c-0.2999,-0.28567 -0.7746,-0.27409 -1.0603,0.02586l1.0862,1.03448zm0,-1.03448c-0.2857,-0.29995 -0.7604,-0.31153 -1.0603,-0.02586c-0.3,0.28566 -0.3116,0.76039 -0.0259,1.06034l1.0862,-1.03448zm3.9138,6.28444c0.2857,0.3 0.7604,0.3116 1.0603,0.0259c0.3,-0.2857 0.3116,-0.7604 0.0259,-1.06034l-1.0862,1.03444zm-3.7069,-5.7672c0,-0.41421 -0.3358,-0.75 -0.75,-0.75c-0.4142,0 -0.75,0.33579 -0.75,0.75l1.5,0zm-1.5,14c0,0.4142 0.3358,0.75 0.75,0.75c0.4142,0 0.75,-0.3358 0.75,-0.75l-1.5,0zm-3.7069,-8.2328l5,-5.24996l-1.0862,-1.03448l-5,5.25l1.0862,1.03444zm3.9138,-5.24996l5,5.24996l1.0862,-1.03444l-5,-5.25l-1.0862,1.03448zm-0.2069,-0.51724l0,14l1.5,0l0,-14l-1.5,0z"/>
  </g>
 </g>
</svg>