<svg id="ic_archive_24" xmlns="http://www.w3.org/2000/svg" width="24" height="24" viewBox="0 0 24 24">
  <defs>
    <style>
      .cls-1 {
        fill: none;
      }

      .cls-2 {
        fill: #1e1e1e;
      }
    </style>
  </defs>
  <rect id="영역" class="cls-1" width="24" height="24"/>
  <path id="패스_1492" data-name="패스 1492" class="cls-2" d="M9389.189-2353.365a1.525,1.525,0,0,1-1.526-1.521v-7.351a1.523,1.523,0,0,1-.663-1.256v-1.985a1.525,1.525,0,0,1,1.526-1.521h11.945a1.526,1.526,0,0,1,1.528,1.521v1.985a1.521,1.521,0,0,1-.664,1.256v7.351a1.526,1.526,0,0,1-1.525,1.521Zm.2-1.719h10.221v-6.884H9389.39Zm-.664-8.607h11.549v-1.589h-11.549Zm4.115,4.572a.2.2,0,0,1-.2-.2v-1.325a.2.2,0,0,1,.2-.2h3.318a.2.2,0,0,1,.2.2v1.325a.2.2,0,0,1-.2.2Z" transform="translate(-9382.5 2372.182)"/>
</svg>
