<svg id="ic_add_48" xmlns="http://www.w3.org/2000/svg" width="48" height="48" viewBox="0 0 48 48">
  <defs>
    <style>
      .cls-1 {
        fill: none;
      }

      .cls-2 {
        fill: #0078d4;
      }
    </style>
  </defs>
  <rect id="영역" class="cls-1" width="48" height="48"/>
  <path id="패스_1640" data-name="패스 1640" class="cls-2" d="M5912,1711a16,16,0,1,1,16,16A16,16,0,0,1,5912,1711Zm6.808-9.192A13,13,0,1,0,5928,1698,12.913,12.913,0,0,0,5918.808,1701.808Zm8.243,16.342a.4.4,0,0,1-.4-.4v-5.4h-5.4a.4.4,0,0,1-.4-.4v-1.9a.4.4,0,0,1,.4-.4h5.4v-5.4a.4.4,0,0,1,.4-.4h1.9a.4.4,0,0,1,.4.4v5.4h5.4a.4.4,0,0,1,.4.4v1.9a.4.4,0,0,1-.4.4h-5.4v5.4a.4.4,0,0,1-.4.4Z" transform="translate(-5904 -1687)"/>
</svg>
