<svg xmlns="http://www.w3.org/2000/svg" width="32" height="32" viewBox="0 0 32 32">
    <path style="fill:none" d="M0 0h32v32H0z"/>
    <path data-name="패스 1651" d="m5174.663-13840.516-5.371-3.169a2.847 2.847 0 0 1-1.291-2.278 2.83 2.83 0 0 1 .605-1.844 2.828 2.828 0 0 1-.605-1.617 2.841 2.841 0 0 1 1.134-2.373l.268-.2 1.7-.984 2.929-1.719v1.973l-1.246.733-1.673.981-.949.566a1.175 1.175 0 0 0-.456.919 1.174 1.174 0 0 0 .226.686 1.29 1.29 0 0 0 .2.212l.021.024 1.377.811 3.99 2.354a1.971 1.971 0 0 0 2.024 0l3.994-2.358 1.374-.811a1.223 1.223 0 0 0 .223-.229 1.129 1.129 0 0 0 .236-.686 1.147 1.147 0 0 0-.431-.9l-.978-.588-1.68-.981-1.249-.737v-1.973l2.919 1.723 1.711.987.268.2a2.844 2.844 0 0 1 1.127 2.373 2.825 2.825 0 0 1-.6 1.617 2.838 2.838 0 0 1 .6 1.844 2.844 2.844 0 0 1-1.294 2.282l-5.361 3.165a3.656 3.656 0 0 1-1.872.516 3.637 3.637 0 0 1-1.87-.519zm-4.957-5.552a1.168 1.168 0 0 0 .424.9l.021.021 5.368 3.169a1.993 1.993 0 0 0 2.024 0l5.368-3.169a1.157 1.157 0 0 0 .459-.919 1.144 1.144 0 0 0-.24-.7l-4.728 2.79a3.659 3.659 0 0 1-1.872.519 3.64 3.64 0 0 1-1.868-.519l-4.717-2.783a1.13 1.13 0 0 0-.239.692zm5.823-3.461v-7.928l-1.263 1.266-1.273-1.272 2.265-2.265 1.273-1.273 1.27 1.273 2.265 2.265-1.273 1.272-1.263-1.266v7.928z" transform="translate(-5160.53 13866.5)" style="fill:#1e1e1e"/>
</svg>
