<svg xmlns="http://www.w3.org/2000/svg" width="24" height="24" viewBox="0 0 24 24">
    <path style="fill:none" d="M0 0h24v24H0z"/>
    <path data-name="패스 1679" d="m5173.393-13844.418-4.348-2.564a2.307 2.307 0 0 1-1.044-1.846 2.289 2.289 0 0 1 .49-1.492 2.286 2.286 0 0 1-.49-1.309 2.3 2.3 0 0 1 .918-1.922l.217-.162 1.374-.8 2.372-1.391v1.6l-1.008.594-1.355.795-.768.459a.949.949 0 0 0-.369.744.95.95 0 0 0 .183.555 1.107 1.107 0 0 0 .16.172l.017.02 1.115.656 3.23 1.9a1.592 1.592 0 0 0 1.639 0l3.233-1.908 1.112-.656a.982.982 0 0 0 .18-.186.914.914 0 0 0 .191-.555.925.925 0 0 0-.349-.729l-.792-.477-1.36-.795-1.011-.6v-1.6l2.363 1.395 1.385.8.217.16a2.305 2.305 0 0 1 .913 1.922 2.286 2.286 0 0 1-.487 1.309 2.3 2.3 0 0 1 .487 1.492 2.3 2.3 0 0 1-1.047 1.848l-4.339 2.563a2.962 2.962 0 0 1-1.515.418 2.945 2.945 0 0 1-1.514-.41zm-4.013-4.494a.946.946 0 0 0 .343.727l.017.018 4.345 2.564a1.61 1.61 0 0 0 1.639 0l4.345-2.564a.938.938 0 0 0 .371-.744.929.929 0 0 0-.194-.566l-3.827 2.26a2.962 2.962 0 0 1-1.515.418 2.945 2.945 0 0 1-1.512-.418l-3.818-2.254a.913.913 0 0 0-.194.559zm4.714-2.8v-6.418l-1.022 1.023-1.03-1.029 1.833-1.834 1.031-1.029 1.027 1.029 1.833 1.834-1.031 1.029-1.022-1.023v6.418z" transform="translate(-5162.904 13864.5)" style="fill:#1e1e1e"/>
</svg>
