<svg xmlns="http://www.w3.org/2000/svg" width="24" height="24" viewBox="0 0 24 24">
    <path style="fill:none" d="M0 0h24v24H0z"/>
    <path data-name="패스 1678" d="m5260.96-13828.46-4.8-2.84a2.524 2.524 0 0 1-1.153-2.035 2.537 2.537 0 0 1 1.011-2.121l.242-.184 1.521-.88 2.621-1.539v1.767l-1.116.656-1.5.88-.852.507a1.044 1.044 0 0 0-.407.82 1.025 1.025 0 0 0 .382.8l.019.022 4.8 2.832a1.764 1.764 0 0 0 1.81 0l4.8-2.832a1.041 1.041 0 0 0 .41-.821 1.033 1.033 0 0 0-.382-.806l-.877-.524-1.5-.88-1.119-.66v-1.765l2.614 1.541 1.53.884.236.18a2.548 2.548 0 0 1 1.014 2.121 2.549 2.549 0 0 1-1.163 2.042l-4.791 2.833a3.3 3.3 0 0 1-1.676.459 3.28 3.28 0 0 1-1.674-.457zm.784-4.969v-8.4l-1.128 1.128-1.138-1.138 2.024-2.023 1.138-1.142 1.141 1.142 2.024 2.023-1.141 1.138-1.129-1.128v8.4z" transform="translate(-5250.635 13848.5)" style="fill:#1e1e1e"/>
</svg>
