<svg id="ic_bookmark_24" xmlns="http://www.w3.org/2000/svg" width="24" height="24" viewBox="0 0 24 24">
  <defs>
    <style>
      .cls-1 {
        fill: none;
      }

      .cls-2 {
        fill: #1e1e1e;
      }
    </style>
  </defs>
  <rect id="영역" class="cls-1" width="24" height="24"/>
  <path id="패스_1511" data-name="패스 1511" class="cls-2" d="M14.452,5.863c-1.248-.192-2.508-.388-3.771-.577a.348.348,0,0,1-.278-.227L9.9,3.973c-.373-.8-.746-1.6-1.107-2.4-.009-.02-.021-.038-.031-.057l-.02-.037a.233.233,0,0,1-.015-.041L8,0,7.278,1.441a.108.108,0,0,1-.011.035l-.027.052c-.011.019-.021.036-.031.057C6.885,2.3,6.555,3.01,6.223,3.72c-.2.441-.412.883-.614,1.325a.388.388,0,0,1-.331.243q-1.87.282-3.737.575L0,6.1,1.14,7.26l.022.019.083.088,1.61,1.661.985,1.021a.381.381,0,0,1,.117.361q-.209,1.286-.416,2.576l-.215,1.349a.19.19,0,0,1-.016.047l-.231,1.587,1.04-.554a.1.1,0,0,1,.03-.014l.469-.252c.527-.283,1.052-.565,1.577-.852.542-.3,1.082-.6,1.62-.905a.349.349,0,0,1,.375,0q1.608.9,3.219,1.8c.041.018.057.026.073.034a.166.166,0,0,1,.024.017L12.925,16l-.234-1.609-.007-.026c-.1-.616-.2-1.233-.3-1.849q-.169-1.048-.339-2.095a.4.4,0,0,1,.116-.373l1.148-1.186q.763-.792,1.531-1.581l.011-.01L16,6.1l-1.507-.228a.291.291,0,0,1-.041-.01M12.074,7.517l-.044.05c-.019.021-.036.041-.055.059L11.619,8c-.5.515-.995,1.03-1.5,1.538.118.676.227,1.351.334,2.029l.108.664c0,.021.005.041.007.069a.189.189,0,0,1-.068.16.2.2,0,0,1-.107.04.1.1,0,0,1-.048-.011l-.123-.06-.568-.317C9.1,11.8,8.551,11.494,8,11.177c-.555.321-1.117.633-1.678.944l-.647.357a.18.18,0,0,1-.176-.005.161.161,0,0,1-.075-.146l.21-1.3c.083-.5.165-.993.237-1.492-.6-.619-1.207-1.243-1.809-1.866l-.143-.152a.157.157,0,0,1,.088-.262L5.611,7c.366-.055.733-.111,1.1-.18q.462-1,.926-2l.228-.476A.154.154,0,0,1,8,4.263H8a.157.157,0,0,1,.136.08c.041.072.056.1.073.136l.262.565q.418.9.832,1.792c.713.106,1.427.218,2.141.33l.485.076.039.01a.193.193,0,0,1,.125.112.162.162,0,0,1-.019.152" transform="translate(4 4)"/>
</svg>
