<svg xmlns="http://www.w3.org/2000/svg" width="32" height="32" viewBox="0 0 32 32">
    <path style="fill:none" d="M0 0h32v32H0z"/>
    <path data-name="패스 1313" d="m24 9.15-2.608-.395c-.014 0-.025-.009-.04-.011q-2.725-.422-5.452-.837a.279.279 0 0 1-.233-.2c-.776-1.676-1.567-3.345-2.326-5.029-.024-.053-.053-.1-.079-.149h.007L12 0l-1.267 2.531h.007c-.028.056-.06.107-.087.166-.753 1.672-1.54 3.329-2.306 4.994a.34.34 0 0 1-.3.223q-2.7.407-5.39.828c-.018 0-.033.011-.051.014L0 9.15l1.977 2.013c.04.043.078.086.119.128 1.254 1.283 2.497 2.579 3.746 3.869a.336.336 0 0 1 .108.326c-.289 1.758-.57 3.514-.85 5.276-.02.13-.038.261-.059.391H5.03l-.409 2.807 1.889-1.011h.012c1-.536 1.994-1.069 2.986-1.611a178.58 178.58 0 0 0 2.338-1.309.279.279 0 0 1 .317 0q2.318 1.3 4.643 2.595c.034.019.071.033.106.051L19.385 24l-.409-2.806c-.309-1.9-.609-3.794-.92-5.691a.356.356 0 0 1 .107-.346c1.288-1.329 2.569-2.665 3.861-3.991z" transform="translate(4 4)" style="fill:#ffc41a"/>
</svg>
