<svg data-name="ic_bottom navi-note-on_40" xmlns="http://www.w3.org/2000/svg" width="40" height="40" viewBox="0 0 40 40">
    <path style="fill:none" d="M0 0h40v40H0z"/>
    <path data-name="패스 1343" d="M3.5 17.5h11.066v3H3.5zM0 0v24h24V12h-3.5v1.5h-17v-3H12v-4H3.5v-3H12V0z" transform="translate(8 8)" style="fill:#fafafa"/>
    <path data-name="패스 1344" d="M12 4.839V3.5H3.5v3H12V4.839z" transform="translate(8 8)" style="fill:#454647"/>
    <path data-name="패스 1345" d="M12 12v-1.5H3.5v3h17V12H12z" transform="translate(8 8)" style="fill:#454647"/>
    <path data-name="패스 1347" d="M0 0h11.067v3H0z" transform="translate(11.5 25.5)" style="fill:#454647"/>
    <path data-name="패스 1346" d="M12 0v12h12l-5.25-5.25-.25-.25-3.25-3.25z" transform="translate(8 8)" style="fill:#969799"/>
</svg>
