<svg xmlns="http://www.w3.org/2000/svg" width="32" height="32" viewBox="0 0 32 32">
    <path style="fill:none" d="M0 0h32v32H0z"/>
    <path data-name="패스 1650" d="m5261.661-13826.516-5.369-3.173a2.823 2.823 0 0 1-1.289-2.275 2.834 2.834 0 0 1 1.129-2.37l.271-.205 1.7-.983 2.929-1.72v1.974l-1.248.733-1.671.983-.952.566a1.17 1.17 0 0 0-.455.917 1.147 1.147 0 0 0 .427.9l.021.024 5.368 3.165a1.972 1.972 0 0 0 2.022 0l5.365-3.165a1.161 1.161 0 0 0 .458-.917 1.154 1.154 0 0 0-.427-.9l-.98-.587-1.678-.983-1.25-.737v-1.973l2.922 1.723 1.709.987.264.2a2.846 2.846 0 0 1 1.133 2.37 2.847 2.847 0 0 1-1.3 2.282l-5.354 3.166a3.679 3.679 0 0 1-1.873.514 3.658 3.658 0 0 1-1.872-.516zm.875-5.553v-9.385l-1.261 1.261-1.272-1.271 2.262-2.262 1.271-1.275 1.275 1.275 2.262 2.262-1.275 1.271-1.261-1.261v9.385z" transform="translate(-5247.531 13851.502)" style="fill:#1e1e1e"/>
</svg>
