<svg xmlns="http://www.w3.org/2000/svg" width="40" height="40" viewBox="0 0 40 40">
    <path style="fill:none" d="M0 0h40v40H0z"/>
    <path data-name="패스 1666" d="M6813.7-2136.149h-15.4a3.246 3.246 0 0 1-3.047 2.146 3.255 3.255 0 0 1-3.25-3.252 3.243 3.243 0 0 1 2.157-3.047v-15.4a3.25 3.25 0 0 1-2.157-3.047 3.255 3.255 0 0 1 3.25-3.252 3.245 3.245 0 0 1 3.047 2.145h15.4a3.235 3.235 0 0 1 3.047-2.145 3.25 3.25 0 0 1 3.25 3.252 3.241 3.241 0 0 1-2.148 3.047v15.4a3.234 3.234 0 0 1 2.148 3.047 3.25 3.25 0 0 1-3.25 3.252 3.236 3.236 0 0 1-3.047-2.146zm2-1.105a1.043 1.043 0 0 0 1.048 1.044 1.047 1.047 0 0 0 1.047-1.044 1.044 1.044 0 0 0-1.047-1.042 1.04 1.04 0 0 0-1.048 1.041zm-21.491 0a1.045 1.045 0 0 0 1.039 1.044 1.047 1.047 0 0 0 1.046-1.044 1.044 1.044 0 0 0-1.046-1.042 1.043 1.043 0 0 0-1.037 1.041zm2.148-18.446v15.4a3.246 3.246 0 0 1 1.938 1.939h15.405a3.223 3.223 0 0 1 1.938-1.939v-15.4a3.229 3.229 0 0 1-1.937-1.943H6798.3a3.252 3.252 0 0 1-1.941 1.943zm19.343-3.047a1.042 1.042 0 0 0 1.048 1.042 1.047 1.047 0 0 0 1.047-1.042 1.044 1.044 0 0 0-1.047-1.041 1.04 1.04 0 0 0-1.048 1.041zm-21.491 0a1.045 1.045 0 0 0 1.039 1.042 1.046 1.046 0 0 0 1.046-1.042 1.044 1.044 0 0 0-1.046-1.041 1.042 1.042 0 0 0-1.037 1.041zM6799-2144v-2h10v2zm0-4v-2h14v2zm0-4v-2h14v2z" transform="translate(-6786 2168.001)" style="fill:#1e1e1e"/>
</svg>
