<svg data-name="ic_bottom navi-search-off_40" xmlns="http://www.w3.org/2000/svg" width="40" height="40" viewBox="0 0 40 40">
    <path style="fill:none" d="M0 0h40v40H0z"/>
    <path data-name="패스 1348" d="M6217.973-1181.986a6.982 6.982 0 0 0 4.174-1.368l.862-.637.637-.863a7.041 7.041 0 0 0 1.35-4.674 7.033 7.033 0 0 0-2.043-4.477 7 7 0 0 0-4.98-2.062A6.991 6.991 0 0 0 6213-1194a7.049 7.049 0 0 0 0 9.957 6.991 6.991 0 0 0 4.978 2.061m11.872 7.128-5.446-5.446a10.836 10.836 0 0 1-14.084-1.063 10.833 10.833 0 0 1 0-15.318 10.831 10.831 0 0 1 15.318 0 10.836 10.836 0 0 1 1.063 14.083l5.447 5.447z" transform="translate(-6199.643 1207.358)" style="fill:#969799"/>
</svg>
