<svg xmlns="http://www.w3.org/2000/svg" width="40" height="40" viewBox="0 0 40 40">
    <path style="fill:none" d="M0 0h40v40H0z"/>
    <path data-name="패스 1571" d="M5300.659 1151a4.663 4.663 0 0 1-4.659-4.659v-14.684a4.663 4.663 0 0 1 4.659-4.657h14.684a4.663 4.663 0 0 1 4.657 4.657v14.684a4.663 4.663 0 0 1-4.657 4.659zm-1.872-4.167-.364.362a2.4 2.4 0 0 0 2.236 1.545h14.684a2.4 2.4 0 0 0 2.4-2.4v-.5l-6.779-6.123-4.689 5.6a1.172 1.172 0 0 1-1.552.221l-.081-.059-2.467-1.98zm-.527-15.176v12.4l3.011-2.96a1.173 1.173 0 0 1 .822-.335 1.185 1.185 0 0 1 .655.2l.079.057 2.385 1.914 4.728-5.643a1.176 1.176 0 0 1 1.6-.185l.075.064 6.121 5.488v-11a2.4 2.4 0 0 0-2.4-2.4h-14.684a2.4 2.4 0 0 0-2.392 2.401zm3.016 2.965a2.175 2.175 0 1 1 2.176 2.175 2.178 2.178 0 0 1-2.177-2.174z" transform="translate(-5288 -1119)" style="fill:#1e1e1e"/>
</svg>
