<svg xmlns="http://www.w3.org/2000/svg" width="40" height="40" viewBox="0 0 40 40">
    <path style="fill:none" d="M0 0h40v40H0z"/>
    <path data-name="패스 1668" d="M6797.8-2607.333a8.147 8.147 0 0 1-5.985-2.673h-8.452a3.39 3.39 0 0 1-2.379-.986 3.341 3.341 0 0 1-.985-2.378v-14.82a3.345 3.345 0 0 1 .985-2.38 3.388 3.388 0 0 1 2.379-.984h1.882V-2634h2.885v2.448h6.412V-2634h2.887v2.448h1.77a3.393 3.393 0 0 1 2.461.984 3.34 3.34 0 0 1 .985 2.38v6.12a8.152 8.152 0 0 1 3.3 5.639 8.149 8.149 0 0 1-2.021 6.385 8.158 8.158 0 0 1-6.074 2.712zm-4.007-12.186a5.786 5.786 0 0 0-1.7 4.1 5.77 5.77 0 0 0 1.693 4.11 5.773 5.773 0 0 0 4.1 1.717 5.826 5.826 0 0 0 4.142-1.722 5.812 5.812 0 0 0 1.7-4.123 5.778 5.778 0 0 0-1.715-4.1 5.787 5.787 0 0 0-4.1-1.693h-.009a5.8 5.8 0 0 0-4.11 1.711zm-11.463 6.149a1.041 1.041 0 0 0 .3.731 1.047 1.047 0 0 0 .731.3h7.01a8.194 8.194 0 0 1-.13-5.8 8.2 8.2 0 0 1 4.24-4.658 8.2 8.2 0 0 1 5.833-.4v-1.348h-17.987zm.33-15.551a1.047 1.047 0 0 0-.3.731v1.319h17.959v-1.319a1.036 1.036 0 0 0-.3-.729 1.023 1.023 0 0 0-.731-.3h-1.852v1.274h-2.887v-1.274h-6.412v1.274h-2.885v-1.274h-1.8a1.087 1.087 0 0 0-.791.299zm14.89 15.2a1.155 1.155 0 0 1-.823-.342 1.166 1.166 0 0 1-.341-.823v-4.351h2.33v3.186h2.941v2.33z" transform="translate(-6771 2641.667)" style="fill:#1e1e1e"/>
</svg>
