<svg xmlns="http://www.w3.org/2000/svg" width="32" height="32" viewBox="0 0 32 32">
    <path style="fill:none" d="M0 0h32v32H0z"/>
    <path data-name="패스 1602" d="M7388.125-2782.268h1.2c.009.27.27.465.634.465s.608-.2.608-.5-.285-.493-.7-.5h-.458v-.829h.458c.379 0 .643-.2.639-.489a.484.484 0 0 0-.539-.47.541.541 0 0 0-.607.483h-1.144c0-.825.732-1.405 1.751-1.405 1 0 1.7.558 1.7 1.318a.94.94 0 0 1-.922.916v.037c.721.082 1.093.476 1.091 1.035 0 .8-.775 1.36-1.877 1.36-1.067.008-1.825-.584-1.834-1.421zm6.976.1v-2h11v2zm-6.833-4.6v-.872l1.71-1.437c.352-.3.563-.513.567-.846a.566.566 0 0 0-.611-.58.563.563 0 0 0-.6.617h-1.152a1.545 1.545 0 0 1 1.749-1.552c1.091 0 1.788.563 1.788 1.413 0 .535-.264.983-1.3 1.857l-.463.4v.026h1.818v.972zm6.833-1.4v-2h11v2zm-5.654-4.6v-3.634h-.026l-1.061.636v-1.08l1.186-.723h1.167v4.8zm5.654-1.4v-2h11v2z" transform="translate(-7381.112 2805.206)" style="fill:#0078d4"/>
</svg>
