<svg xmlns="http://www.w3.org/2000/svg" width="40" height="40" viewBox="0 0 40 40">
    <path style="fill:none" d="M0 0h40v40H0z"/>
    <path data-name="패스 1667" d="M6796.659-2426a4.664 4.664 0 0 1-4.66-4.653v-14.694a4.663 4.663 0 0 1 4.66-4.653h14.684a4.661 4.661 0 0 1 4.658 4.653v14.694a4.662 4.662 0 0 1-4.658 4.653zm-.007-2.255h14.684a2.4 2.4 0 0 0 2.4-2.4v-14.694a2.4 2.4 0 0 0-2.4-2.4h-14.684a2.4 2.4 0 0 0-2.393 2.4v14.691a2.4 2.4 0 0 0 2.393 2.404zm3.982-5.949-4.059-4.057 1.6-1.6 4.059 4.059 7.593-7.593 1.6 1.6-7.6 7.593-1.6 1.6z" transform="translate(-6784 2458)" style="fill:#1e1e1e"/>
</svg>
