<svg data-name="ic_bottom navi-store-on_40" xmlns="http://www.w3.org/2000/svg" width="40" height="40" viewBox="0 0 40 40">
    <path style="fill:none" d="M0 0h40v40H0z"/>
    <path data-name="패스 1477" d="M5705.749 1172.374v-14.728a5.375 5.375 0 0 1-.995-1.276 5.74 5.74 0 0 1-.755-2.814v-5.307a1.761 1.761 0 0 1 .506-1.237 1.725 1.725 0 0 1 1.221-.511h23.546a1.7 1.7 0 0 1 1.221.511 1.761 1.761 0 0 1 .506 1.237v5.312a5.711 5.711 0 0 1-.744 2.79 5.468 5.468 0 0 1-1.006 1.334v14.689zm2.869-2.911h17.763v-10.285a5.515 5.515 0 0 1-1.056.115 5.521 5.521 0 0 0-7.826-.005 4.217 4.217 0 0 0-6.6-.134 5.187 5.187 0 0 1-2.279.024zm14.53-15.907a2.244 2.244 0 0 0 1.1 1.933 2.14 2.14 0 0 0 2.131.029c.021-.013.047-.018.068-.029a2.246 2.246 0 0 0 1.1-1.933V1150h-4.4zm-7.848 0a2.244 2.244 0 0 0 1.1 1.933 2.171 2.171 0 0 0 2.2 0 2.247 2.247 0 0 0 1.1-1.933V1150h-4.4zm-7.849 0a2.247 2.247 0 0 0 1.1 1.933c.021.013.047.016.067.029a2.141 2.141 0 0 0 2.132-.029 2.244 2.244 0 0 0 1.1-1.933V1150h-4.4zm6.674 15.907v-5.963h6.75v5.963z" transform="translate(-5697.5 -1139.437)" style="fill:#fcfcfc"/>
</svg>
