<svg xmlns="http://www.w3.org/2000/svg" width="24" height="24" viewBox="0 0 24 24">
    <path style="fill:none" d="M0 0h24v24H0z"/>
    <path data-name="패스 1301" d="m14 5.338-1.521-.23c-.008 0-.015-.005-.023-.006q-1.59-.246-3.18-.488a.163.163 0 0 1-.137-.114c-.453-.978-.914-1.951-1.357-2.934-.014-.031-.031-.058-.046-.087L7 0l-.74 1.476c-.016.033-.035.062-.051.1-.44.974-.9 1.941-1.345 2.912a.2.2 0 0 1-.177.13q-1.567.236-3.139.482c-.011 0-.019.006-.03.008L0 5.338l1.153 1.174.069.075c.73.75 1.455 1.506 2.184 2.259a.2.2 0 0 1 .063.19c-.169 1.025-.332 2.052-.5 3.078l-.034.228h-.006l-.239 1.637 1.1-.59h.01c.581-.313 1.163-.624 1.742-.94.457-.25.911-.506 1.364-.764a.162.162 0 0 1 .185 0q1.352.761 2.708 1.514c.02.011.041.019.062.03l1.447.771-.239-1.637c-.18-1.106-.355-2.213-.537-3.32a.207.207 0 0 1 .062-.2c.751-.775 1.5-1.555 2.252-2.328z" transform="translate(5 5)" style="fill:#ffc41a;opacity:.9"/>
</svg>
