<svg xmlns="http://www.w3.org/2000/svg" width="40" height="40" viewBox="0 0 40 40">
    <path style="fill:none" d="M0 0h40v40H0z"/>
    <path data-name="패스 1665" d="M9141.711-1323.148H9126.3a3.245 3.245 0 0 1-3.047 2.147 3.256 3.256 0 0 1-3.25-3.252 3.244 3.244 0 0 1 2.156-3.048v-11.4a3.251 3.251 0 0 1-2.156-3.048 3.256 3.256 0 0 1 3.25-3.252 3.246 3.246 0 0 1 3.047 2.145h15.406a3.238 3.238 0 0 1 3.047-2.145 3.251 3.251 0 0 1 3.25 3.252 3.244 3.244 0 0 1-2.148 3.048v11.4a3.237 3.237 0 0 1 2.148 3.048 3.251 3.251 0 0 1-3.25 3.252 3.238 3.238 0 0 1-3.042-2.147zm2-1.1a1.041 1.041 0 0 0 1.047 1.043 1.046 1.046 0 0 0 1.047-1.043 1.044 1.044 0 0 0-1.047-1.043 1.039 1.039 0 0 0-1.047 1.038zm-21.492 0a1.044 1.044 0 0 0 1.039 1.043 1.046 1.046 0 0 0 1.047-1.043 1.044 1.044 0 0 0-1.047-1.043 1.043 1.043 0 0 0-1.039 1.038zm2.148-14.446v11.4a3.249 3.249 0 0 1 1.938 1.94h15.406a3.229 3.229 0 0 1 1.938-1.94v-11.4a3.233 3.233 0 0 1-1.937-1.943H9126.3a3.253 3.253 0 0 1-1.933 1.937zm19.344-3.048a1.041 1.041 0 0 0 1.047 1.043 1.046 1.046 0 0 0 1.047-1.043 1.044 1.044 0 0 0-1.047-1.04 1.039 1.039 0 0 0-1.047 1.035zm-21.492 0a1.044 1.044 0 0 0 1.039 1.043 1.046 1.046 0 0 0 1.047-1.043 1.044 1.044 0 0 0-1.047-1.04 1.042 1.042 0 0 0-1.039 1.035zm10.648 13.605v-7.45h-3.719v-2.267h9.719v2.267h-3.727v7.45z" transform="translate(-9114.008 1353)" style="fill:#1e1e1e"/>
</svg>
