<svg xmlns="http://www.w3.org/2000/svg" width="32" height="32" viewBox="0 0 32 32">
    <path style="fill:none" d="M0 0h32v32H0z"/>
    <path data-name="패스 1642" d="M5350.153-13503.629a3.95 3.95 0 0 1 0-5.578 3.923 3.923 0 0 1 2.789-1.153 4.254 4.254 0 0 1 .662.054l.93-.943-.926-.926a3.877 3.877 0 0 1-.655.058 3.989 3.989 0 0 1-2.8-1.157 3.947 3.947 0 0 1 0-5.575 3.909 3.909 0 0 1 2.789-1.15 3.918 3.918 0 0 1 2.792 1.15 3.976 3.976 0 0 1 1.1 3.475l.923.923 3.692-3.694a5.449 5.449 0 0 1 3.82-1.578 5.285 5.285 0 0 1 2.26.5.725.725 0 0 1 .438.556.753.753 0 0 1-.207.658l-6.783 6.78 6.8 6.786a.747.747 0 0 1 .21.658.778.778 0 0 1-.42.549 5.322 5.322 0 0 1-2.277.506 5.43 5.43 0 0 1-3.821-1.577l-3.719-3.72-.919.924a3.912 3.912 0 0 1-1.1 3.474 3.873 3.873 0 0 1-2.783 1.168 3.934 3.934 0 0 1-2.795-1.168zm1.052-4.51a2.448 2.448 0 0 0 0 3.458 2.421 2.421 0 0 0 1.727.712 2.429 2.429 0 0 0 1.73-.712 2.415 2.415 0 0 0 .614-2.416.28.28 0 0 1-.014-.051.8.8 0 0 1 .21-.7l10.342-10.342a4.206 4.206 0 0 0-.553-.037 3.889 3.889 0 0 0-2.741 1.13l-8.15 8.146a.775.775 0 0 1-.54.23.657.657 0 0 1-.207-.034 2.449 2.449 0 0 0-.7-.1 2.465 2.465 0 0 0-1.718.716zm7.621-.939 3.7 3.715a3.86 3.86 0 0 0 2.751 1.13 4.328 4.328 0 0 0 .563-.037l-5.907-5.91zm-4.455-4.435 1.232 1.231 1.1-1.1-1.231-1.232a.729.729 0 0 1-.2-.746 2.422 2.422 0 0 0-.614-2.419 2.426 2.426 0 0 0-1.73-.709 2.419 2.419 0 0 0-1.727.709 2.446 2.446 0 0 0 0 3.457 2.426 2.426 0 0 0 1.73.709 2.81 2.81 0 0 0 .736-.1.679.679 0 0 1 .149-.014.772.772 0 0 1 .555.214zm-2.117 7.787a.944.944 0 0 1 0-1.361.939.939 0 0 1 1.357 0 .944.944 0 0 1 0 1.361.971.971 0 0 1-.687.287.919.919 0 0 1-.671-.287zm5.035-5.035a.734.734 0 0 1 0-1.056.729.729 0 0 1 1.052 0 .734.734 0 0 1 0 1.056.755.755 0 0 1-.532.224.713.713 0 0 1-.52-.224zm-5.035-4.611a.944.944 0 0 1 0-1.361.939.939 0 0 1 1.357 0 .944.944 0 0 1 0 1.361.971.971 0 0 1-.687.287.919.919 0 0 1-.671-.287z" transform="translate(-5342.501 13527.232)" style="fill:#1e1e1e"/>
</svg>
