<svg xmlns="http://www.w3.org/2000/svg" width="24" height="24" viewBox="0 0 24 24">
    <path style="fill:none" d="M0 0h24v24H0z"/>
    <path data-name="패스 1512" d="M9573.939-3439h-9.059a2.055 2.055 0 0 1-2.058-2.056v-.771h-.765a2.055 2.055 0 0 1-2.059-2.056v-9.058a2.058 2.058 0 0 1 2.056-2.058h9.063a2.058 2.058 0 0 1 2.059 2.058v.762h.765a2.058 2.058 0 0 1 2.059 2.056v9.067a2.056 2.056 0 0 1-2.057 2.056zm-9.469-10.711v8.243a.823.823 0 0 0 .822.823h8.237a.824.824 0 0 0 .823-.823v-8.243a.822.822 0 0 0-.823-.821h-8.237a.822.822 0 0 0-.821.82zm-2.824-2.819v8.232a.826.826 0 0 0 .824.826h.353v-6.648a2.057 2.057 0 0 1 2.056-2.059h6.651v-.351a.824.824 0 0 0-.824-.823h-8.235a.824.824 0 0 0-.825.822zm6.942 9.766v-2h-2v-1.647h2v-2h1.647v2h2v1.647h-2v2z" transform="translate(-9556 3459)" style="fill:#1e1e1e;stroke:transparent"/>
</svg>
