<svg xmlns="http://www.w3.org/2000/svg" width="32" height="32" viewBox="0 0 32 32">
    <path style="fill:none" d="M0 0h32v32H0z"/>
    <path data-name="패스 1644" d="M16.938 19H5.88a2.055 2.055 0 0 1-2.057-2.052v-.775H2.058A2.055 2.055 0 0 1 0 14.122V2.058A2.057 2.057 0 0 1 2.055 0h12.063a2.058 2.058 0 0 1 2.058 2.057V3.82h.765A2.058 2.058 0 0 1 19 5.876v11.068A2.056 2.056 0 0 1 16.944 19h-.006zM5.47 6.288v10.244a.823.823 0 0 0 .822.823h10.237a.825.825 0 0 0 .823-.823V6.288a.823.823 0 0 0-.823-.821H6.292a.822.822 0 0 0-.822.82zM1.646 2.469V13.7a.826.826 0 0 0 .824.826h1.353V5.879A2.057 2.057 0 0 1 5.877 3.82h8.653V2.469a.825.825 0 0 0-.825-.823H2.47a.824.824 0 0 0-.824.822z" transform="translate(6.5 6.5)" style="fill:#1e1e1e"/>
</svg>
