<svg xmlns="http://www.w3.org/2000/svg" width="24" height="24" viewBox="0 0 24 24">
    <path style="fill:none" d="M0 0h24v24H0z"/>
    <path data-name="패스 1485" d="M21.338 8.732a4.8 4.8 0 0 0-1.773-1.75 5.546 5.546 0 0 0 .151-1.286A5.689 5.689 0 0 0 9.482 2.268a5.382 5.382 0 0 0-.929-.076 4.968 4.968 0 0 0-5.066 4.335A4.936 4.936 0 0 0 0 11.137 4.992 4.992 0 0 0 5.091 16h11.816A4.976 4.976 0 0 0 22 11.137a4.829 4.829 0 0 0-.662-2.406M6.286 11.158a1.578 1.578 0 1 1 1.571-1.579 1.576 1.576 0 0 1-1.571 1.578m4.714 0a1.578 1.578 0 1 1 1.571-1.578A1.576 1.576 0 0 1 11 11.158m4.714 0a1.578 1.578 0 1 1 1.571-1.578 1.576 1.576 0 0 1-1.571 1.578" transform="translate(1 4)" style="fill:#b9b9b9"/>
</svg>
