<svg id="ic_change-cover_24" xmlns="http://www.w3.org/2000/svg" width="24" height="24" viewBox="0 0 24 24">
  <defs>
    <style>
      .cls-1 {
        fill: none;
      }

      .cls-2 {
        fill: #1e1e1e;
        stroke: rgba(0,0,0,0);
      }
    </style>
  </defs>
  <rect id="영역" class="cls-1" width="24" height="24"/>
  <path id="패스_1514" data-name="패스 1514" class="cls-2" d="M9569.584-3538a1.621,1.621,0,0,1-1.632-1.606v-9.782a1.62,1.62,0,0,1,1.632-1.606h4.179a.234.234,0,0,1,.237.233.168.168,0,0,1,0,.031v1.069a.236.236,0,0,1-.24.233h-3.892a.317.317,0,0,0-.32.314v9.232a.318.318,0,0,0,.32.315h3.892a.238.238,0,0,1,.24.235v1.1a.238.238,0,0,1-.24.235Zm-9.347,0a.24.24,0,0,1-.168-.069.236.236,0,0,1-.069-.166v-1.1a.238.238,0,0,1,.239-.235h4.688a.317.317,0,0,0,.319-.313v-5.155h-3.111a1.344,1.344,0,0,1-1.351-1.335v-3.058h-.547a.236.236,0,0,1-.237-.233v-1.1a.237.237,0,0,1,.237-.235h1.849a.2.2,0,0,1,.053,0,.239.239,0,0,1,.168.069l1.207,1.187,1.212,1.192.092.089,1.952,1.927a.232.232,0,0,1,.068.165v6.766a1.622,1.622,0,0,1-1.632,1.606Zm2.139-10.379v1.772h2.073l-.759-.746-.092-.092-1.223-1.2Z" transform="translate(-9555 3556.499)"/>
</svg>
