<svg xmlns="http://www.w3.org/2000/svg" width="24" height="24" viewBox="0 0 24 24">
    <path style="fill:none" d="M0 0h24v24H0z"/>
    <path data-name="패스 1673" d="M8923.47-6542.931a3.478 3.478 0 0 1-2.458-1.025 3.479 3.479 0 0 1 0-4.907 3.472 3.472 0 0 1 2.449-1.019h.007a4.13 4.13 0 0 1 .5.036l.626-.632-.621-.622a3.3 3.3 0 0 1-.5.039 3.488 3.488 0 0 1-2.465-1.019 3.483 3.483 0 0 1 0-4.907 3.463 3.463 0 0 1 2.442-1.014h.029a3.47 3.47 0 0 1 2.442 1.014 3.505 3.505 0 0 1 .98 2.98l.616.617 3-3.005a4.71 4.71 0 0 1 3.321-1.373h.014a4.641 4.641 0 0 1 1.956.435.757.757 0 0 1 .453.579.787.787 0 0 1-.216.684l-5.606 5.6 5.62 5.611a.773.773 0 0 1 .218.684.807.807 0 0 1-.436.572 4.66 4.66 0 0 1-1.972.442h-.011a4.681 4.681 0 0 1-3.323-1.373l-3.03-3.027-.61.617a3.437 3.437 0 0 1-.982 2.98 3.424 3.424 0 0 1-2.437 1.027zm-1.359-4.824a1.914 1.914 0 0 0 0 2.7 1.9 1.9 0 0 0 1.342.557h.011a1.9 1.9 0 0 0 1.344-.557 1.88 1.88 0 0 0 .482-1.884.578.578 0 0 1-.016-.058.824.824 0 0 1 .215-.725l2.014-2.012a.75.75 0 0 1-.479-.231.752.752 0 0 1-.231-.491l-2.016 2.019a.794.794 0 0 1-.559.235.693.693 0 0 1-.225-.036 1.924 1.924 0 0 0-.533-.074h-.009a1.9 1.9 0 0 0-1.341.557zm6.522-.9 3.012 3.023a3.121 3.121 0 0 0 2.193.906h.157l-4.641-4.643zm3-6.647-4 4a.758.758 0 0 1 .464.211.775.775 0 0 1 .251.5l5.625-5.623h-.133a3.111 3.111 0 0 0-2.204.914zm-7.41 2.582a.8.8 0 0 1 .547.222l.929.933.715-.713-.931-.933a.767.767 0 0 1-.206-.778 1.883 1.883 0 0 0-.478-1.889 1.905 1.905 0 0 0-1.337-.552h-.026a1.875 1.875 0 0 0-1.337.552 1.913 1.913 0 0 0 0 2.7 1.9 1.9 0 0 0 1.339.554h.011a2.32 2.32 0 0 0 .581-.076.736.736 0 0 1 .168-.02zm-.778 7.28a.929.929 0 0 1-.668-.285.949.949 0 0 1-.024-1.334.969.969 0 0 1 .684-.314.917.917 0 0 1 .671.262l.024.027a.927.927 0 0 1 .289.662.937.937 0 0 1-.262.673.987.987 0 0 1-.709.31zm0-8.123a.932.932 0 0 1-.668-.287.944.944 0 0 1-.287-.659.942.942 0 0 1 .263-.673.967.967 0 0 1 .684-.314h.021a.934.934 0 0 1 .65.262l.024.024a.931.931 0 0 1 .289.662.933.933 0 0 1-.262.673.449.449 0 0 0-.034.034.951.951 0 0 1-.675.278z" transform="translate(-8916.148 6562.465)" style="fill:#1e1e1e"/>
</svg>
