<svg xmlns="http://www.w3.org/2000/svg" width="32" height="32" viewBox="0 0 32 32">
    <path style="fill:none" d="M0 0h32v32H0z"/>
    <path data-name="패스 1549" d="M9575.683-3437h-10.19a2.313 2.313 0 0 1-2.314-2.313v-.868h-.859a2.312 2.312 0 0 1-2.32-2.319v-10.19a2.316 2.316 0 0 1 2.313-2.315h10.2a2.317 2.317 0 0 1 2.316 2.315v.858h.859a2.315 2.315 0 0 1 2.316 2.313v10.2a2.313 2.313 0 0 1-2.313 2.313zm-10.652-12.05v9.274a.927.927 0 0 0 .927.926h9.267a.927.927 0 0 0 .926-.926v-9.274a.925.925 0 0 0-.926-.923h-9.267a.925.925 0 0 0-.928.921zm-3.177-3.17v9.261a.929.929 0 0 0 .927.929h.4v-7.479a2.314 2.314 0 0 1 2.312-2.316h7.484v-.394a.928.928 0 0 0-.929-.927h-9.265a.927.927 0 0 0-.929.924zm7.811 10.986v-2.253h-2.248v-1.853h2.248v-2.249h1.853v2.249h2.25v1.853h-2.25v2.253z" transform="translate(-9553.001 3462.001)" 
    style="fill:#c0c0c0"/>
</svg>
