<svg xmlns="http://www.w3.org/2000/svg" width="24" height="24" viewBox="0 0 24 24">
    <path style="fill:none" d="M0 0h24v24H0z"/>
    <path data-name="패스 1486" d="M21.339 8.73a4.8 4.8 0 0 0-1.773-1.749A5.688 5.688 0 0 0 9.483 2.268a5.382 5.382 0 0 0-.929-.076 4.969 4.969 0 0 0-5.068 4.335A4.941 4.941 0 0 0 0 11.137 4.993 4.993 0 0 0 5.092 16h11.816A4.975 4.975 0 0 0 22 11.137a4.806 4.806 0 0 0-.66-2.407m-9.784 2.9L9.888 13.3l-1.666-1.672-2.778-2.791 1.667-1.673 2.777 2.789 5-5.023 1.667 1.675z" transform="translate(1 4)" style="fill:#b9b9b9"/>
</svg>
