<svg xmlns="http://www.w3.org/2000/svg" width="40" height="40" viewBox="0 0 40 40">
    <path style="fill:none" d="M0 0h40v40H0z"/>
    <path data-name="패스 1478" d="M9228.16 20042.613a5.168 5.168 0 0 1-5.16-5.166v-11.182a5.161 5.161 0 0 1 4.864-5.15l2.7-.156a1.909 1.909 0 0 0 .9-.281 1.846 1.846 0 0 0 .614-.686 3.746 3.746 0 0 1 1.363-1.463 3.7 3.7 0 0 1 1.921-.529h4.275a3.649 3.649 0 0 1 3.28 1.992 1.778 1.778 0 0 0 .613.68 1.873 1.873 0 0 0 .905.287l2.7.156a5.161 5.161 0 0 1 4.864 5.15v11.182a5.17 5.17 0 0 1-5.161 5.166zm6.7-21.75a.989.989 0 0 0-.352.393 4.516 4.516 0 0 1-1.564 1.719 4.688 4.688 0 0 1-2.224.715l-2.7.156a2.416 2.416 0 0 0-2.283 2.42v11.182a2.431 2.431 0 0 0 2.424 2.43h18.677a2.421 2.421 0 0 0 2.425-2.43v-11.182a2.41 2.41 0 0 0-2.278-2.42l-2.7-.156a4.723 4.723 0 0 1-2.224-.715 4.547 4.547 0 0 1-1.564-1.719.907.907 0 0 0-.86-.523h-4.271a.975.975 0 0 0-.511.13zm-1.881 15.014-.016-.01a6.406 6.406 0 0 1 9.069-9.049l.01.016a6.4 6.4 0 0 1-9.063 9.043zm1.574-7.479a4.18 4.18 0 1 0 2.952-1.219 4.155 4.155 0 0 0-2.956 1.221z" transform="translate(-9217.5 -20010.305)" style="fill:#5590BD"/>
</svg>
