<svg xmlns="http://www.w3.org/2000/svg" width="24" height="24" viewBox="0 0 24 24">
    <path style="fill:none" d="M0 0h24v24H0z"/>
    <path data-name="패스 1432" d="M8371.261 19433.7a1 1 0 0 1-.829-.443l-1.288-1.937a.849.849 0 1 1 1.414-.941l1.078 1.619h12.427l1.078-1.619a.85.85 0 1 1 1.415.941l-1.288 1.938a1 1 0 0 1-.829.443zm5.384-5.766-2.848-2.443a.849.849 0 1 1 1.106-1.287l2.1 1.795v-7.15a.849.849 0 1 1 1.7 0v7.15l2.1-1.795a.849.849 0 1 1 1.107 1.287l-2.849 2.443a1.846 1.846 0 0 1-2.409 0z" transform="translate(-8365.85 -19413.848)" style="fill:#fff"/>
</svg>
