<svg xmlns="http://www.w3.org/2000/svg" width="44" height="44" viewBox="0 0 44 44">
    <path data-name="사각형 151" style="fill:none" d="M0 0h44v44H0z"/>
    <path data-name="패스 456" d="M7536.959 2673.515a.81.81 0 1 1 0-1.619h23.356a.81.81 0 1 1 0 1.619zm.3-4.621 1.592-4.7a.447.447 0 0 1 .046-.076 1.454 1.454 0 0 1 .166-.4l3.795 3.748a1.442 1.442 0 0 1-.412.164.224.224 0 0 1-.07.041l-4.77 1.565a.519.519 0 0 1-.155.027c-.182-.001-.267-.144-.191-.369zm3.313-6.738 8.615-8.5 3.867 3.82-8.613 8.507zm10.162-10.033 2.322-2.293a1.107 1.107 0 0 1 1.547 0l2.32 2.293a1.072 1.072 0 0 1 0 1.527l-2.32 2.291z" transform="translate(-7526.636 -2639.515)" style="fill:#262626;stroke:transparent"/>
</svg>
