<svg xmlns="http://www.w3.org/2000/svg" width="32" height="32" viewBox="0 0 32 32">
    <path style="fill:none" d="M0 0h32v32H0z"/>
    <path data-name="패스 1617" d="M21.061 2.306a.139.139 0 0 0-.03-.025L19.693.938a3.21 3.21 0 0 0-4.535 0l-9.405 9.4c-2.5 2.5-3 3-3.066 3.059a1.268 1.268 0 0 0-.354.489L.092 20.244A1.277 1.277 0 0 0 1.275 22h.008a1.218 1.218 0 0 0 .466-.091l6.345-2.248a1.272 1.272 0 0 0 .452-.3c.03-.027 9.482-9.466 12.516-12.5a3.224 3.224 0 0 0 0-4.549m-1.614 2.24a.212.212 0 0 0 0 .034.657.657 0 0 1-.194.466L7.62 16.667l-2.3-2.3L16.959 2.744a.645.645 0 0 1 .464-.192.652.652 0 0 1 .465.192l.013.011 1.355 1.358a.66.66 0 0 1 .192.434M5.357 18.015l-2.332.952.949-2.337z" transform="translate(5 5.002)" style="fill:#fff"/>
</svg>
