<?xml version="1.0" encoding="UTF-8"?>
<svg xmlns="http://www.w3.org/2000/svg" xmlns:xlink="http://www.w3.org/1999/xlink" width="40px" height="40px" viewBox="0 0 40 40" version="1.1">
<g id="surface1">
<path style="fill:none;stroke-width:2;stroke-linecap:round;stroke-linejoin:round;stroke:#1e1e1e;stroke-opacity:1;stroke-miterlimit:4;" d="M 14.998828 7.5 L 17.498437 9.999609 M 7.5 20.001562 L 19.249219 8.248828 C 19.941797 7.559766 19.941797 6.441797 19.249219 5.749219 C 18.560156 5.060156 17.438672 5.060156 16.749609 5.749219 L 5.000391 17.498437 L 5.000391 20.001562 Z M 7.5 20.001562 L 15.877734 20.001562 C 17.051953 20.001562 18.001172 19.048828 18.001172 17.878125 C 18.001172 17.315625 17.776172 16.777734 17.378906 16.376953 L 16.999219 16.000781 M 4.501172 5.000391 C 6.501562 3 9.999609 3.998438 9.999609 5.998828 C 9.999609 8.498437 3.998438 8.498437 3.998438 11.001562 C 3.998438 11.876953 4.532812 12.527344 5.225391 12.998437 " transform="matrix(1.111111,0,0,1.111111,6.666667,6.666667)"/>
</g>
</svg>
