<svg xmlns="http://www.w3.org/2000/svg" width="100" height="100" viewBox="0 0 100 100">
    <path data-name="사각형 150" style="fill:none" d="M0 0h100v100H0z"/>
    <g data-name="그룹 731" transform="translate(-908.171 -511.897)">
        <circle data-name="타원 42" cx="40" cy="40" r="40" transform="translate(918.171 521.898)" style="fill:rgba(191,191,191,.12)"/>
        <path data-name="패스 458" d="M7625.482 2625.791a1.313 1.313 0 0 1 0-2.625h37.376a1.313 1.313 0 0 1 0 2.625zm.484-7.492 2.549-7.615a.718.718 0 0 1 .071-.123 2.285 2.285 0 0 1 .263-.648l6.074 6.074a2.43 2.43 0 0 1-.656.267.58.58 0 0 1-.117.065l-7.628 2.535a.842.842 0 0 1-.248.044c-.295.002-.43-.233-.307-.598zm5.3-10.919 13.783-13.782 6.188 6.19-13.782 13.78zm16.259-16.259 3.716-3.714a1.759 1.759 0 0 1 2.476 0l3.712 3.712a1.755 1.755 0 0 1 0 2.476l-3.714 3.716z" transform="translate(-6686 -2046.446)" style="fill:#fff"/>
    </g>
</svg>
