<svg xmlns="http://www.w3.org/2000/svg" width="32" height="32" viewBox="0 0 32 32">
    <path style="fill:none" d="M0 0h32v32H0z"/>
    <g data-name="패스 1458">
        <path d="M7.927 17.772 4.733 14.58l8.591-8.595 2.342-2.345 1.048-1.046 1.533-1.533 3.196 3.196-.921.92-.615.607-.973.973-2.332 2.335-8.675 8.68z" style="stroke:none" transform="translate(4.497 4.75)"/>
        <path d="M18.247 2.121 5.794 14.58l2.133 2.132 11.45-11.457 1.004-.998-2.134-2.135m0-2.121 4.257 4.257-2.063 2.062-.003-.004-3.305 3.307-9.205 9.21-4.255-4.252L18.247 0z" style="fill:#ebeced;stroke:none" transform="translate(4.497 4.75)"/>
    </g>
    <path data-name="패스 1459" d="M1.829 16.77a.385.385 0 0 0-.047.084L.031 22.088c-.084.251.009.412.21.412a.542.542 0 0 0 .168-.031l5.242-1.743a.334.334 0 0 0 .083-.045 1.651 1.651 0 0 0 .451-.183l-4.173-4.175a1.532 1.532 0 0 0-.183.447" transform="translate(4.497 4.75)" style="fill:#ebeced"/>
</svg>
