<svg xmlns="http://www.w3.org/2000/svg" width="32" height="32" viewBox="0 0 32 32">
    <path style="fill:none" d="M0 0h32v32H0z"/>
    <g data-name="패스 1460" style="fill:#13db19">
        <path d="m11.552 17.84-5.433-5.431 10.298-9.13 2.532-2.249 1.13 1.13 1.717 1.716 1.13 1.13-.83.936a.84.84 0 0 0-.042.05L11.552 17.84z" style="stroke:none" transform="translate(4.022 4.727)"/>
        <path d="m11.519 16.746 9.96-11.238.057-.066.36-.405-2.977-2.977-2.005 1.78-9.702 8.601 4.307 4.305m.066 2.187-6.56-6.557L18.98 0l4.976 4.976-1.306 1.471c-.008.008-.014.019-.022.027L11.585 18.933z" style="fill:#ebeced;stroke:none" transform="translate(4.022 4.727)"/>
    </g>
    <path data-name="패스 1461" d="M3.614 13.788 2.6 19.042l-2.6 2.6 3.736.9 1.185-1.182 5.254-1.011z" transform="translate(4.022 4.727)" style="fill:#ebeced"/>
</svg>
