<svg xmlns="http://www.w3.org/2000/svg" width="32" height="32" viewBox="0 0 32 32">
    <path style="fill:none" d="M0 0h32v32H0z"/>
    <path data-name="패스 1569" d="M18.114 17.117h-6.762l6.915-7.139a2.647 2.647 0 0 0-.033-3.689L12.789.742A2.5 2.5 0 0 0 11.027 0h-.009A2.468 2.468 0 0 0 9.26.729l-8 7.885a4.308 4.308 0 0 0-.14 5.94l2.452 2.738A5.117 5.117 0 0 0 6.9 18.969c.116.006.217.008.317.008a5.559 5.559 0 0 0 .955-.088h9.943a.886.886 0 0 0 0-1.772M10.582 2.064a.606.606 0 0 1 .429-.178l.085.007a.6.6 0 0 1 .374.177l5.441 5.53a.769.769 0 0 1 .016 1.073l-5.178 5.344L5.2 7.37zM2.5 13.294a2.43 2.43 0 0 1 .085-3.345L3.831 8.69l6.562 6.685-.708.733a3.237 3.237 0 0 1-2.336 1.006H7.3a3.24 3.24 0 0 1-2.352-1.062z" transform="translate(6.5 6.512)" style="fill:#0078d4"/>
</svg>
