<svg xmlns="http://www.w3.org/2000/svg" width="32" height="32" viewBox="0 0 32 32">
    <path style="fill:none" d="M0 0h32v32H0z"/>
    <path data-name="패스 1440" d="M8052.789-354.826a1.46 1.46 0 0 1-.52-1.982l.022-.038.014-.026a.028.028 0 0 0 .006-.008l.093-.161c.058-.1.177-.318.337-.63a17.91 17.91 0 0 0 .881-1.971 6.941 6.941 0 0 0 .481-1.961 1.375 1.375 0 0 0-.028-.424h-.036c-.056 0-.121.012-.191.024a4.937 4.937 0 0 0-.708.2 26.273 26.273 0 0 0-2.713 1.241l-.1.052a4.805 4.805 0 0 0-.175.089 23.087 23.087 0 0 1-3.472 1.493 7.926 7.926 0 0 1-.885.215 3.706 3.706 0 0 1-2.858-.491l-.1-.074a.472.472 0 0 1-.09-.084l-.081-.095a2.631 2.631 0 0 1-.469-2.458 6.77 6.77 0 0 1 .988-2 38.988 38.988 0 0 1 3.289-3.953l.07-.078a38.438 38.438 0 0 0 2.973-3.52 6.308 6.308 0 0 0 .43-.7 6.138 6.138 0 0 0-1.621.344 27.034 27.034 0 0 0-4.7 2.239 69.46 69.46 0 0 0-4.369 2.752 67.199 67.199 0 0 0-1.758 1.232l-.129.093a1.4 1.4 0 0 1-.613.264 1.448 1.448 0 0 1-1.43-.571 1.445 1.445 0 0 1-.268-1.084 1.442 1.442 0 0 1 .569-.95l.02-.014.131-.095.4-.288c.314-.223.816-.577 1.437-1a73.256 73.256 0 0 1 4.554-2.869 29.706 29.706 0 0 1 5.243-2.478 10.771 10.771 0 0 1 1.495-.388 6.658 6.658 0 0 1 .974-.1 3.4 3.4 0 0 1 2.417.771l.037.03.042.04.034.036a2.507 2.507 0 0 1 .5 2.454 6.623 6.623 0 0 1-.992 1.949 40.151 40.151 0 0 1-3.168 3.776l-.059.064-.05.058h-.006a36.08 36.08 0 0 0-3.032 3.625 5.8 5.8 0 0 0-.425.714c.032 0 .071-.01.109-.018a4.72 4.72 0 0 0 .553-.135 20.752 20.752 0 0 0 3.006-1.31l.3-.149.039-.02a27.5 27.5 0 0 1 2.993-1.354 7.277 7.277 0 0 1 1.169-.32 4.494 4.494 0 0 1 .519-.062 2.908 2.908 0 0 1 1.9.481 3.26 3.26 0 0 1 1.268 2.989 9.653 9.653 0 0 1-.662 2.846 21.245 21.245 0 0 1-1.023 2.293 24.69 24.69 0 0 1-.503.921l-.04.07v.006a1.461 1.461 0 0 1-1 .692 1.465 1.465 0 0 1-.253.022 1.443 1.443 0 0 1-.766-.216z" transform="translate(-8031.029 380.858)" style="fill:#ebeced"/>
</svg>
