<svg width="32" height="32" xmlns="http://www.w3.org/2000/svg">
 <g id="Layer_1">
  <title>Layer 1</title>
  <path stroke="null" fill="#262626" d="m8.72007,25.92479a2.7423,2.74634 0 0 1 -2.73971,-2.74375l0,-13.06712a2.7423,2.74634 0 0 1 2.73971,-2.74375l5.51132,0a1.05314,1.05469 0 1 1 0,2.11024l-5.51132,0a0.63257,0.63351 0 0 0 -0.62999,0.63351l0,13.06885a0.63257,0.63351 0 0 0 0.62999,0.63351l11.02091,0a0.6343,0.63523 0 0 0 0.63257,-0.63351l0,-3.10711a1.054,1.05555 0 0 1 2.10714,0l0,3.10711a2.74316,2.7472 0 0 1 -2.74058,2.74375l-11.02005,-0.00173zm5.0942,-7.6245c-0.82131,-0.82425 -0.66877,-3.87526 0.49899,-5.04474l4.4237,-4.43022l1.25222,-1.25234l0.55846,-0.55928a3.2051,3.20982 0 1 1 4.53315,4.53983l-6.23179,6.24097a4.6202,4.627 0 0 1 -3.10254,0.996a3.01636,3.0208 0 0 1 -1.93219,-0.49023zm1.75035,-3.7924a3.76872,3.77427 0 0 0 -0.45762,2.47015a3.9747,3.98055 0 0 0 2.49151,-0.43154l4.42112,-4.43022l-2.02958,-2.0317l-4.42543,4.42332zm6.23179,-6.24097l-0.5576,0.56101l2.03044,2.03343l0.55846,-0.55928a1.42286,1.42495 0 0 0 -1.01522,-2.44253a1.4401,1.44222 0 0 0 -1.01694,0.40738l0.00086,0z" data-name="패스 463"/>
 </g>

</svg>