<svg xmlns="http://www.w3.org/2000/svg" width="32" height="32" viewBox="0 0 32 32">
    <path style="fill:none" d="M0 0h32v32H0z"/>
    <path data-name="패스 1457" d="M8016.769-382a2.772 2.772 0 0 1-1.958-.811 2.765 2.765 0 0 1-.811-1.954v-12.468a2.766 2.766 0 0 1 .811-1.956 2.769 2.769 0 0 1 1.958-.811h16.465a2.767 2.767 0 0 1 1.956.811 2.767 2.767 0 0 1 .811 1.956v12.468a2.766 2.766 0 0 1-.811 1.954 2.767 2.767 0 0 1-1.956.811zm-.769-16a1.077 1.077 0 0 0-.314.762v12.468a1.076 1.076 0 0 0 .314.76 1.079 1.079 0 0 0 .765.317h16.465a1.071 1.071 0 0 0 .762-.317 1.07 1.07 0 0 0 .316-.76v-12.468A1.079 1.079 0 0 0 8034-398a1.078 1.078 0 0 0-.762-.315h-16.465a1.086 1.086 0 0 0-.773.315zm5.619 11.248a.842.842 0 0 1-.843-.843.843.843 0 0 1 .843-.845h6.756a.843.843 0 0 1 .843.845.842.842 0 0 1-.843.843zm7.644-3.406v-1.69h1.69v1.69zm-3.406 0v-1.69h1.688v1.69zm-3.408 0v-1.69h1.69v1.69zm-3.408 0v-1.69h1.69v1.69zm10.223-3.408v-1.69h1.69v1.69zm-3.408 0v-1.69h1.69v1.69zm-3.406 0v-1.69h1.69v1.69zm-3.408 0v-1.69h1.69v1.69z" transform="translate(-8009 407)" style="fill:#ebeced;stroke:transparent"/>
</svg>
