<svg xmlns="http://www.w3.org/2000/svg" width="32" height="32" viewBox="0 0 32 32">
    <path style="fill:none" d="M0 0h32v32H0z"/>
    <path data-name="패스 1441" d="M7970-389a11 11 0 0 1 11-11 11 11 0 0 1 11 11 11 11 0 0 1-11 11 11 11 0 0 1-11-11zm2 0a9.011 9.011 0 0 0 9 9 9.011 9.011 0 0 0 9-9 9.01 9.01 0 0 0-9-9 9.011 9.011 0 0 0-9 9zm4.074 2.718a1 1 0 0 1 .55-1.3 1 1 0 0 1 1.3.55 3.17 3.17 0 0 0 3.075 1.524 3.163 3.163 0 0 0 3.079-1.538 1.01 1.01 0 0 1 1.308-.521.994.994 0 0 1 .54 1.29 5.067 5.067 0 0 1-4.926 2.772 5.07 5.07 0 0 1-4.927-2.778zm7.427-4.746a1.5 1.5 0 0 1 1.5-1.5 1.5 1.5 0 0 1 1.5 1.5 1.5 1.5 0 0 1-1.5 1.5 1.5 1.5 0 0 1-1.501-1.501zm-8 0a1.5 1.5 0 0 1 1.5-1.5 1.5 1.5 0 0 1 1.5 1.5 1.5 1.5 0 0 1-1.5 1.5 1.5 1.5 0 0 1-1.501-1.501z" transform="translate(-7965 405)" style="fill:#ebeced;stroke:transparent"/>
</svg>
