<svg xmlns="http://www.w3.org/2000/svg" width="40" height="40" viewBox="0 0 40 40">
    <path style="fill:none" d="M0 0h40v40H0z"/>
    <path data-name="패스 1583" d="M8559.847-2193.134a3.855 3.855 0 0 1-3.848-3.847v-12.132a3.855 3.855 0 0 1 3.848-3.844h8.713l-1.865 1.863h-6.848a1.987 1.987 0 0 0-1.979 1.984v12.129a1.986 1.986 0 0 0 1.979 1.981h12.132a1.986 1.986 0 0 0 1.978-1.981v-6.581l1.868-1.868v8.449a3.854 3.854 0 0 1-3.846 3.847zm5.179-7.693a1.2 1.2 0 0 1-1.2-1.2v-2.752a1.189 1.189 0 0 1 .352-.847l9.025-9.028a1.211 1.211 0 0 1 .848-.347 1.212 1.212 0 0 1 .85.347l2.749 2.752a1.207 1.207 0 0 1 0 1.694l-9.031 9.028a1.182 1.182 0 0 1-.844.352zm.827-3.606v1.578h1.575l.671-.669-1.585-1.57zm2.1-2.1 1.576 1.578 4.9-4.9 1.193-1.2-1.578-1.578z" transform="translate(-8545.998 2223.066)" style="fill:#fff"/>
</svg>
