<svg id="ic_edit_24" xmlns="http://www.w3.org/2000/svg" width="24" height="24" viewBox="0 0 24 24">
  <defs>
    <style>
      .cls-1 {
        fill: #969799;
      }

      .cls-2 {
        fill: none;
      }
    </style>
  </defs>
  <path id="패스_1509" data-name="패스 1509" class="cls-1" d="M13.737,2.9,11.1.263a.9.9,0,0,0-1.27,0L.263,9.83A.9.9,0,0,0,0,10.465V13.1a.9.9,0,0,0,.9.9H3.536a.9.9,0,0,0,.635-.263L13.737,4.17a.9.9,0,0,0,0-1.27M10.094,5.772,5.221,10.644,3.355,8.778,8.309,3.825,9.584,2.551l.881-.882,1.866,1.866-.818.819ZM1.443,12.556V10.69l.882-.882L4.2,11.663l-.893.893Z" transform="translate(5 5)"/>
  <rect id="영역" class="cls-2" width="24" height="24"/>
</svg>
