<svg xmlns="http://www.w3.org/2000/svg" width="32" height="32" viewBox="0 0 32 32">
    <path style="fill:none" d="M0 0h32v32H0z"/>
    <path data-name="패스 1629" d="M5241.541-8419.009H5236v-15.966h4.624a8.368 8.368 0 0 1 4.583.968 3.449 3.449 0 0 1 1.425 3.069 4.092 4.092 0 0 1-.623 2.346 2.474 2.474 0 0 1-1.664 1.105v.107a3.172 3.172 0 0 1 2.026 1.262 4.359 4.359 0 0 1 .625 2.466 4.2 4.2 0 0 1-1.467 3.415 6.055 6.055 0 0 1-3.646 1.237c-.114 0-.229 0-.342-.009zm-2.392-2.811h2.051a2.885 2.885 0 0 0 1.918-.532 2.051 2.051 0 0 0 .618-1.636q0-1.985-2.64-1.983h-1.948zm0-6.838h1.829a3.166 3.166 0 0 0 1.854-.426 1.643 1.643 0 0 0 .58-1.407 1.445 1.445 0 0 0-.625-1.315 3.824 3.824 0 0 0-1.986-.4h-1.653zM5249-8420v-2h6v2zm0-6v-2h4v2zm0-6v-2h6v2z" transform="translate(-5229.5 8442.999)" style="fill:#1e1e1e"/>
</svg>
