<svg xmlns="http://www.w3.org/2000/svg" width="32" height="32" viewBox="0 0 32 32">
    <path style="fill:none" d="M0 0h32v32H0z"/>
    <path data-name="패스 1632" d="M0 0h5.229a10.5 10.5 0 0 1 5.187.968 3.322 3.322 0 0 1 1.615 3.079 3.739 3.739 0 0 1-.707 2.353 2.847 2.847 0 0 1-1.879 1.1v.108a3.659 3.659 0 0 1 2.288 1.269 3.979 3.979 0 0 1 .706 2.473 4 4 0 0 1-1.66 3.421A7.44 7.44 0 0 1 6.268 16H0zm3.563 6.333h2.069a3.954 3.954 0 0 0 2.1-.426A1.561 1.561 0 0 0 8.383 4.5a1.355 1.355 0 0 0-.156-.755 1.436 1.436 0 0 0-.549-.564 4.8 4.8 0 0 0-2.242-.4H3.563zm0 2.691v4.164h2.321a3.566 3.566 0 0 0 2.17-.535 1.93 1.93 0 0 0 .7-1.639q0-1.991-2.988-1.99z" transform="translate(9.778 8)" 
        style="fill:#c8c8c8"/>
</svg>
