<svg xmlns="http://www.w3.org/2000/svg" width="24" height="24"><rect id="backgroundrect" width="100%" height="100%" x="0" y="0" fill="none" stroke="none"/>
  <defs>
    <style>
      .cls-1 {
        fill: none;
      }

      .cls-2 {
        fill: #1e1e1e;
      }
    </style>
  </defs>
  
  
<g class="currentLayer" style=""><title>Layer 1</title><rect id="영역" class="cls-1" width="24" height="24" y="0" x="0"/><rect fill="#ffffff" stroke-dashoffset="" fill-rule="nonzero" id="svg_1" x="5.0164338536560535" y="6.640920341014862" width="5" height="11" style="color: rgb(0, 0, 0);" class=""/><rect fill="#ffffff" stroke-dashoffset="" fill-rule="nonzero" id="svg_3" x="7" y="12" width="0" height="1" style="color: rgb(0, 0, 0);"/><rect fill="#ffffff" stroke-dashoffset="" fill-rule="nonzero" id="svg_5" x="9" y="7" width="10" height="10" style="color: rgb(0, 0, 0);" class="" transform="translate(-0.09860312193632126,0.6244864463806152) "/><path id="패스_1505" data-name="패스 1505" class="cls-2 selected" d="M20.016433853656054,9.215000183105468 a2.309,2.309 0 0 0 -2.313,-2.3 H12.271433853656054 a0.992,0.992 0 0 1 -0.5740000000000003,-0.1630000000000001 L9.843433853656054,5.666000183105469 A2.42,2.42 0 0 0 8.660433853656054,5.333000183105469 H6.329433853656054 A2.309,2.309 0 0 0 4.0164338536560535,7.6330001831054695 v8.452 a2.593,2.593 0 0 0 2.6,2.582 H17.416433853656052 A2.571,2.571 0 0 0 20.016433853656054,16.13300018310547 c0,-0.01600000000000001 0,-0.03900000000000002 0,-0.054000000000000034 zm-1.685,6.9 a0.91,0.91 0 0 1 -0.912,0.907 H6.616433853656053 a0.911,0.911 0 0 1 -0.913,-0.907 v-4 h12.63 zM5.700433853656054,7.6330001831054695 a0.6130000000000003,0.6130000000000003 0 0 1 0.6280000000000003,-0.6250000000000003 H8.660433853656054 a0.535,0.535 0 0 1 0.29200000000000015,0.06800000000000005 l1.9,1.116 a2.9,2.9 0 0 0 1.4220000000000002,0.4 h5.431 a0.6130000000000003,0.6130000000000003 0 0 1 0.6280000000000003,0.6250000000000003 V10.47000018310547 H5.700433853656054 z" fill="#ffffff" fill-opacity="1"/></g></svg>