<svg xmlns="http://www.w3.org/2000/svg" width="24" height="24" viewBox="0 0 24 24">
    <path style="fill:none" d="M0 0h24v24H0z"/>
    <path data-name="패스 1492" d="M9390.211-2347a2.237 2.237 0 0 1-2.238-2.231v-10.782a2.234 2.234 0 0 1-.973-1.842v-2.911a2.237 2.237 0 0 1 2.238-2.231h17.521a2.238 2.238 0 0 1 2.241 2.231v2.911a2.235 2.235 0 0 1-.974 1.842v10.782a2.239 2.239 0 0 1-2.238 2.231zm.293-2.522h14.996v-10.1h-15zm-.973-12.624h16.938v-2.331h-16.938zm6.036 6.706a.292.292 0 0 1-.293-.29v-1.943a.292.292 0 0 1 .293-.291h4.866a.29.29 0 0 1 .29.291v1.943a.29.29 0 0 1-.29.29z" transform="translate(-9386 2369)" style="fill:#d9d9d9"/>
</svg>
