<svg xmlns="http://www.w3.org/2000/svg" width="24" height="24" viewBox="0 0 24 24">
    <path style="fill:none" d="M0 0h24v24H0z"/>
    <path data-name="패스 1496" d="M5046.908 1392.49a4.253 4.253 0 0 1-4.25-4.249l-.555-10.816h-.837a1.265 1.265 0 1 1 0-2.531h5.126a4.674 4.674 0 0 1 9.216 0h5.127a1.266 1.266 0 0 1 0 2.532h-.838l-.546 10.877a4.239 4.239 0 0 1-4.248 4.188zm-1.752-4.313a1.769 1.769 0 0 0 1.752 1.813h8.194a1.752 1.752 0 0 0 1.75-1.749l.482-10.816h-12.666zm3.848-13.284h3.99a2.142 2.142 0 0 0-3.99 0zm2.918 11.242a.292.292 0 0 1-.291-.292v-4.867a.292.292 0 0 1 .291-.292h1.941a.292.292 0 0 1 .292.292v4.867a.292.292 0 0 1-.292.292zm-3.786 0a.292.292 0 0 1-.291-.292v-4.867a.292.292 0 0 1 .291-.292h1.941a.291.291 0 0 1 .291.292v4.867a.291.291 0 0 1-.291.292z" transform="translate(-5039 -1369.745)" style="fill:#d9d9d9"/>
</svg>
