<svg xmlns="http://www.w3.org/2000/svg" width="32" height="32" viewBox="0 0 32 32">
    <path style="fill:none" d="M0 0h32v32H0z"/>
    <path data-name="패스 1627" d="M5472.287-8421v-1.032a5.006 5.006 0 0 1-2.74 1.032 2.515 2.515 0 0 1-2.461-2.431 2.376 2.376 0 0 1 1.427-2.236 12.112 12.112 0 0 1 3.774-.587 1.977 1.977 0 0 0-.169-.922c-.537-.966-3.048-.6-4.361-.2v-1.312a9.557 9.557 0 0 1 3.886-.2 2.487 2.487 0 0 1 1.93 2.489v5.399zm-2.628-3.911a1.567 1.567 0 0 0-1.258 1.4 1.423 1.423 0 0 0 1.621 1.313 3.752 3.752 0 0 0 2.265-.895v-2.124a17.27 17.27 0 0 0-2.628.306zm-5.731 3.911a.7.7 0 0 1-.607-.349.7.7 0 0 1 0-.7.7.7 0 0 1 .607-.352h.968l-2.1-4.208h-6.148l-2.107 4.208h.97a.7.7 0 0 1 .607.352.705.705 0 0 1 0 .7.7.7 0 0 1-.607.349h-2.811a.7.7 0 0 1-.607-.349.708.708 0 0 1 0-.7.7.7 0 0 1 .607-.352h.27l6.119-12.24a.73.73 0 0 1 .627-.355.731.731 0 0 1 .628.355l6.122 12.24h.267a.7.7 0 0 1 .607.352.7.7 0 0 1 0 .7.7.7 0 0 1-.607.349zm-6.582-7.016h4.744l-2.373-4.745z" transform="translate(-5446.787 8444)" style="fill:#1e1e1e"/>
</svg>
