<svg xmlns="http://www.w3.org/2000/svg" width="32" height="32" viewBox="0 0 32 32">
    <path style="fill:none" d="M0 0h32v32H0z"/>
    <path data-name="패스 1639" d="M16.432 7.28H9.92a7 7 0 0 0-1.713-.226c-2.032 0-3.749-1.181-3.749-2.581s1.717-2.56 3.749-2.56c1.923 0 3.562 1.049 3.734 2.339h1.9A4.172 4.172 0 0 0 12.1 1.22 6.476 6.476 0 0 0 8.207 0a6.472 6.472 0 0 0-3.891 1.22 4.12 4.12 0 0 0-1.752 3.253A3.979 3.979 0 0 0 3.807 7.28H0v1.682h8.419c1.933.078 3.536 1.214 3.536 2.563 0 1.388-1.717 2.561-3.749 2.561a4.368 4.368 0 0 1-3.1-1.148 2.024 2.024 0 0 1-.6-1.191H2.59a4.173 4.173 0 0 0 1.745 3.033A6.47 6.47 0 0 0 8.226 16a6.472 6.472 0 0 0 3.892-1.22 4.123 4.123 0 0 0 1.75-3.254 3.893 3.893 0 0 0-.745-2.226s-.11-.141-.289-.335h3.6z" transform="translate(7.784 8)" style="fill:#c8c8c8"/>
</svg>
