<svg xmlns="http://www.w3.org/2000/svg" width="8" height="8" viewBox="0 0 8 8">
    <path data-name="패스 1392" d="M12.623 8.136a4.312 4.312 0 0 0-.069-.772H9v1.459h2.031a1.737 1.737 0 0 1-.753 1.139l1.219.947a3.68 3.68 0 0 0 1.125-2.773" transform="translate(-5.227 -4.05)" style="fill:#4285f4"/>
    <path data-name="패스 1393" d="M5.608 11.905a2.277 2.277 0 0 1-3.389-1.2l-1.26.977a3.772 3.772 0 0 0 3.371 2.084 3.6 3.6 0 0 0 2.5-.914z" transform="translate(-.556 -5.993)" style="fill:#34a853"/>
    <path data-name="패스 1394" d="M1.662 5.936.4 4.958a3.779 3.779 0 0 0 0 3.389l1.262-.977a2.233 2.233 0 0 1 0-1.434" transform="translate(0 -2.653)" style="fill:#fbbc05"/>
    <path data-name="패스 1395" d="M4.329 0A3.773 3.773 0 0 0 .957 2.079l1.261.978A2.249 2.249 0 0 1 4.329 1.5a2.041 2.041 0 0 1 1.443.564L6.854.983A3.627 3.627 0 0 0 4.329 0" transform="translate(-.556 .227)" style="fill:#ea4335"/>
    <path style="fill:none" d="M0 0h8v8H0z"/>
</svg>
