<svg xmlns="http://www.w3.org/2000/svg" width="16" height="16" viewBox="0 0 16 16">
    <path data-name="패스 1392" d="M16.245 8.908a8.623 8.623 0 0 0-.138-1.544H9v2.919h4.062a3.474 3.474 0 0 1-1.506 2.278l2.438 1.893a7.36 7.36 0 0 0 2.251-5.547" transform="translate(-1.453 -.736)" style="fill:#4285f4"/>
    <path data-name="패스 1393" d="M10.257 13.1a4.554 4.554 0 0 1-6.778-2.39L.958 12.665A7.543 7.543 0 0 0 7.7 16.823a7.2 7.2 0 0 0 5-1.829z" transform="translate(-.154 -1.276)" style="fill:#34a853"/>
    <path data-name="패스 1394" d="M3.324 6.913.8 4.958a7.559 7.559 0 0 0 0 6.779l2.524-1.956a4.466 4.466 0 0 1 0-2.868" transform="translate(0 -.347)" style="fill:#fbbc05"/>
    <path data-name="패스 1395" d="M7.7 0A7.545 7.545 0 0 0 .957 4.157l2.521 1.956A4.5 4.5 0 0 1 7.7 3a4.081 4.081 0 0 1 2.887 1.13l2.164-2.164A7.255 7.255 0 0 0 7.7 0" transform="translate(-.154 .453)" style="fill:#ea4335"/>
    <path style="fill:none" d="M0 0h16v16H0z"/>
</svg>
