<svg xmlns="http://www.w3.org/2000/svg" width="20" height="20" viewBox="0 0 20 20">
    <path style="fill:none" d="M0 0h20v20H0z"/>
    <path data-name="패스 1398" d="m17.554 7.507-2.429-2.663L12.568 1.9a.917.917 0 0 0-1.385 1.2l1.992 2.292-1.483 1.415a4.143 4.143 0 0 1 .074.735 4.33 4.33 0 0 1-.028.486A4.312 4.312 0 0 1 12.223 8a4.12 4.12 0 0 1 .791.08L14.4 6.764l1.8 1.977a.916.916 0 1 0 1.355-1.234" style="fill:#8c7157"/>
    <path data-name="패스 1399" d="M13.014 8.08a3.995 3.995 0 0 0-1.276-.051 4.348 4.348 0 0 0 .028-.487 4.125 4.125 0 1 0-7.583 2.25 4.125 4.125 0 1 0 5.79 5.791 4.124 4.124 0 1 0 3.041-7.5" style="fill:#9033bb"/>
</svg>
