<svg xmlns="http://www.w3.org/2000/svg" width="32" height="32" viewBox="0 0 32 32">
    <path style="fill:none" d="M0 0h32v32H0z"/>
    <path data-name="패스 1610" d="M18.977 3.832 15.748.6a2.039 2.039 0 0 0-1.454-.6h-.01a2.209 2.209 0 0 0-1.468.569L4.2 8.291a.919.919 0 0 0-.253.383l-1.77 5.017a.909.909 0 0 0 .059.724L.2 16.451a.7.7 0 0 0 .273 1.156L3 18.955a.683.683 0 0 0 .239.045.69.69 0 0 0 .491-.207l1.443-1.444a.877.877 0 0 0 .415.106.857.857 0 0 0 .3-.053l5.017-1.77a.921.921 0 0 0 .377-.251l7.728-8.618a2.129 2.129 0 0 0-.033-2.931M4.148 16.4l-1.086 1.082-1.108-.805 1.235-1.237zm4.772-2.018-3.1 1.093-1.72-1.718 1.093-3.1zm8.742-8.864-7.1 7.908-4.411-4.412 7.89-7.079a.376.376 0 0 1 .238-.106.231.231 0 0 1 .167.069l3.23 3.231a.277.277 0 0 1-.014.389" transform="translate(6.211 6.5)" style="fill:#0078d4"/>
</svg>
