<svg xmlns="http://www.w3.org/2000/svg" width="32" height="32" viewBox="0 0 24 24">
    <path style="fill:none" d="M0 0h24v24H0z"/>
    <path data-name="패스 1423" d="M9667.258 18954.955a7.771 7.771 0 0 1-1.141-.213 7.47 7.47 0 0 1-1.064-.395 7.024 7.024 0 0 1-3.045-2.729 6.791 6.791 0 0 1-.8-1.943 6.935 6.935 0 0 1-.184-2.17 6.85 6.85 0 0 1 .471-2.082 8.08 8.08 0 0 1 .494-1.012 7.306 7.306 0 0 1 .658-.916 6.982 6.982 0 0 1 9.543-1.1 7.4 7.4 0 0 1 .842.732 7.147 7.147 0 0 1 .711.861A6.965 6.965 0 0 1 9675 18948c0 .012-.008.021-.008.037a8.013 8.013 0 0 1-.1 1.1 6.661 6.661 0 0 1-.654 2.006 6.867 6.867 0 0 1-1.2 1.7 7.014 7.014 0 0 1-1.631 1.262 6.815 6.815 0 0 1-1.969.736 7.25 7.25 0 0 1-1.451.152 6.182 6.182 0 0 1-.729-.038zm0-12.471a5.623 5.623 0 0 0-2.646 1.107 6.367 6.367 0 0 0-1.014 1.012 6.176 6.176 0 0 0-.719 1.232 5.557 5.557 0 0 0 0 4.33 6.147 6.147 0 0 0 .719 1.229 5.653 5.653 0 0 0 2.24 1.732 6.534 6.534 0 0 0 1.42.387 6.339 6.339 0 0 0 1.49 0 6.416 6.416 0 0 0 1.42-.387 5.593 5.593 0 0 0 2.244-1.732 6.554 6.554 0 0 0 .721-1.229 5.6 5.6 0 0 0 .438-2.164 6.264 6.264 0 0 0-.051-.744 6.413 6.413 0 0 0-.387-1.422 5.593 5.593 0 0 0-1.732-2.244 6.353 6.353 0 0 0-1.232-.715 6.124 6.124 0 0 0-1.42-.393 6.482 6.482 0 0 0-1.49 0zm.238 9.143a.74.74 0 0 1-.209-.508v-3.82a.781.781 0 0 1 .209-.514.752.752 0 0 1 .512-.207.725.725 0 0 1 .508.207.755.755 0 0 1 .209.514v3.82a.74.74 0 0 1-.209.508.732.732 0 0 1-.508.209h-.023a.733.733 0 0 1-.493-.209zm.232-5.973a.644.644 0 0 1-.379-.381.542.542 0 0 1-.062-.277v-.113a.708.708 0 0 1 .1-.365c.033-.047.07-.1.109-.143a.7.7 0 0 1 .32-.187l.191-.023a.785.785 0 0 1 .508.211.541.541 0 0 1 .146.229.553.553 0 0 1 .063.279v.113a.737.737 0 0 1-.1.361c-.037.051-.074.1-.111.146a.8.8 0 0 1-.316.188l-.191.023a.111.111 0 0 1-.025 0 .548.548 0 0 1-.256-.061z" transform="translate(-9656.002 -18936)" style="fill:#aba7a9;stroke:transparent"/>
</svg>
