<svg width="70" height="70" xmlns="http://www.w3.org/2000/svg" xml:space="preserve" enable-background="new 0 0 70 70" version="1.1">

 <g>
  <title>Layer 1</title>
  <g stroke="null">
   <g stroke="null" fill="#000000" transform="translate(0 500) scale(0.1 -0.1)">
    <path stroke="null" d="m332.62586,4914.65862c-0.43391,-0.42145 -5.93006,-1.40484 -12.14939,-2.10726c-23.28633,-2.52871 -72.46244,-19.66778 -96.32732,-33.29474c-31.53056,-18.26294 -67.97874,-48.04557 -90.54189,-74.17562c-35.00182,-40.45943 -58.72206,-93.70292 -63.92894,-143.15333c-2.31417,-20.79165 -1.15708,-64.48222 2.0249,-81.19983c3.03735,-16.29616 10.99231,-39.47604 19.52581,-56.61511c13.30648,-27.25392 25.45587,-42.70718 47.72975,-61.25108c42.08896,-34.98055 98.78612,-60.82963 156.64037,-71.50642c40.2087,-7.30517 100.08784,-8.99098 129.73815,-3.65259c39.05162,7.02421 82.00839,24.16327 110.35697,43.97153c15.0421,10.53631 33.84473,29.64215 43.96923,44.67395c25.45587,37.93072 47.15121,111.26343 51.20101,172.93597c2.89271,44.11202 -3.32662,75.58046 -22.41852,113.65166c-11.28158,22.33698 -19.38117,33.01377 -41.94433,54.9293c-29.50567,28.79925 -69.28046,52.40058 -127.27934,75.43998c-27.77004,11.09825 -41.94433,15.17229 -65.66457,19.10584c-16.48846,2.6692 -39.19625,3.93356 -40.93188,2.24775zm128.29179,-132.05509c21.40607,-4.49549 36.1589,-15.45325 45.27095,-33.99716c5.06225,-10.39583 5.35152,-11.80067 5.78542,-27.11344c0.57854,-19.10584 -0.86781,-24.16327 -13.59575,-44.95492c-9.54595,-15.73422 -12.72793,-19.24633 -43.96923,-46.21928c-44.98168,-38.77362 -67.25556,-54.9293 -98.35222,-71.22546c-7.52105,-3.93356 -19.52581,-10.39583 -26.75759,-14.32938c-15.0421,-8.42905 -52.64736,-24.86569 -62.19331,-27.11344c-10.12449,-2.52871 -29.50567,-0.98339 -35.58036,2.6692c-7.95496,4.77646 -11.42621,12.08164 -11.42621,24.44424c0,11.94115 4.0498,35.54249 9.25668,53.103c1.88026,6.60275 4.4837,16.71761 5.93006,22.47746c1.44636,5.75985 3.61589,12.78406 5.06225,15.45325c1.44636,2.80968 10.41376,12.22212 19.81508,21.07262c9.40131,8.8505 25.88977,24.58472 36.59281,34.98055c10.70304,10.39583 24.44342,22.33698 30.37348,26.69199c5.93006,4.21452 17.067,12.92454 24.58805,19.24633c12.14939,10.11486 48.3083,33.71619 62.19331,40.59991c13.01721,6.60275 28.78249,8.0076 47.00657,4.21452z"/>
    <path stroke="null" d="m431.55662,4750.99461c-9.11204,-3.79307 -47.00657,-28.65876 -60.02378,-39.33556c-8.09959,-6.60275 -18.94727,-15.17229 -24.15415,-18.96536c-9.11204,-6.60275 -57.85425,-52.40058 -57.85425,-54.36736c0,-0.56194 6.0747,-5.90033 13.45111,-11.80067c7.23178,-6.04082 19.67044,-16.8581 27.33613,-24.16327l14.02965,-13.34599l21.40607,13.76745c22.99706,14.75083 33.7001,23.17988 72.02854,56.47462c23.28633,20.08923 25.1666,22.19649 32.97692,35.26152c7.95496,13.48648 8.24423,14.1889 8.24423,24.30376c-0.14464,16.01519 -5.49615,25.00618 -17.93482,30.0636c-6.94251,2.80968 -24.87733,4.07404 -29.50567,2.10726zm-10.84767,-42.42621c9.40131,-8.56953 10.26913,-19.66778 2.60344,-34.5591c-3.76053,-7.02421 -7.52105,-11.94115 -13.45111,-16.8581c-12.00476,-10.25534 -38.32844,-25.28714 -45.84949,-26.41102c-13.30648,-1.82629 -23.72024,5.47888 -25.02196,17.56052c-1.01245,10.11486 4.33907,19.94875 16.6331,31.04699c8.96741,8.28856 38.03917,27.67537 47.44048,31.8899c5.64079,2.38823 13.30648,1.26436 17.64554,-2.6692z"/>
    <path stroke="null" d="m266.38275,4609.3866c0,-1.40484 -1.30172,-7.30517 -2.89271,-13.06502c-3.61589,-12.22212 -10.12449,-41.5833 -10.12449,-45.09541c0,-1.68581 1.15708,-2.52871 3.18198,-2.52871c3.47125,0 40.78724,15.31277 50.18856,20.65117l6.21933,3.5121l-6.94251,7.02421c-9.54595,9.41244 -36.44817,32.03038 -38.1838,32.03038c-0.86781,0 -1.44636,-1.12387 -1.44636,-2.52871z"/>
   </g>
  </g>
 </g>
</svg>