<svg xmlns="http://www.w3.org/2000/svg" width="32" height="32" viewBox="0 0 32 32">
    <path style="fill:none" d="M0 0h32v32H0z"/>
    <path data-name="패스 1661" d="M6478-2216.75a11.263 11.263 0 0 1 11.25-11.25 11.262 11.262 0 0 1 11.249 11.25 11.263 11.263 0 0 1-11.249 11.25 11.263 11.263 0 0 1-11.25-11.25zm2.5 0a8.76 8.76 0 0 0 8.751 8.749 8.76 8.76 0 0 0 8.75-8.749 8.76 8.76 0 0 0-8.75-8.751 8.76 8.76 0 0 0-8.751 8.751zm7.374 6.527a.5.5 0 0 1-.5-.5v-1.361a.5.5 0 0 1 .461-.5v-3.878a.5.5 0 0 1-.461-.5v-1.361a.5.5 0 0 1 .5-.5h2.291a.5.5 0 0 1 .5.5v5.738a.5.5 0 0 1 .463.5v1.361a.5.5 0 0 1-.5.5zm-.186-11.495a1.564 1.564 0 0 1 1.563-1.561 1.562 1.562 0 0 1 1.56 1.561 1.561 1.561 0 0 1-1.56 1.56 1.562 1.562 0 0 1-1.563-1.56z" transform="translate(-6473.25 2232.75)" 
    style="fill:#FFFFFF"/>
</svg>
