<svg xmlns="http://www.w3.org/2000/svg" width="32" height="32" viewBox="0 0 32 32">
    <path style="fill:none" d="M0 0h32v32H0z"/>
    <path data-name="패스 1571" d="M5299.688 1146a3.691 3.691 0 0 1-3.688-3.688v-11.625a3.691 3.691 0 0 1 3.688-3.687h11.625a3.691 3.691 0 0 1 3.687 3.687v11.625a3.692 3.692 0 0 1-3.687 3.688zm-1.482-3.3-.288.287a1.9 1.9 0 0 0 1.77 1.223h11.625a1.9 1.9 0 0 0 1.9-1.9v-.392l-5.367-4.847-3.712 4.43a.928.928 0 0 1-1.229.175l-.064-.047-1.953-1.567zm-.417-12.014v9.816l2.384-2.344a.929.929 0 0 1 .651-.265.94.94 0 0 1 .519.159l.063.045 1.888 1.515 3.743-4.467a.931.931 0 0 1 1.27-.147l.06.051 4.846 4.344v-8.708a1.9 1.9 0 0 0-1.9-1.9h-11.625a1.9 1.9 0 0 0-1.899 1.903zm2.388 2.348a1.722 1.722 0 1 1 1.722 1.722 1.724 1.724 0 0 1-1.722-1.721z" transform="translate(-5289.5 -1120.5)" style="fill:#0078d4"/>
</svg>
