<svg xmlns="http://www.w3.org/2000/svg" width="32" height="32" viewBox="0 0 32 32">
    <path style="fill:none" d="M0 0h32v32H0z"/>
    <path data-name="패스 1616" d="M4871.934 1142.615a7.8 7.8 0 0 0-1.266-1.221 1.05 1.05 0 0 1 1.276-1.669 9.877 9.877 0 0 1 1.61 1.556 1.055 1.055 0 0 1-.145 1.479 1.042 1.042 0 0 1-1.475-.146zm-4.229-3.074a10.293 10.293 0 0 1-2.626-2.884 1.048 1.048 0 1 1 1.8-1.077 8.184 8.184 0 0 0 2.086 2.279 1.054 1.054 0 0 1 .207 1.472 1.043 1.043 0 0 1-1.466.21zm4.275-1.548a1.052 1.052 0 0 1 .81-1.943 3.277 3.277 0 0 0 1.231.284 9.078 9.078 0 0 0 1.5-.123 1.1 1.1 0 0 1 1.284.82 1.007 1.007 0 0 1-.773 1.224l-.132.025a10.414 10.414 0 0 1-1.78.154h-.1a5.377 5.377 0 0 1-2.041-.441zm6.215-1.491a1.056 1.056 0 0 1 .28-1.461 6.18 6.18 0 0 0 .544-.414 6.1 6.1 0 0 0 .827-.842 5.444 5.444 0 0 0 .6-.94 1.049 1.049 0 1 1 1.869.953 7.521 7.521 0 0 1-.842 1.305 8.284 8.284 0 0 1-1.109 1.134 8.748 8.748 0 0 1-.717.545 1.049 1.049 0 0 1-1.456-.281zm-9.346-1.143a10.964 10.964 0 0 1-1.066-1.942 1.048 1.048 0 1 1 1.923-.835 8.955 8.955 0 0 0 .859 1.57 1.054 1.054 0 0 1-.257 1.464 1.046 1.046 0 0 1-1.458-.257zm-4.849-2.592v-.071a9.548 9.548 0 0 1 .243-2.228 8.709 8.709 0 0 1 .547-1.562 1.039 1.039 0 0 1 1.388-.515 1.055 1.055 0 0 1 .514 1.4 6.6 6.6 0 0 0-.413 1.18 7.493 7.493 0 0 0-.183 1.729 1.08 1.08 0 0 1-1.048 1.087 1.019 1.019 0 0 1-1.048-1.021zm16.917-2.7c-.023-.15-.05-.3-.086-.439a4.862 4.862 0 0 0-.377-1.027 5.44 5.44 0 0 0-.61-.948 4.19 4.19 0 0 0-.158-.19 1.05 1.05 0 1 1 1.572-1.391c.079.089.155.18.228.273a7.631 7.631 0 0 1 .839 1.308 7.011 7.011 0 0 1 .543 1.478c.048.2.088.407.12.618a1.051 1.051 0 0 1-.877 1.2 1 1 0 0 1-.159.012 1.049 1.049 0 0 1-1.035-.899zm-13.862-2.81a1.054 1.054 0 0 1 .067-1.485 10.531 10.531 0 0 1 2.091-1.515 9.352 9.352 0 0 1 1.186-.562 1.051 1.051 0 0 1 .762 1.96 7.374 7.374 0 0 0-.955.455 8.694 8.694 0 0 0-1.671 1.216 1.047 1.047 0 0 1-1.48-.067zm10.172-1.533c-.13-.054-.261-.1-.394-.153a7.848 7.848 0 0 0-1.31-.342 8.415 8.415 0 0 0-1.322-.12 1.052 1.052 0 0 1 .012-2.1h.012a10.382 10.382 0 0 1 1.649.15 9.73 9.73 0 0 1 1.661.434c.168.06.333.124.5.194a1.052 1.052 0 0 1-.4 2.022 1.019 1.019 0 0 1-.408-.09z" transform="translate(-4857.5 -1117)" style="fill:#1e1e1e"/>
</svg>
