<svg xmlns="http://www.w3.org/2000/svg" width="42" height="42" viewBox="0 0 42 42">
    <path style="fill:none" d="M0 0h42v42H0z"/>
    <path data-name="패스 461" d="M402.481 477.869h-.1v-.012h-.347v-3.293c0-4.606-2.86-7.823-6.955-7.823h-1.043c-4.1 0-6.955 3.217-6.955 7.823v3.293h-.347v.012h-.1a2.6 2.6 0 0 0-2.6 2.6v11.671a2.6 2.6 0 0 0 2.6 2.6h15.843a2.6 2.6 0 0 0 2.6-2.6v-11.67a2.6 2.6 0 0 0-2.596-2.601zm-6.621 9.044v3.071a.54.54 0 0 1-.541.54H393.8a.54.54 0 0 1-.54-.54v-3.071a2.6 2.6 0 1 1 2.6 0zm-6.175-9.044v-3.305c0-2.406 1.139-5.218 4.35-5.218h1.043c3.211 0 4.35 2.811 4.35 5.218v3.305z" transform="translate(-373.559 -459.741)" style="fill:#262626"/>
</svg>
