<svg width="40" height="40" xmlns="http://www.w3.org/2000/svg">
 <g>
  <title>Layer 1</title>
  <path fill-opacity="0.57" stroke="null" fill="#000000" d="m3.3537,20l0,0c0,-9.22358 7.45281,-16.70077 16.6463,-16.70077l0,0c4.41488,0 8.64893,1.75954 11.77072,4.89155c3.12179,3.132 4.87558,7.37991 4.87558,11.80922l0,0c0,9.22357 -7.4528,16.70077 -16.6463,16.70077l0,0c-9.1935,0 -16.6463,-7.47718 -16.6463,-16.70077zm16.6463,-16.70077l0,33.40154m-16.6463,-16.70077l33.2926,0" id="svg_1"/>
  <path stroke="null" id="svg_2" fill="#ffffff" d="m25.88728,17.86862l-0.07365,0l0,-0.00866l-0.25992,0l0,-2.44588c0,-3.4206 -2.12358,-5.8093 -5.16469,-5.8093l-0.77457,0c-3.04111,0 -5.16469,2.3887 -5.16469,5.8093l0,2.44588l-0.25992,0l0,0.00866l-0.07278,0a1.93124,1.93124 0 0 0 -1.93124,1.93124l0,8.66413a1.93124,1.93124 0 0 0 1.93124,1.93124l11.76589,0a1.9321,1.9321 0 0 0 1.93124,-1.93124l0,-8.66413a1.93124,1.93124 0 0 0 -1.9269,-1.93124zm-4.9169,6.71644l0,2.28127a0.40115,0.40115 0 0 1 -0.40202,0.40115l-1.12634,0a0.40115,0.40115 0 0 1 -0.40115,-0.40115l0,-2.28127a1.93124,1.93124 0 1 1 1.93124,0l-0.00173,0zm-4.58593,-6.71644l0,-2.45455c0,-1.78741 0.84562,-3.8746 3.23085,-3.8746l0.77457,0c2.38437,0 3.23085,2.08806 3.23085,3.8746l0,2.45455l-7.23628,0z" data-name="패스 461"/>
 </g>

</svg>