<svg xmlns="http://www.w3.org/2000/svg" width="40" height="40" viewBox="0 0 40 40">
    <path style="fill:none" d="M0 0h40v40H0z"/>
    <path data-name="패스 461" d="M26.79 17.538h-.085v-.01h-.3v-2.823c0-3.948-2.451-6.705-5.961-6.705h-.894c-3.51 0-5.961 2.757-5.961 6.705v2.823h-.3v.01h-.084a2.229 2.229 0 0 0-2.229 2.229v10a2.229 2.229 0 0 0 2.229 2.229h13.58a2.23 2.23 0 0 0 2.229-2.229v-10a2.229 2.229 0 0 0-2.224-2.229zm-5.675 7.752v2.633a.463.463 0 0 1-.464.463h-1.3a.463.463 0 0 1-.463-.463V25.29a2.229 2.229 0 1 1 2.229 0zm-5.293-7.752V14.705c0-2.063.976-4.472 3.729-4.472h.894c2.752 0 3.729 2.41 3.729 4.472V17.538z" fill="#ffffff"/>
</svg>
