<svg xmlns="http://www.w3.org/2000/svg" width="32" height="32" viewBox="0 0 32 32">
    <path style="fill:none" d="M0 0h32v32H0z"/>
    <path data-name="패스 1634" d="m4009.5 1068.373-1.188-1.189-1.777-1.778 1.572-1.572.789.789.182.182.807.807 1.186 1.189a3.349 3.349 0 1 0 4.732-4.741l-1.182-1.184-1.777-1.778 1.572-1.572 1.779 1.777 1.181 1.182a5.582 5.582 0 0 1-3.935 9.511 5.606 5.606 0 0 1-3.941-1.623zm.456-5.86.009-.009-2.487-2.471-1.322-1.322 1.57-1.57.782.782 3.013 3.02 1.322 1.321-1.569 1.57zm-7.144-.841.007-.006-1.187-1.176a5.55 5.55 0 1 1 7.841-7.856l1.7 1.707 1.257 1.257-1.573 1.572-1.256-1.256-1.7-1.7a3.352 3.352 0 0 0-2.365-.993 3.363 3.363 0 0 0-2.368 5.734l1.812 1.816 1.148 1.148-1.539 1.539z" transform="translate(-3993.5 -1044.5)" style="fill:#b9b9b9"/>
</svg>
