<svg id="ic_move_24" xmlns="http://www.w3.org/2000/svg" width="24" height="24" viewBox="0 0 24 24">
  <defs>
    <style>
      .cls-1 {
        fill: none;
      }

      .cls-2 {
        fill: #1e1e1e;
      }
    </style>
  </defs>
  <rect id="영역" class="cls-1" width="24" height="24"/>
  <path id="패스_1513" data-name="패스 1513" class="cls-2" d="M9573.4-3473.667h-10.8a2.593,2.593,0,0,1-2.6-2.581v-8.452a2.311,2.311,0,0,1,2.314-2.3h2.328a2.422,2.422,0,0,1,1.186.334l1.853,1.086a.993.993,0,0,0,.574.161h5.432a2.313,2.313,0,0,1,2.314,2.3v6.917a2.569,2.569,0,0,1-2.569,2.533Zm-11.716-11.033v2.838l0,1.644v4a.913.913,0,0,0,.914.906h10.8a.913.913,0,0,0,.914-.906l0-4v-2.925a.617.617,0,0,0-.63-.6h-5.431a2.87,2.87,0,0,1-1.421-.4l-1.9-1.117a.565.565,0,0,0-.294-.067h-2.357A.613.613,0,0,0,9561.685-3484.7Zm6.054,8.339a.777.777,0,0,1,0-1.1l1.288-1.286h-4.249a.779.779,0,0,1-.778-.779.778.778,0,0,1,.778-.776h4.249l-1.288-1.288a.774.774,0,0,1,0-1.1.778.778,0,0,1,1.1,0l2.614,2.615.548.548-.548.551-2.614,2.615a.775.775,0,0,1-.55.227A.775.775,0,0,1,9567.738-3476.361Z" transform="translate(-9556 3492.333)"/>
</svg>
