<svg xmlns="http://www.w3.org/2000/svg" width="32" height="32" viewBox="0 0 32 32">
    <path style="fill:none" d="M0 0h32v32H0z"/>
    <path data-name="패스 1531" d="M1.75 0A1.75 1.75 0 1 1 0 1.75 1.75 1.75 0 0 1 1.75 0z" transform="translate(6.75 14.25)" style="fill:#ffffff"/>
    <path data-name="패스 1533" d="M1.75 0A1.75 1.75 0 1 1 0 1.75 1.75 1.75 0 0 1 1.75 0z" transform="translate(14.25 14.25)" style="fill:#ffffff"/>
    <path data-name="패스 1532" d="M1.75 0A1.75 1.75 0 1 1 0 1.75 1.75 1.75 0 0 1 1.75 0z" transform="translate(21.75 14.25)" style="fill:#ffffff"/>
</svg>
