<svg xmlns="http://www.w3.org/2000/svg" width="16" height="16" viewBox="0 0 16 16">
    <path style="fill:none" d="M0 0h16v16H0z"/>
    <path data-name="패스 1428" d="M12.349 3.881v-2.5A1.383 1.383 0 0 0 10.967 0h-.121c-.385 0-.626.252-1.271.925C8.6 1.941 6.8 3.817 5.085 3.817H1.647A1.649 1.649 0 0 0 0 5.464v1.57a1.649 1.649 0 0 0 1.647 1.647h.969V12.3h3.166V8.778c1.491.4 2.96 1.927 3.78 2.782.636.668.894.938 1.284.938h.121a1.384 1.384 0 0 0 1.382-1.382V8.621a2.527 2.527 0 0 0 0-4.74m.385 2.37a1.255 1.255 0 0 1-.385.9V5.346a1.256 1.256 0 0 1 .385.9m-1.651-4.864v9.734a.116.116 0 0 1-.069.107c-.136-.126-.389-.39-.524-.53-.968-1.01-2.727-2.845-4.708-3.213V5.011c1.981-.369 3.739-2.2 4.708-3.213l.038-.039c.14-.146.356-.371.479-.486a.116.116 0 0 1 .076.109m-7.265 7.3h.764V11.1h-.765zm.7-3.6v2.329H1.647a.381.381 0 0 1-.381-.381V5.46a.381.381 0 0 1 .381-.381z" transform="translate(1 1.751)" style="fill:#fcfcfc"/>
</svg>
