<?xml version="1.0" encoding="UTF-8"?>
<svg xmlns="http://www.w3.org/2000/svg" xmlns:xlink="http://www.w3.org/1999/xlink" width="32px" height="32px" viewBox="0 0 32 32" version="1.1">
<g id="surface1">
<path style=" stroke:none;fill-rule:nonzero;fill:rgb(11.764706%,11.764706%,11.764706%);fill-opacity:1;" d="M 21.25 11.914062 L 18.523438 9.1875 L 16 6.667969 L 15.972656 6.679688 L 9.585938 6.679688 C 7.972656 6.675781 6.667969 7.980469 6.667969 9.59375 L 6.667969 22.417969 C 6.667969 24.03125 7.972656 25.335938 9.585938 25.332031 L 22.417969 25.332031 C 24.027344 25.335938 25.332031 24.027344 25.332031 22.417969 L 25.332031 16 Z M 16 11.734375 L 16 9.964844 L 19.40625 13.371094 L 19.601562 13.5625 L 22.042969 16 L 16 16 Z M 23 21.835938 C 23 22.480469 22.476562 23.003906 21.832031 23.003906 L 10.167969 23.003906 C 9.523438 23.003906 9 22.480469 9 21.835938 L 9 10.175781 C 9 9.53125 9.523438 9.007812 10.167969 9.007812 L 13.667969 9.007812 L 13.667969 16 C 13.664062 16.621094 13.910156 17.214844 14.347656 17.652344 C 14.785156 18.089844 15.378906 18.335938 16 18.335938 L 23 18.335938 Z M 23 21.835938 "/>
</g>
</svg>
