<svg id="ic_note_24" xmlns="http://www.w3.org/2000/svg" width="24" height="24" viewBox="0 0 24 24">
  <defs>
    <style>
      .cls-1 {
        fill: none;
      }

      .cls-2 {
        fill: #1e1e1e;
      }
    </style>
  </defs>
  <rect id="영역" class="cls-1" width="24" height="24"/>
  <path id="패스_1506" data-name="패스 1506" class="cls-2" d="M10.938,3.935l-.145-.144-1.9-1.9L7,0,6.979.009H2.188A2.186,2.186,0,0,0,0,2.194v9.62A2.186,2.186,0,0,0,2.188,14h9.625A2.186,2.186,0,0,0,14,11.814V7ZM7,3.8V2.474L9.555,5.027l.145.145L11.533,7H7Zm5.25,7.578a.875.875,0,0,1-.875.874H2.625a.875.875,0,0,1-.875-.874V2.632a.875.875,0,0,1,.875-.875H5.25V7A1.749,1.749,0,0,0,7,8.753h5.25Z" transform="translate(5 5)"/>
</svg>
