<svg xmlns="http://www.w3.org/2000/svg" width="24" height="24" viewBox="0 0 24 24">
    <path style="fill:none" d="M0 0h24v24H0z"/>
    <path data-name="패스 1681" d="M3447.134 1223v-1.731h6.217a.919.919 0 0 0 .917-.917v-10.7a.919.919 0 0 0-.917-.918h-10.7a.919.919 0 0 0-.917.918v6.216H3440v-6.216a2.653 2.653 0 0 1 2.65-2.65h10.7a2.653 2.653 0 0 1 2.65 2.65v10.7a2.652 2.652 0 0 1-2.65 2.648zm-7.134-1.264 4.486-4.485 2.575-2.575h-2.506v-1.788h5.553v5.556h-1.788v-2.5l-7.059 7.059z" transform="translate(-3436 -1202.999)" style="fill:#1e1e1e"/>
</svg>
