<svg xmlns="http://www.w3.org/2000/svg" width="24" height="24" viewBox="0 0 24 24">
    <path style="fill:none" d="M0 0h24v24H0z"/>
    <path data-name="패스 1564" d="M5594.664 1142a2.371 2.371 0 0 1-2.369-2.368v-1.967a2.372 2.372 0 0 1 2.369-2.369h1.967a2.372 2.372 0 0 1 2.369 2.369v1.967a2.372 2.372 0 0 1-2.369 2.368zm-.789-4.335v1.967a.789.789 0 0 0 .789.789h1.967a.789.789 0 0 0 .789-.789v-1.967a.789.789 0 0 0-.789-.79h-1.967a.789.789 0 0 0-.789.79zm-7.507 4.335a2.37 2.37 0 0 1-2.368-2.368v-1.967a2.371 2.371 0 0 1 2.368-2.369h1.966a2.373 2.373 0 0 1 2.37 2.369v1.967a2.372 2.372 0 0 1-2.37 2.368zm-.789-4.335v1.967a.789.789 0 0 0 .789.789h1.966a.79.79 0 0 0 .79-.789v-1.967a.79.79 0 0 0-.79-.79h-1.966a.789.789 0 0 0-.789.79zm9.084-3.961a2.372 2.372 0 0 1-2.369-2.369v-1.966a2.372 2.372 0 0 1 2.369-2.369h1.967a2.373 2.373 0 0 1 2.369 2.369v1.966a2.372 2.372 0 0 1-2.369 2.369zm-.789-4.335v1.966a.789.789 0 0 0 .789.79h1.967a.789.789 0 0 0 .789-.79v-1.966a.789.789 0 0 0-.789-.79h-1.967a.789.789 0 0 0-.788.79zm-7.507 4.335a2.371 2.371 0 0 1-2.368-2.369v-1.966a2.371 2.371 0 0 1 2.368-2.369h1.966a2.373 2.373 0 0 1 2.37 2.369v1.966a2.373 2.373 0 0 1-2.37 2.369zm-.789-4.335v1.966a.789.789 0 0 0 .789.79h1.966a.79.79 0 0 0 .79-.79v-1.966a.79.79 0 0 0-.79-.79h-1.966a.789.789 0 0 0-.788.79z" transform="translate(-5579.5 -1122.5)" style="fill:#646566"/>
</svg>
