<svg xmlns="http://www.w3.org/2000/svg" width="24" height="24" viewBox="0 0 24 24">
    <path style="fill:none" d="M0 0h24v24H0z"/>
    <path data-name="패스 1675" d="M12.422 7.105h-.231V2.786a.14.14 0 0 0-.14-.14H9.546V1.462a.139.139 0 0 0-.139-.139h-1.5A2.032 2.032 0 0 0 6.09 0a2.032 2.032 0 0 0-1.8 1.323h-1.5a.14.14 0 0 0-.14.139v1.184H.14a.14.14 0 0 0-.14.14V14.77a.14.14 0 0 0 .14.14h3.827v.231A1.861 1.861 0 0 0 5.827 17h6.595a1.861 1.861 0 0 0 1.859-1.859V8.964a1.864 1.864 0 0 0-1.859-1.859M6.759 2.926h1.182V3.97h-3.69V2.926h1.184a.14.14 0 0 0 .14-.14v-.661a.523.523 0 1 1 1.045 0v.661a.14.14 0 0 0 .139.14m-1.136 6.38a.549.549 0 0 1 .548-.546h5.909a.546.546 0 0 1 .546.546V14.8a.549.549 0 0 1-.548.549H6.171a.548.548 0 0 1-.548-.549zm-1.656-.342v4.344H1.6V4.249h1.048v1.184a.14.14 0 0 0 .14.14h6.619a.14.14 0 0 0 .139-.14V4.249h1.044V7.1H5.825a1.865 1.865 0 0 0-1.858 1.864" transform="translate(4.859 3.5)" style="fill:#231f20"/>
</svg>
