src/assets/images/svg/ic_page-add_32_light.svg<svg xmlns="http://www.w3.org/2000/svg" width="32" height="32" viewBox="0 0 32 32">
    <path style="fill:none" d="M0 0h32v32H0z"/>
    <path data-name="패스 1575" d="M5875.688 1146a3.7 3.7 0 0 1-3.688-3.687v-11.628a3.7 3.7 0 0 1 3.688-3.685h11.626a3.7 3.7 0 0 1 3.686 3.685v11.628a3.7 3.7 0 0 1-3.686 3.687zm-1.9-15.313v11.626a1.906 1.906 0 0 0 1.9 1.9h11.626a1.9 1.9 0 0 0 1.9-1.9v-11.628a1.9 1.9 0 0 0-1.9-1.9h-11.626a1.909 1.909 0 0 0-1.9 1.902zm6.782 10.663a.2.2 0 0 1-.2-.2v-3.526h-3.525a.2.2 0 0 1-.2-.2v-1.861a.2.2 0 0 1 .2-.2h3.525v-3.526a.2.2 0 0 1 .2-.2h1.861a.194.194 0 0 1 .195.2v3.526h3.526a.2.2 0 0 1 .2.2v1.861a.2.2 0 0 1-.2.2h-3.526v3.526a.2.2 0 0 1-.195.2z" transform="translate(-5865.5 -1120.5)" style="fill:#1e1e1e"/>
</svg>
