<svg xmlns="http://www.w3.org/2000/svg" width="32" height="32" viewBox="0 0 32 32">
    <path style="fill:none" d="M0 0h32v32H0z"/>
    <path data-name="패스 1560" d="M6289.174 1150.216v-3.528h-.807a2.231 2.231 0 0 1-.291 0 2.085 2.085 0 0 1-2.055-1.791 1.91 1.91 0 0 1 0-.563v-6.428a2.267 2.267 0 0 1 2.183-2.337h1.109v-2.669a.943.943 0 0 1 .9-.9h9.133a.9.9 0 0 1 .894.848v2.723h.878a2.515 2.515 0 0 1 2.427 2.553v6.519c0 1.288-.849 2.025-2.333 2.025h-.973v3.495a.836.836 0 0 1-.833.834h-9.448a.787.787 0 0 1-.784-.781zm1.81-.883h7.451v-6.64h-7.45zm9.259-7.41v2.943h.973c.41 0 .528-.119.528-.528v-6.431a.532.532 0 0 0-.528-.527h-12.862a.526.526 0 0 0-.523.525v6.432c0 .408.119.527.523.527h.82v-2.936a.91.91 0 0 1 .908-.9h9.26a.906.906 0 0 1 .901.896zm-1.251-6.3v-.009zm-7.871-1.81v1.761h7.325l-.01-1.766zm1.171 12.983a.1.1 0 0 1-.1-.1v-1.367a.1.1 0 0 1 .1-.1h4.831a.1.1 0 0 1 .1.1v1.367a.1.1 0 0 1-.1.1z" transform="translate(-6278.773 -1125.5)" style="fill:#1e1e1e"/>
</svg>
