<svg xmlns="http://www.w3.org/2000/svg" width="24" height="24" viewBox="0 0 24 24">
    <path style="fill:none" d="M0 0h24v24H0z"/>
    <path data-name="패스 1684" d="M5874.911 1142a2.921 2.921 0 0 1-2.912-2.911v-9.18a2.919 2.919 0 0 1 2.912-2.909h9.179a2.917 2.917 0 0 1 2.909 2.909v9.18a2.918 2.918 0 0 1-2.909 2.911zm-1.5-12.089v9.179a1.5 1.5 0 0 0 1.5 1.5h9.179a1.5 1.5 0 0 0 1.5-1.5v-9.18a1.5 1.5 0 0 0-1.5-1.5h-9.179a1.507 1.507 0 0 0-1.5 1.501zm5.354 8.418a.155.155 0 0 1-.155-.154v-2.784h-2.783a.155.155 0 0 1-.155-.154v-1.469a.154.154 0 0 1 .155-.154h2.783v-2.784a.154.154 0 0 1 .155-.154h1.47a.154.154 0 0 1 .154.154v2.784h2.784a.155.155 0 0 1 .154.154v1.469a.155.155 0 0 1-.154.154h-2.784v2.784a.154.154 0 0 1-.154.154z" transform="translate(-5867.499 -1122.5)" style="fill:#1e1e1e"/>
</svg>
