<svg xmlns="http://www.w3.org/2000/svg" width="32" height="32" viewBox="0 0 32 32">
    <path style="fill:none" d="M0 0h32v32H0z"/>
    <path data-name="패스 1480" d="M12 0A12 12 0 1 1 0 12 12 12 0 0 1 12 0z" transform="translate(4 4)" style="fill:#fafafa"/>
    <path data-name="패스 1479" d="M9724-314.838a3.953 3.953 0 0 1 1.675-2.5 11.358 11.358 0 0 1 12.891 0 4.4 4.4 0 0 1 1.675 2.508 9.6 9.6 0 0 1-8.119 4.5 9.588 9.588 0 0 1-8.122-4.508zm4.007-10.048a4.041 4.041 0 0 1 4.114-4.114 4.041 4.041 0 0 1 4.114 4.114 4.04 4.04 0 0 1-4.114 4.114 4.04 4.04 0 0 1-4.113-4.114z" transform="translate(-9716.12 335.666)" style="fill:#454647"/>
</svg>
