<svg xmlns="http://www.w3.org/2000/svg" width="32" height="32" viewBox="0 0 32 32">
    <path style="fill:none" d="M0 0h32v32H0z"/>
    <path data-name="패스 1564" d="M5596.086 1144a2.687 2.687 0 0 1-2.685-2.683v-2.229a2.688 2.688 0 0 1 2.685-2.685h2.229a2.689 2.689 0 0 1 2.685 2.685v2.229a2.688 2.688 0 0 1-2.685 2.683zm-.894-4.913v2.229a.9.9 0 0 0 .894.894h2.229a.894.894 0 0 0 .894-.894v-2.229a.9.9 0 0 0-.894-.9h-2.229a.9.9 0 0 0-.894.9zm-8.508 4.913a2.686 2.686 0 0 1-2.684-2.683v-2.229a2.687 2.687 0 0 1 2.684-2.685h2.228a2.689 2.689 0 0 1 2.686 2.685v2.229a2.688 2.688 0 0 1-2.686 2.683zm-.894-4.913v2.229a.9.9 0 0 0 .894.894h2.228a.9.9 0 0 0 .9-.894v-2.229a.9.9 0 0 0-.9-.9h-2.228a.9.9 0 0 0-.894.9zm10.3-4.49a2.688 2.688 0 0 1-2.685-2.685v-2.228a2.688 2.688 0 0 1 2.685-2.685h2.229a2.689 2.689 0 0 1 2.685 2.685v2.228a2.689 2.689 0 0 1-2.685 2.685zm-.894-4.913v2.228a.9.9 0 0 0 .894.9h2.229a.9.9 0 0 0 .894-.9v-2.228a.9.9 0 0 0-.894-.9h-2.229a.9.9 0 0 0-.898.901zm-8.508 4.913a2.687 2.687 0 0 1-2.684-2.685v-2.228a2.687 2.687 0 0 1 2.684-2.685h2.228a2.689 2.689 0 0 1 2.686 2.685v2.228a2.689 2.689 0 0 1-2.686 2.685zm-.894-4.913v2.228a.9.9 0 0 0 .894.9h2.228a.9.9 0 0 0 .9-.9v-2.228a.9.9 0 0 0-.9-.9h-2.228a.9.9 0 0 0-.898.901z" transform="translate(-5576.5 -1119.5)" style="fill:#1e1e1e"/>
</svg>
