<svg xmlns="http://www.w3.org/2000/svg" width="32" height="32" viewBox="0 0 32 32">
    <path style="fill:none" d="M0 0h32v32H0z"/>
    <path data-name="패스 1659" d="M6703.714-2085.093H6699v-2.791h4.714a3.492 3.492 0 0 1 3.194-2.094 3.49 3.49 0 0 1 3.192 2.094h7.506v2.791h-7.506a3.49 3.49 0 0 1-3.192 2.093 3.494 3.494 0 0 1-3.194-2.093zm2.029-1.4a1.166 1.166 0 0 0 1.165 1.164 1.165 1.165 0 0 0 1.162-1.164 1.165 1.165 0 0 0-1.162-1.162 1.165 1.165 0 0 0-1.165 1.166zm4.334-5.115H6699v-2.792h10.937a3.488 3.488 0 0 1 3.25-2.246 3.487 3.487 0 0 1 3.249 2.246h1.17v2.792h-1.31a3.483 3.483 0 0 1-3.109 1.937 3.481 3.481 0 0 1-3.109-1.929zm1.945-1.55a1.165 1.165 0 0 0 1.164 1.162 1.165 1.165 0 0 0 1.163-1.162 1.165 1.165 0 0 0-1.163-1.164 1.165 1.165 0 0 0-1.163 1.168zm-11.8-4.963H6699v-2.791h1.227a3.488 3.488 0 0 1 3.191-2.093 3.489 3.489 0 0 1 3.192 2.093h10.995v2.791h-10.995a3.491 3.491 0 0 1-3.192 2.094 3.49 3.49 0 0 1-3.191-2.09zm2.029-1.394a1.164 1.164 0 0 0 1.162 1.162 1.165 1.165 0 0 0 1.163-1.162 1.164 1.164 0 0 0-1.163-1.162 1.163 1.163 0 0 0-1.157 1.166z" transform="translate(-6692.303 2109)" style="fill:#1e1e1e"/>
</svg>
