<svg xmlns="http://www.w3.org/2000/svg" width="32" height="32" viewBox="0 0 32 32">
    <path style="fill:none" d="M0 0h32v32H0z"/>
    <path data-name="패스 1565" d="m18.224 1.981-1.2-1.2a2.644 2.644 0 0 0-3.743 0L5.006 9.042c-2.7 2.7-2.7 2.7-2.708 2.705a.922.922 0 0 0-.256.356L.069 17.7a.95.95 0 0 0 .88 1.3.936.936 0 0 0 .358-.07l5.573-1.974a.973.973 0 0 0 .343-.235c.017-.015 7.7-7.685 11-10.984a2.659 2.659 0 0 0 0-3.756M4.983 15.732l-.483-.489.5.481zm-1.722-1.585 1.584 1.587-2.67 1.089zm-1.2 2.831 1.187-.484-1.2.527zM17.1 3.858a.748.748 0 0 1-.221.533l-.25.25-.381.381L14.5 6.773l-7.97 7.959-2.265-2.268 7.955-7.945 2.148-2.146.251-.251a.751.751 0 0 1 1.062 0l1.2 1.2a.757.757 0 0 1 .22.532" transform="translate(6.5 6.5)" style="fill:#1e1e1e"/>
</svg>
