<svg xmlns="http://www.w3.org/2000/svg" width="32" height="32" viewBox="0 0 32 32">
    <path style="fill:none" d="M0 0h32v32H0z"/>
    <path data-name="패스 1647" d="M14.691 8.5h-.442V3.167h-3.166V1.583H9.17A2.255 2.255 0 0 0 7.124 0 2.255 2.255 0 0 0 5.08 1.583H3.167v1.584H0V17.5h4.745v.448A2.056 2.056 0 0 0 6.8 20h7.892a2.056 2.056 0 0 0 2.055-2.056v-7.392A2.057 2.057 0 0 0 14.691 8.5M4.75 3.167h1.583v-.792a.792.792 0 1 1 1.584 0v.792H9.5V4.75H4.75zm-3.167 12.75V4.75h1.584v1.583h7.916V4.75h1.583V8.5H6.8a2.06 2.06 0 0 0-2.055 2.059v5.363zM15.1 17.532a.825.825 0 0 1-.823.823H7.215a.824.824 0 0 1-.823-.823v-6.568a.823.823 0 0 1 .823-.82h7.064a.822.822 0 0 1 .823.821z" transform="translate(7.625 6)" style="fill:#1e1e1e"/>
</svg>
