<svg xmlns="http://www.w3.org/2000/svg" width="16" height="16" viewBox="0 0 16 16">
    <path style="fill:none" d="M0 0h16v16H0z"/>
    <path data-name="패스 1545" d="M12.489 10.56a.755.755 0 0 0-.892.588 5.037 5.037 0 0 1-.3.967 5.185 5.185 0 0 1-1.869 2.27 5.251 5.251 0 0 1-.875.475 5.128 5.128 0 0 1-.967.3 5.25 5.25 0 0 1-2.079 0 5.088 5.088 0 0 1-.967-.3 5.187 5.187 0 0 1-.876-.476A5.2 5.2 0 0 1 2.27 12.99a5.1 5.1 0 0 1-.775-1.842.755.755 0 0 0-1.48.3 6.671 6.671 0 0 0 3.935 4.8 6.6 6.6 0 0 0 1.25.392 6.673 6.673 0 0 0 6.87-2.8 6.627 6.627 0 0 0 1-2.385.755.755 0 0 0-.588-.892" transform="translate(1.454 -1.775)" style="fill:#1e1e1e"/>
    <path data-name="패스 1546" d="M.928 5.727a.756.756 0 0 0 .99-.4 5.189 5.189 0 0 1 1.106-1.64 5.134 5.134 0 0 1 2.606-1.4 5.223 5.223 0 0 1 2.079 0 5.111 5.111 0 0 1 1.843.776c.06.04.108.094.166.136L8.4 3.13a.859.859 0 0 0-.67 1.436.871.871 0 0 0 .6.273l3.3.145a.84.84 0 0 0 .892-.817l.151-3.274a.858.858 0 0 0-1.715-.076l-.053 1.368q-.245-.2-.508-.379a6.665 6.665 0 0 0-8.442.813A6.688 6.688 0 0 0 .527 4.737a.756.756 0 0 0 .4.99" transform="translate(1.331 1)" style="fill:#1e1e1e"/>
    <path data-name="패스 1547" d="M8.479 8.41a1.137 1.137 0 1 0 1.136 1.136A1.136 1.136 0 0 0 8.479 8.41" transform="translate(-.479 -1.213)" style="fill:#1e1e1e"/>
</svg>
