<svg xmlns="http://www.w3.org/2000/svg" width="32" height="32" viewBox="0 0 32 32">
    <path style="fill:none" d="M0 0h32v32H0z"/>
    <path data-name="패스 1660" d="M5808.212 1000a1.373 1.373 0 0 1-1.3-.927l-.719-2.1a.455.455 0 0 1-.047-.027l-2.214.431a1.369 1.369 0 0 1-1.444-.654l-1.946-3.329-.057-.1-.3-.54a1.368 1.368 0 0 1 .161-1.56l.343-.4.011-.016a1.353 1.353 0 0 1 .094-.117l1.028-1.162-1.485-1.679a1.373 1.373 0 0 1-.157-1.6l1.977-3.379a.883.883 0 0 1 .07-.111l.3-.5a1.368 1.368 0 0 1 1.484-.631l.843.2 1.295.252.05-.029.728-2.1a1.37 1.37 0 0 1 1.294-.923h4.566a1.37 1.37 0 0 1 1.3.931l.713 2.092c.018.009.034.019.051.029l2.214-.431a1.367 1.367 0 0 1 1.443.654l2.288 3.906a1.371 1.371 0 0 1-.118 1.565l-.365.444a.446.446 0 0 1-.035.052.831.831 0 0 1-.083.1l-.074.081a.441.441 0 0 1-.033.039l-.916 1.034 1.485 1.679a1.367 1.367 0 0 1 .156 1.6l-1.715 2.929a.961.961 0 0 1-.052.1l-.558.945a1.366 1.366 0 0 1-1.478.639l-2.16-.442-.051.029-.727 2.1a1.371 1.371 0 0 1-1.294.922zm-1.038-5.642a6.314 6.314 0 0 0 .735.419 1.365 1.365 0 0 1 .7.789l.58 1.695h2.611l.585-1.695a1.367 1.367 0 0 1 .7-.787 5.7 5.7 0 0 0 .727-.416 1.355 1.355 0 0 1 1.029-.208l1.784.349v-.005a.949.949 0 0 1 .047-.085l1.266-2.163-1.2-1.35a1.369 1.369 0 0 1-.342-1 6.165 6.165 0 0 0 0-.806 1.369 1.369 0 0 1 .342-1l1.2-1.352-1.317-2.254-1.785.347a1.364 1.364 0 0 1-1.021-.206 5.988 5.988 0 0 0-.734-.418 1.361 1.361 0 0 1-.7-.79l-.581-1.691h-2.6l-.586 1.693a1.368 1.368 0 0 1-.7.787 5.868 5.868 0 0 0-.729.418 1.371 1.371 0 0 1-1.026.207l-1.788-.348-1.317 2.251 1.2 1.353a1.361 1.361 0 0 1 .341 1 5.593 5.593 0 0 0 0 .789 1.363 1.363 0 0 1-.341 1l-1.194 1.35 1.315 2.252 1.785-.347a1.331 1.331 0 0 1 .26-.025 1.371 1.371 0 0 1 .754.248zm3.285-.751a4 4 0 0 1-2.849-1.186 4.164 4.164 0 0 1-1.22-2.9 4.227 4.227 0 0 1 1.314-3.013 4.013 4.013 0 0 1 2.912-1.114 4.108 4.108 0 0 1-.078 8.214zm.06-2.74a1.358 1.358 0 0 0 1.351-1.389 1.4 1.4 0 0 0-1.331-1.349h-.039a1.314 1.314 0 0 0-.911.368 1.473 1.473 0 0 0-.459 1.04 1.407 1.407 0 0 0 .419.946 1.244 1.244 0 0 0 .931.384z" transform="translate(-5794.5 -973.5)" style="fill:#1e1e1e"/>
</svg>
