<svg xmlns="http://www.w3.org/2000/svg" width="24" height="24" viewBox="0 0 24 24">
    <path style="fill:none" d="M0 0h24v24H0z"/>
    <path data-name="패스 1488" d="M5705.036 1161.5v-8.538a3.131 3.131 0 0 1-.589-.74 3.267 3.267 0 0 1-.447-1.631v-3.077a1.008 1.008 0 0 1 .3-.717 1.034 1.034 0 0 1 .724-.3h13.953a1.018 1.018 0 0 1 1.023 1.014v3.08a3.25 3.25 0 0 1-.441 1.617 3.181 3.181 0 0 1-.6.774v8.516zm1.7-1.687h10.526v-5.963a3.333 3.333 0 0 1-.626.067 3.377 3.377 0 0 1-.726-.081 3.3 3.3 0 0 1-1.589-.864 3.338 3.338 0 0 1-4.646 0 3.3 3.3 0 0 1-1.589.864 3.135 3.135 0 0 1-1.35.014zm8.61-9.222a1.3 1.3 0 0 0 .653 1.12 1.293 1.293 0 0 0 1.263.017c.012-.007.027-.01.04-.017a1.3 1.3 0 0 0 .65-1.12v-2.062h-2.606zm-4.651 0a1.3 1.3 0 0 0 .652 1.12 1.312 1.312 0 0 0 1.3 0 1.3 1.3 0 0 0 .651-1.12v-2.062h-2.598zm-4.651 0a1.3 1.3 0 0 0 .651 1.12c.013.008.027.009.04.017a1.293 1.293 0 0 0 1.263-.017 1.3 1.3 0 0 0 .652-1.12v-2.062h-2.606zm3.955 9.222v-3.457h4v3.457z" transform="translate(-5700 -1142.001)" style="fill:#fcfcfc"/>
</svg>
