<svg width="32" height="32" viewBox="0 0 32 32" fill="none" xmlns="http://www.w3.org/2000/svg">
<path d="M28.464 24.3484L28.0488 24.0698L27.9055 24.2833L27.9958 24.524L28.464 24.3484ZM25.5733 27.5483L25.7488 27.0802L25.4772 26.9783L25.254 27.1636L25.5733 27.5483ZM30.3333 29.3334L30.1578 29.8015L31.1877 30.1878L30.8015 29.1578L30.3333 29.3334ZM30.5 16C30.5 18.9878 29.5969 21.7631 28.0488 24.0698L28.8791 24.627C30.5344 22.1607 31.5 19.1924 31.5 16H30.5ZM16 1.5C24.0081 1.5 30.5 7.99187 30.5 16H31.5C31.5 7.43959 24.5604 0.5 16 0.5V1.5ZM1.5 16C1.5 7.99187 7.99187 1.5 16 1.5V0.5C7.43959 0.5 0.5 7.43959 0.5 16H1.5ZM16 30.5C7.99187 30.5 1.5 24.0081 1.5 16H0.5C0.5 24.5604 7.43959 31.5 16 31.5V30.5ZM25.254 27.1636C22.7429 29.2475 19.5184 30.5 16 30.5V31.5C19.7601 31.5 23.2087 30.1605 25.8926 27.9331L25.254 27.1636ZM25.3977 28.0165L30.1578 29.8015L30.5089 28.8652L25.7488 27.0802L25.3977 28.0165ZM30.8015 29.1578L28.9321 24.1729L27.9958 24.524L29.8652 29.5089L30.8015 29.1578Z" fill="white" fill-opacity="0.8"/>
<circle cx="13" cy="12" r="1" fill="white" fill-opacity="0.8"/>
<circle cx="19" cy="12" r="1" fill="white" fill-opacity="0.8"/>
<path d="M24 15C24 19.4183 20.4183 23 16 23C11.5817 23 8 19.4183 8 15" stroke="white" stroke-opacity="0.8" stroke-linecap="round"/>
</svg>
