<svg xmlns="http://www.w3.org/2000/svg" width="24" height="24" viewBox="0 0 24 24">
    <path style="fill:none" d="M0 0h24v24H0z"/>
    <path data-name="패스 1676" d="m5414.5-13845.14-2.023-2.023 1.136-1.14 1.133 1.13v-8.4h1.79v8.4l1.126-1.13 1.142 1.14-2.026 2.023-1.139 1.139zm-3.723-7.343-1.522-.881-.24-.18a2.543 2.543 0 0 1-1.014-2.12 2.546 2.546 0 0 1 1.154-2.038l4.806-2.836a3.254 3.254 0 0 1 1.675-.464 3.268 3.268 0 0 1 1.674.464l4.793 2.832a2.543 2.543 0 0 1 1.161 2.042 2.543 2.543 0 0 1-1.012 2.12l-.24.18-1.528.881-2.6 1.537v-1.765l1.111-.653 1.5-.881.878-.526a1.026 1.026 0 0 0 .383-.8 1.026 1.026 0 0 0-.412-.818l-4.8-2.836a1.78 1.78 0 0 0-1.809 0l-4.8 2.833-.019.021a1.026 1.026 0 0 0-.383.8 1.046 1.046 0 0 0 .407.82l.853.5 1.494.881 1.124.663v1.765z" transform="translate(-5403.632 13864.5)" style="fill:#1e1e1e"/>
</svg>
