<svg xmlns="http://www.w3.org/2000/svg" width="32" height="32" viewBox="0 0 32 32">
    <path style="fill:none" d="M0 0h32v32H0z"/>
    <path data-name="패스 1649" d="m5333-13839.536 1.273-1.273 1.263 1.263v-11.386h2v4.09h.007v5.29h-.007v2.01l1.262-1.263 1.273 1.273-3.537 3.536zm-1.892-4.483-1.7-.983-.268-.2a2.84 2.84 0 0 1-1.134-2.372 2.827 2.827 0 0 1 .6-1.617 2.832 2.832 0 0 1-.6-1.839 2.848 2.848 0 0 1 1.29-2.282l5.373-3.168a3.637 3.637 0 0 1 1.868-.518 3.667 3.667 0 0 1 1.871.518l5.355 3.165a2.85 2.85 0 0 1 1.3 2.285 2.816 2.816 0 0 1-.6 1.839 2.832 2.832 0 0 1 .6 1.617 2.848 2.848 0 0 1-1.133 2.372l-.265.2-1.708.983-2.914 1.719v-1.969l1.242-.733 1.68-.984.977-.588a1.145 1.145 0 0 0 .431-.9 1.12 1.12 0 0 0-.236-.685l-1.179.678-2.914 1.718v-1.968l1.242-.734 1.255-.737.424-.247.977-.587a1.149 1.149 0 0 0 .191-.2 1.159 1.159 0 0 0 .24-.7 1.153 1.153 0 0 0-.459-.918l-5.366-3.168a1.988 1.988 0 0 0-2.024 0l-5.366 3.168-.021.024a1.146 1.146 0 0 0-.428.9 1.124 1.124 0 0 0 .24.689 1.36 1.36 0 0 0 .219.226l.949.566.414.244 1.259.74 1.252.737v1.972l-2.935-1.725-1.168-.678a1.154 1.154 0 0 0-.229.688 1.157 1.157 0 0 0 .459.914l.949.567 1.673.984 1.252.737v1.972z" transform="translate(-5320.53 13862.5)" style="fill:#1e1e1e"/>
</svg>
