<svg xmlns="http://www.w3.org/2000/svg" width="32" height="32" viewBox="0 0 32 32">
    <path style="fill:none" d="M0 0h32v32H0z"/>
    <path data-name="패스 1619" d="M5175.836-4382a.97.97 0 0 1-.962-.978v-6.306a.97.97 0 0 1 .962-.978h6.2a.97.97 0 0 1 .962.978v6.306a.97.97 0 0 1-.962.978zm.963-1.957h4.277v-4.35h-4.276zm-12.671-1.449a.992.992 0 0 1 0-.979l3.8-6.682a.953.953 0 0 1 .834-.492.952.952 0 0 1 .832.488l3.759 6.656a.994.994 0 0 1 0 .98.98.98 0 0 1-.585.458.945.945 0 0 1-.249.034l-7.564.023a.954.954 0 0 1-.827-.486zm2.5-1.477 4.231-.014-2.1-3.724zm3.622-9.419a4.666 4.666 0 0 1 4.622-4.7 4.665 4.665 0 0 1 4.622 4.7 4.665 4.665 0 0 1-4.622 4.7 4.666 4.666 0 0 1-4.62-4.698zm1.924 0a2.723 2.723 0 0 0 2.7 2.744 2.722 2.722 0 0 0 2.7-2.744 2.722 2.722 0 0 0-2.7-2.742 2.723 2.723 0 0 0-2.698 2.744z" transform="translate(-5158 4407)" style="fill:#0078D4"/>
</svg>
