<svg xmlns="http://www.w3.org/2000/svg" width="32" height="32" viewBox="0 0 32 32">
    <path style="fill:none" d="M0 0h32v32H0z"/>
    <path data-name="패스 1574" d="m5924.477 1711.564-3.068-3.05 1.728-1.724 1.861 1.849-.015-13.639h2.443l.016 13.606 1.83-1.816 1.728 1.724-3.068 3.05-1.728 1.724zm-9.59 1.724a2.889 2.889 0 0 1-2.887-2.888v-2.4a2.889 2.889 0 0 1 2.886-2.889h2.4a2.891 2.891 0 0 1 2.888 2.889v2.4a2.891 2.891 0 0 1-2.888 2.886zm-.961-5.284v2.4a.97.97 0 0 0 .961.962h2.4a.968.968 0 0 0 .967-.962V1708a.969.969 0 0 0-.967-.969h-2.4a.969.969 0 0 0-.962.969zm.966-4.83a2.893 2.893 0 0 1-2.888-2.889v-2.4a2.89 2.89 0 0 1 2.888-2.888h2.4a2.892 2.892 0 0 1 2.889 2.888v2.4a2.893 2.893 0 0 1-2.889 2.889zm-.961-2.889a.968.968 0 0 0 .961.969h2.4a.968.968 0 0 0 .969-.969v-2.4a.968.968 0 0 0-.969-.968h-2.4a.967.967 0 0 0-.966.969z" transform="translate(-5905.5 -1688.144)" style="fill:#1e1e1e"/>
</svg>
