<svg xmlns="http://www.w3.org/2000/svg" width="16" height="16" viewBox="0 0 16 16">
    <path style="fill:none" d="M0 0h16v16H0z"/>
    <path data-name="패스 1489" d="M5704.777 1158v-6.546a2.39 2.39 0 0 1-.442-.567 2.55 2.55 0 0 1-.335-1.251v-2.359a.782.782 0 0 1 .225-.55.766.766 0 0 1 .542-.227h10.465a.757.757 0 0 1 .543.227.783.783 0 0 1 .225.55v2.361a2.533 2.533 0 0 1-.331 1.24 2.426 2.426 0 0 1-.447.593V1158zm1.275-1.294h7.9v-4.572a3.106 3.106 0 0 0-3.948.049 1.874 1.874 0 0 0-2.935-.06 2.3 2.3 0 0 1-1.013.011zm6.458-7.07a1 1 0 0 0 .49.859.951.951 0 0 0 .948.013c.009-.006.021-.008.03-.013a1 1 0 0 0 .488-.859v-1.58h-1.955zm-3.488 0a1 1 0 0 0 .489.859.965.965 0 0 0 .978 0 1 1 0 0 0 .489-.859v-1.58h-1.955zm-3.488 0a1 1 0 0 0 .489.859c.009.006.021.007.03.013a.95.95 0 0 0 .947-.013 1 1 0 0 0 .489-.859v-1.58h-1.955zm2.966 7.07v-2.65h3v2.65z" transform="translate(-5702 -1144.251)" style="fill:#fcfcfc"/>
</svg>
