<svg xmlns="http://www.w3.org/2000/svg" width="32" height="32" viewBox="0 0 32 32">
    <path style="fill:none" d="M0 0h32v32H0z"/>
    <path data-name="패스 1648" d="m5415.264-13843.273-2.261-2.262 1.27-1.273 1.266 1.263v-9.385h2v9.385l1.259-1.263 1.276 1.273-2.265 2.262-1.273 1.272zm-4.16-8.207-1.7-.984-.268-.2a2.84 2.84 0 0 1-1.134-2.369 2.847 2.847 0 0 1 1.291-2.278l5.371-3.169a3.641 3.641 0 0 1 1.872-.519 3.659 3.659 0 0 1 1.871.519l5.357 3.165a2.84 2.84 0 0 1 1.3 2.282 2.841 2.841 0 0 1-1.13 2.369l-.268.2-1.708.984-2.912 1.719v-1.973l1.242-.73 1.676-.984.981-.588a1.148 1.148 0 0 0 .428-.9 1.147 1.147 0 0 0-.459-.915l-5.367-3.169a1.988 1.988 0 0 0-2.021 0l-5.367 3.166-.021.024a1.147 1.147 0 0 0-.428.9 1.171 1.171 0 0 0 .456.918l.953.563 1.67.984 1.256.741v1.973z" transform="translate(-5400.53 13867.502)" style="fill:#1e1e1e"/>
</svg>
