<svg xmlns="http://www.w3.org/2000/svg" width="24" height="24" viewBox="0 0 24 24">
    <path style="fill:none" d="M0 0h24v24H0z"/>
    <path data-name="패스 1677" d="m5332.039-13842.875 1.031-1.031 1.023 1.031v-9.219h1.617v3.313h.008v4.281h-.008v1.625l1.023-1.031 1.031 1.031-2.864 2.875zm-1.531-3.609-1.383-.812-.211-.156a2.311 2.311 0 0 1-.914-1.922 2.271 2.271 0 0 1 .484-1.312 2.234 2.234 0 0 1-.484-1.484 2.3 2.3 0 0 1 1.047-1.859l4.352-2.547a2.835 2.835 0 0 1 1.508-.422 2.9 2.9 0 0 1 1.516.422l4.328 2.547a2.308 2.308 0 0 1 1.055 1.859 2.234 2.234 0 0 1-.484 1.484 2.271 2.271 0 0 1 .484 1.313 2.311 2.311 0 0 1-.914 1.922l-.211.156-1.391.813-2.359 1.375v-1.594l1.008-.594 1.359-.781.789-.484a.948.948 0 0 0 .352-.734.892.892 0 0 0-.187-.547l-.961.547-2.359 1.391v-1.594l1.008-.594 1.023-.594.336-.2.789-.484a.579.579 0 0 0 .164-.141.982.982 0 0 0 .188-.578.9.9 0 0 0-.367-.734l-4.352-2.578a1.608 1.608 0 0 0-1.633 0l-4.344 2.578-.016.016a.9.9 0 0 0-.352.719.867.867 0 0 0 .2.547.517.517 0 0 0 .18.188l.766.469.336.2 1.016.594 1.023.594v1.594l-2.383-1.391-.953-.547a.993.993 0 0 0-.18.547.954.954 0 0 0 .375.75l.766.469 1.352.781 1.023.609v1.594z" transform="translate(-5322.902 13860.5)" style="fill:#1e1e1e"/>
</svg>
