<svg xmlns="http://www.w3.org/2000/svg" width="32" height="32" viewBox="0 0 32 32">
    <path style="fill:none" d="M0 0h32v32H0z"/>
    <path data-name="패스 1573" d="m8544.982-2096.712.015-13.638-1.86 1.848-1.729-1.723 3.068-3.052 1.724-1.723 1.73 1.723 3.066 3.052-1.728 1.723-1.831-1.818-.015 13.608zm-10.095 0a2.89 2.89 0 0 1-2.887-2.888v-2.4a2.891 2.891 0 0 1 2.889-2.889h2.4a2.891 2.891 0 0 1 2.888 2.889v2.4a2.893 2.893 0 0 1-2.888 2.886zm-.964-5.286v2.4a.972.972 0 0 0 .964.961h2.4a.968.968 0 0 0 .968-.961v-2.4a.968.968 0 0 0-.968-.968h-2.4a.97.97 0 0 0-.963.966zm.966-4.829a2.894 2.894 0 0 1-2.887-2.888v-2.4a2.892 2.892 0 0 1 2.887-2.888h2.4a2.891 2.891 0 0 1 2.889 2.888v2.4a2.892 2.892 0 0 1-2.889 2.888zm-.966-5.286v2.4a.969.969 0 0 0 .961.968h2.4a.968.968 0 0 0 .968-.968v-2.4a.968.968 0 0 0-.968-.968h-2.4a.968.968 0 0 0-.96.969z" transform="translate(-8525.5 2121.855)" style="fill:#1e1e1e"/>
</svg>
