<svg xmlns="http://www.w3.org/2000/svg" width="24" height="24" viewBox="0 0 24 24">
    <path style="fill:none" d="M0 0h24v24H0z"/>
    <path data-name="패스 1348" d="M6214.074-1188.42a4.466 4.466 0 0 0 2.672-.876l.552-.407.408-.552a4.507 4.507 0 0 0 .863-2.991 4.5 4.5 0 0 0-1.307-2.865 4.479 4.479 0 0 0-3.187-1.32 4.473 4.473 0 0 0-3.185 1.32 4.511 4.511 0 0 0 0 6.373 4.474 4.474 0 0 0 3.185 1.319m7.6 4.562-3.486-3.485a6.934 6.934 0 0 1-9.013-.68 6.933 6.933 0 0 1 0-9.8 6.931 6.931 0 0 1 9.8 0 6.935 6.935 0 0 1 .681 9.013l3.486 3.486z" transform="translate(-6203.143 1203.858)" style="fill:#b9b9b9"/>
</svg>
