<svg width="32" height="30" viewBox="0 0 32 30" fill="none" xmlns="http://www.w3.org/2000/svg">
<path d="M15.8258 11.2893L14.0148 13.1002C11.5598 15.5552 11.5598 19.5355 14.0148 21.9904C16.4697 24.4454 20.45 24.4453 22.905 21.9904L29.161 15.7344C31.616 13.2794 31.6115 9.29471 29.1566 6.83976C26.7065 4.3897 22.7298 4.38527 20.2797 6.83533M16.1742 19.4079L17.9852 17.597C20.4402 15.142 20.4402 11.1617 17.9852 8.7068C15.5303 6.25185 11.55 6.25185 9.09504 8.7068L2.839 14.9628C0.384046 17.4178 0.388482 21.4025 2.84343 23.8574C5.29349 26.3075 9.27025 26.3119 11.7203 23.8619" stroke="white" stroke-opacity="0.8" stroke-linecap="round"/>
</svg>
