<svg xmlns="http://www.w3.org/2000/svg" width="32" height="32" viewBox="0 0 32 32">
    <path style="fill:none" d="M0 0h32v32H0z"/>
    <path data-name="패스 1495" d="M5705.555 1169.5v-13.091a4.764 4.764 0 0 1-.884-1.134 5.1 5.1 0 0 1-.671-2.5v-4.718a1.566 1.566 0 0 1 .45-1.1 1.533 1.533 0 0 1 1.085-.454h20.93a1.513 1.513 0 0 1 1.085.454 1.564 1.564 0 0 1 .45 1.1v4.722a5.075 5.075 0 0 1-.661 2.48 4.866 4.866 0 0 1-.895 1.186v13.055zm2.55-2.587h15.79v-9.142a4.9 4.9 0 0 1-.938.1 4.908 4.908 0 0 0-6.957 0 3.749 3.749 0 0 0-5.869-.119 4.615 4.615 0 0 1-2.026.022zm12.916-14.139a2 2 0 0 0 .979 1.718 1.9 1.9 0 0 0 1.895.026c.019-.011.042-.016.061-.026a2 2 0 0 0 .976-1.718v-3.161h-3.91zm-6.976 0a1.994 1.994 0 0 0 .978 1.718 1.929 1.929 0 0 0 1.955 0 2 2 0 0 0 .978-1.718v-3.161h-3.91zm-6.977 0a2 2 0 0 0 .978 1.718c.019.012.042.015.06.026a1.9 1.9 0 0 0 1.9-.026 1.994 1.994 0 0 0 .978-1.718v-3.161h-3.91zm5.932 14.139v-5.3h6v5.3z" transform="translate(-5700 -1141.999)" style="fill:#1e1e1e"/>
</svg>
