<svg xmlns="http://www.w3.org/2000/svg" width="32" height="32" viewBox="0 0 32 32">
    <path style="fill:none" d="M0 0h32v32H0z"/>
    <path data-name="패스 1553" d="M9381.5-1321a3.51 3.51 0 0 1-3.5-3.512v-6.25a.171.171 0 0 1 .169-.171h1.333a.171.171 0 0 1 .169.171v6.25a1.835 1.835 0 0 0 1.828 1.835h11.095a1.836 1.836 0 0 0 1.831-1.835v-6.25a.169.169 0 0 1 .169-.171h1.333a.171.171 0 0 1 .169.171v6.25a3.511 3.511 0 0 1-3.5 3.512zm4.739-4.8a.169.169 0 0 1-.17-.169v-10.321l-3.154 3.158a.174.174 0 0 1-.119.049.166.166 0 0 1-.119-.049l-1.161-1.161a.169.169 0 0 1-.05-.122.168.168 0 0 1 .05-.12l4.252-4.257 1.161-1.161a.169.169 0 0 1 .119-.051.17.17 0 0 1 .12.051l1.159 1.161 4.254 4.257a.173.173 0 0 1 .051.12.174.174 0 0 1-.051.122l-1.16 1.161a.173.173 0 0 1-.12.049.168.168 0 0 1-.118-.049l-3.134-3.137v10.3a.169.169 0 0 1-.17.169z" transform="translate(-9371.048 1346.501)" style="fill:#1e1e1e"/>
</svg>
