<svg xmlns="http://www.w3.org/2000/svg" width="32" height="32" viewBox="0 0 32 32">
    <path style="fill:none" d="M0 0h32v32H0z"/>
    <path data-name="패스 1391" d="m22 14.115-2.233-2.523a9.012 9.012 0 0 0 0-1.185l1.547-1.747.013-.017.121-.135a.463.463 0 0 0 .031-.051l.5-.616-.579-.98-2.178-3.733-3.3.643a8.9 8.9 0 0 0-1.088-.62l-.651-1.891L13.757 0h-5.5L7.168 3.151a8.566 8.566 0 0 0-1.085.621s-1.592-.312-2.255-.44L2.814 3.1l-.414.679c-.007.011-.018.018-.025.029l-.224.384-.023.04L0 7.884l2.232 2.523a8.678 8.678 0 0 0 0 1.185l-1.681 1.9a.485.485 0 0 0-.035.057l-.491.573.387.7c.005.007.005.016.01.023l.089.152.031.055 2.235 3.826 3.3-.642a8.816 8.816 0 0 0 1.087.62l.738 2.141L8.245 22h5.5l1.089-3.151a8.648 8.648 0 0 0 1.086-.621l2.417.472.869.193.414-.7.016-.028.243-.41h-.005zM11 14.8A3.853 3.853 0 0 1 7.095 11a3.906 3.906 0 0 1 7.805 0 3.851 3.851 0 0 1-3.9 3.8" transform="translate(5 5)" style="fill:#b9b9b9;fill-rule:evenodd"/>
</svg>
