<svg width="48" height="48" viewBox="0 0 48 48" fill="none" xmlns="http://www.w3.org/2000/svg">
<g filter="url(#filter0_d_226_426)">
<circle cx="24" cy="20" r="20" fill="white" fill-opacity="0.8"/>
<path d="M12.8887 14.987C12.8887 13.8824 13.7841 12.987 14.8887 12.987H18.9493L19.4122 12.0347C19.7469 11.3461 20.4453 10.9091 21.2109 10.9091H23.9998H26.7886C27.5542 10.9091 28.2526 11.3461 28.5874 12.0347L29.0503 12.987H33.1109C34.2155 12.987 35.1109 13.8824 35.1109 14.987V27.0909C35.1109 28.1954 34.2155 29.0909 33.1109 29.0909H14.8887C13.7841 29.0909 12.8887 28.1954 12.8887 27.0909V14.987Z" fill="black"/>
<circle cx="23.9994" cy="21.0101" r="4.0404" fill="white" fill-opacity="0.9"/>
<circle cx="15.9193" cy="15.9596" r="1.0101" fill="white" fill-opacity="0.9"/>
</g>
<defs>
<filter id="filter0_d_226_426" x="0" y="0" width="48" height="48" filterUnits="userSpaceOnUse" color-interpolation-filters="sRGB">
<feFlood flood-opacity="0" result="BackgroundImageFix"/>
<feColorMatrix in="SourceAlpha" type="matrix" values="0 0 0 0 0 0 0 0 0 0 0 0 0 0 0 0 0 0 127 0" result="hardAlpha"/>
<feOffset dy="4"/>
<feGaussianBlur stdDeviation="2"/>
<feColorMatrix type="matrix" values="0 0 0 0 0 0 0 0 0 0 0 0 0 0 0 0 0 0 0.25 0"/>
<feBlend mode="normal" in2="BackgroundImageFix" result="effect1_dropShadow_226_426"/>
<feBlend mode="normal" in="SourceGraphic" in2="effect1_dropShadow_226_426" result="shape"/>
</filter>
</defs>
</svg>
