<svg xmlns="http://www.w3.org/2000/svg" width="26" height="26" viewBox="0 0 32 32">
    <path style="fill:none" d="M0 0h32v32H0z"/>
    <path data-name="패스 1572" d="M4864 1209a10 10 0 1 1 20 0c0 .294-.019.586-.043.875-.02.222-.052.439-.086.655a.929.929 0 0 1-.149.237l-3.242 3.207-1.566 1.552-3.26 3.226a.893.893 0 0 1-.193.129c-.245.035-.493.065-.742.081s-.476.038-.718.038a10 10 0 0 1-10.001-10zm1.817 0a8.187 8.187 0 0 0 7.757 8.161 5.823 5.823 0 0 1-.016-3.164 4.6 4.6 0 0 1-4.023-2.527.908.908 0 0 1 1.682-.682 2.885 2.885 0 0 0 2.8 1.387 3.116 3.116 0 0 0 .328.013 8.234 8.234 0 0 1 1.209-1.56 6.589 6.589 0 0 1 6.613-1.956 8.177 8.177 0 0 0-16.347.328zm12.663 1.812a6.21 6.21 0 0 0-1.588 1.155 6.064 6.064 0 0 0-1.29 1.861 4.124 4.124 0 0 0-.29 2.6l6.085-6.024a3.88 3.88 0 0 0-.912-.11 4.445 4.445 0 0 0-2.005.519zm-2.207-4.3a1.363 1.363 0 1 1 1.363 1.364 1.362 1.362 0 0 1-1.362-1.363zm-7.273 0a1.364 1.364 0 1 1 1.364 1.364 1.363 1.363 0 0 1-1.364-1.363z" transform="translate(-4858.001 -1193.001)" style="fill:#0078d4"/>
</svg>
