<svg xmlns="http://www.w3.org/2000/svg" width="40" height="40" viewBox="0 0 40 40">
    <path style="fill:none" d="M0 0h40v40H0z"/>
    <path data-name="패스 1701" d="M5087-1317.963a13.994 13.994 0 0 1 13.49-14.027 14 14 0 0 1 14.51 13.466c-3.759-1.158-7.979.005-11.328 3.347a14.183 14.183 0 0 0-2.07 2.667 5.44 5.44 0 0 1-.561-.022 4.943 4.943 0 0 1-4.791-2.372 1.557 1.557 0 0 0-1.976-.836 1.553 1.553 0 0 0-.906 2 7.874 7.874 0 0 0 6.891 4.323 9.956 9.956 0 0 0 .028 5.415 14.013 14.013 0 0 1-13.287-13.961zm17.908-4.257a2.333 2.333 0 0 0 2.333 2.331 2.333 2.333 0 0 0 2.333-2.33 2.332 2.332 0 0 0-2.333-2.334 2.334 2.334 0 0 0-2.331 2.333zm-12.457 0a2.335 2.335 0 0 0 2.336 2.333 2.334 2.334 0 0 0 2.335-2.334 2.333 2.333 0 0 0-2.335-2.333 2.334 2.334 0 0 0-2.334 2.334zm11.311 12.519a10.361 10.361 0 0 1 2.208-3.185 10.665 10.665 0 0 1 2.719-1.977 7.616 7.616 0 0 1 3.439-.892 6.662 6.662 0 0 1 1.561.186l-10.423 10.307a7.04 7.04 0 0 1 .498-4.438z" transform="translate(-5081 1338)" style="fill:#lelele"/>
</svg>
