<svg id="ic_store-induce_48" xmlns="http://www.w3.org/2000/svg" width="48" height="48" viewBox="0 0 48 48">
  <defs>
    <style>
      .cls-1 {
        fill: none;
      }

      .cls-2 {
        fill: #fcfcfc;
      }
    </style>
  </defs>
  <rect id="영역" class="cls-1" width="48" height="48"/>
  <path id="패스_1476" data-name="패스 1476" class="cls-2" d="M5705.425,1167.582v-12a4.374,4.374,0,0,1-.811-1.04,4.678,4.678,0,0,1-.615-2.293v-4.325a1.437,1.437,0,0,1,.412-1.008,1.406,1.406,0,0,1,1-.416h19.186a1.387,1.387,0,0,1,1,.416,1.434,1.434,0,0,1,.412,1.008v4.329a4.655,4.655,0,0,1-.606,2.273,4.451,4.451,0,0,1-.819,1.087v11.969Zm2.337-2.372h14.474v-8.38a4.438,4.438,0,0,1-4.042-1.233,8.916,8.916,0,0,0-8.574,1.214,4.227,4.227,0,0,1-1.857.02Zm11.839-12.961a1.829,1.829,0,0,0,.9,1.575,1.743,1.743,0,0,0,1.737.024c.017-.01.038-.015.056-.024a1.83,1.83,0,0,0,.895-1.575v-2.9H5719.6Zm-6.395,0a1.828,1.828,0,0,0,.9,1.575,1.769,1.769,0,0,0,1.792,0,1.83,1.83,0,0,0,.9-1.575v-2.9h-3.584Zm-6.4,0a1.83,1.83,0,0,0,.9,1.575c.017.011.039.013.055.024a1.743,1.743,0,0,0,1.737-.024,1.828,1.828,0,0,0,.9-1.575v-2.9h-3.584Zm5.438,12.961v-4.859h5.5v4.859Z" transform="translate(-5690.999 -1127.42)"/>
  <path id="패스_1507" data-name="패스 1507" class="cls-2" d="M9510.364-1875.147l-6.365-6.365,1.416-1.414,3.948,3.948v-9.413h2v9.413l3.951-3.949,1.413,1.414Z" transform="translate(-9486.363 1890.228)"/>
</svg>
