<?xml version="1.0" encoding="UTF-8"?>
<svg xmlns="http://www.w3.org/2000/svg" xmlns:xlink="http://www.w3.org/1999/xlink" width="24px" height="24px" viewBox="0 0 24 24" version="1.1">
<g id="surface1">
<path style=" stroke:none;fill-rule:nonzero;fill:rgb(100%,100%,100%);fill-opacity:1;" d="M 1.199219 12 C 1.199219 6.035156 6.035156 1.199219 12 1.199219 C 17.964844 1.199219 22.800781 6.035156 22.800781 12 C 22.800781 17.964844 17.964844 22.800781 12 22.800781 C 6.035156 22.800781 1.199219 17.964844 1.199219 12 Z M 3.601562 12 C 3.601562 16.640625 7.359375 20.398438 12 20.398438 C 16.640625 20.398438 20.398438 16.640625 20.398438 12 C 20.398438 7.359375 16.640625 3.601562 12 3.601562 C 7.363281 3.605469 3.605469 7.363281 3.601562 12 Z M 6.480469 12 L 8.179688 10.304688 L 10.722656 12.851562 L 15.816406 7.757812 L 17.511719 9.453125 L 10.722656 16.242188 Z M 6.480469 12 "/>
</g>
</svg>
