<svg xmlns="http://www.w3.org/2000/svg" width="16" height="16" viewBox="0 0 16 16">
    <path style="fill:none" d="M0 0h16v16H0z"/>
    <path data-name="패스 1548" d="M10.46 8.435a.619.619 0 0 0 .861 0l1.5-1.5a.619.619 0 0 0 0-.861l-1.5-1.5a.609.609 0 1 0-.861.861l.465.465H7.109V2.075l.465.466a.61.61 0 1 0 .862-.862L6.931.174a.622.622 0 0 0-.862 0l-1.5 1.505a.609.609 0 1 0 .861.862l.465-.466v3.817H2.076l.465-.465a.609.609 0 0 0-.861-.861l-1.5 1.5a.619.619 0 0 0 0 .861l1.5 1.5a.609.609 0 0 0 .861-.861l-.465-.465h3.815v3.815l-.465-.465a.609.609 0 0 0-.861.862l1.5 1.5a.621.621 0 0 0 .862 0l1.5-1.5a.61.61 0 0 0-.862-.862l-.465.465V7.109h3.816l-.465.465a.619.619 0 0 0 .009.861z" transform="translate(1.5 1.5)" style="fill:#1e1e1e"/>
</svg>
