<svg id="ic_trash_24" xmlns="http://www.w3.org/2000/svg" width="24" height="24" viewBox="0 0 24 24">
  <defs>
    <style>
      .cls-1 {
        fill: none;
      }

      .cls-2 {
        fill: #e63f01;
      }
    </style>
  </defs>
  <rect id="영역" class="cls-1" width="24" height="24"/>
  <path id="패스_1496" data-name="패스 1496" class="cls-2" d="M5044.709,1385.652a2.9,2.9,0,0,1-2.9-2.9l-.378-7.374h-.571a.863.863,0,1,1,0-1.725h3.5a3.186,3.186,0,0,1,6.283,0h3.5a.863.863,0,0,1,0,1.726h-.572l-.373,7.416a2.89,2.89,0,0,1-2.9,2.856Zm-1.194-2.941a1.206,1.206,0,0,0,1.194,1.236h5.587a1.194,1.194,0,0,0,1.192-1.193l.329-7.374h-8.635Zm2.624-9.057h2.721a1.461,1.461,0,0,0-2.721,0Zm1.99,7.664a.2.2,0,0,1-.2-.2V1377.8a.2.2,0,0,1,.2-.2h1.323a.2.2,0,0,1,.2.2v3.318a.2.2,0,0,1-.2.2Zm-2.581,0a.2.2,0,0,1-.2-.2V1377.8a.2.2,0,0,1,.2-.2h1.323a.2.2,0,0,1,.2.2v3.318a.2.2,0,0,1-.2.2Z" transform="translate(-5035.5 -1366.326)"/>
</svg>
