<svg xmlns="http://www.w3.org/2000/svg" width="28" height="28" viewBox="0 0 32 32">
    <path style="fill:none" d="M0 0h32v32H0z"/>
    <path data-name="패스 1568" d="M9137.486-1325.88h-9.973a2.843 2.843 0 0 1-2.667 1.879 2.849 2.849 0 0 1-2.846-2.845 2.842 2.842 0 0 1 1.88-2.668v-9.973a2.847 2.847 0 0 1-1.88-2.667 2.849 2.849 0 0 1 2.846-2.845 2.844 2.844 0 0 1 2.667 1.876h9.973a2.847 2.847 0 0 1 2.668-1.876 2.848 2.848 0 0 1 2.847 2.845 2.848 2.848 0 0 1-1.881 2.667v9.973a2.843 2.843 0 0 1 1.881 2.668 2.848 2.848 0 0 1-2.847 2.845 2.846 2.846 0 0 1-2.668-1.879zm1.756-.966a.913.913 0 0 0 .912.913.914.914 0 0 0 .913-.913.912.912 0 0 0-.913-.913.911.911 0 0 0-.912.913zm-15.309 0a.915.915 0 0 0 .913.913.914.914 0 0 0 .912-.913.912.912 0 0 0-.912-.913.914.914 0 0 0-.912.913zm1.882-12.641v9.973a2.847 2.847 0 0 1 1.7 1.7h9.973a2.852 2.852 0 0 1 1.7-1.7v-9.973a2.856 2.856 0 0 1-1.7-1.7h-9.973a2.852 2.852 0 0 1-1.7 1.7zm13.427-2.667a.913.913 0 0 0 .912.913.914.914 0 0 0 .913-.913.912.912 0 0 0-.913-.91.911.911 0 0 0-.912.91zm-15.309 0a.915.915 0 0 0 .913.913.914.914 0 0 0 .912-.913.912.912 0 0 0-.912-.91.913.913 0 0 0-.912.91zm7.574 11.905v-6.519h-3.259v-1.983h8.5v1.983h-3.262v6.519z" transform="translate(-9116.501 1350.5)" 
    style="fill:#c0c0c0"/>
</svg>
