<svg xmlns="http://www.w3.org/2000/svg" width="32" height="32" viewBox="0 0 32 32">
    <path style="fill:none" d="M0 0h32v32H0z"/>
    <path data-name="패스 1541" d="M5745.45 1204h-7.366a3.673 3.673 0 0 1-3.66-3.672l-.5-9.72a.156.156 0 0 0-.157-.147h-.787a.981.981 0 0 1-.714-1.655.969.969 0 0 1 .687-.308.437.437 0 0 1 .061 0h4.606a.155.155 0 0 0 .153-.131 4.044 4.044 0 0 1 7.975 0 .158.158 0 0 0 .153.131h4.608a.981.981 0 1 1 0 1.962h-.752a.156.156 0 0 0-.156.149l-.492 9.78a3.665 3.665 0 0 1-3.652 3.609zm-9.491-13.491a.153.153 0 0 0-.042.116l.436 9.657a1.74 1.74 0 0 0 .483 1.243 1.722 1.722 0 0 0 1.206.539h7.409a1.733 1.733 0 0 0 1.727-1.721l.433-9.72a.151.151 0 0 0-.042-.116.159.159 0 0 0-.112-.048h-11.384a.161.161 0 0 0-.114.049zm5.045-3.4a2.083 2.083 0 0 0-1.18 1.181.157.157 0 0 0 .017.145.154.154 0 0 0 .13.069h3.585a.157.157 0 0 0 .146-.214 2.084 2.084 0 0 0-2.7-1.181zm1.588 11.184a.1.1 0 0 1-.1-.105v-4.372a.1.1 0 0 1 .1-.1h1.743a.1.1 0 0 1 .106.1v4.37a.106.106 0 0 1-.106.107zm-3.4 0a.1.1 0 0 1-.1-.105v-4.372a.1.1 0 0 1 .1-.1h1.744a.1.1 0 0 1 .1.1v4.372a.1.1 0 0 1-.1.105z" transform="translate(-5725.747 -1178.5)" 
    style="fill:#c0c0c0"/>
</svg>
