<svg xmlns="http://www.w3.org/2000/svg" width="32" height="32" viewBox="0 0 32 32">
    <path style="fill:none" d="M0 0h32v32H0z"/>
    <path data-name="패스 1281" d="m23 8.769-2.5-.379c-.013 0-.024-.009-.038-.011l-5.225-.8a.267.267 0 0 1-.223-.188c-.744-1.606-1.5-3.206-2.229-4.819-.023-.051-.051-.095-.076-.143h.007L11.5 0l-1.214 2.426h.007c-.027.054-.057.1-.083.159C9.487 4.187 8.733 5.775 8 7.371a.326.326 0 0 1-.29.214q-2.583.39-5.165.793c-.017 0-.032.011-.049.013L0 8.769 1.895 10.7l.114.123C3.21 12.05 4.4 13.292 5.6 14.528a.322.322 0 0 1 .1.312c-.277 1.685-.546 3.37-.818 5.056-.019.125-.036.25-.057.375h-.011l-.392 2.69 1.81-.969h.012c.955-.514 1.911-1.024 2.862-1.544.75-.411 1.5-.832 2.241-1.254a.267.267 0 0 1 .3 0q2.221 1.251 4.45 2.487c.033.018.068.032.1.049l2.38 1.27-.392-2.689c-.3-1.817-.584-3.636-.882-5.454a.341.341 0 0 1 .1-.332c1.234-1.274 2.462-2.554 3.7-3.825z" transform="translate(4.5 4.5)" style="fill:#fcfcfc"/>
</svg>
