<svg xmlns="http://www.w3.org/2000/svg" width="32" height="32" viewBox="0 0 32 32">
    <path style="fill:none" d="M0 0h32v32H0z"/>
    <path data-name="패스 1476" d="M5705.425 1167.582v-12a4.374 4.374 0 0 1-.811-1.04 4.678 4.678 0 0 1-.615-2.293v-4.325a1.437 1.437 0 0 1 .412-1.008 1.406 1.406 0 0 1 1-.416h19.186a1.387 1.387 0 0 1 1 .416 1.434 1.434 0 0 1 .412 1.008v4.329a4.655 4.655 0 0 1-.606 2.273 4.451 4.451 0 0 1-.819 1.087v11.969zm2.337-2.372h14.474v-8.38a4.438 4.438 0 0 1-4.042-1.233 8.916 8.916 0 0 0-8.574 1.214 4.227 4.227 0 0 1-1.857.02zm11.839-12.961a1.829 1.829 0 0 0 .9 1.575 1.743 1.743 0 0 0 1.737.024c.017-.01.038-.015.056-.024a1.83 1.83 0 0 0 .895-1.575v-2.9h-3.589zm-6.395 0a1.828 1.828 0 0 0 .9 1.575 1.769 1.769 0 0 0 1.792 0 1.83 1.83 0 0 0 .9-1.575v-2.9h-3.584zm-6.4 0a1.83 1.83 0 0 0 .9 1.575c.017.011.039.013.055.024a1.743 1.743 0 0 0 1.737-.024 1.828 1.828 0 0 0 .9-1.575v-2.9h-3.584zm5.438 12.961v-4.859h5.5v4.859z" transform="translate(-5698.999 -1141.042)" 
    style="fill:#969799"/>
</svg>
