<svg width="26" height="26" viewBox="0 0 26 26" fill="none" xmlns="http://www.w3.org/2000/svg">
<g id="Group 62">
<circle id="Ellipse 46" cx="13" cy="13" r="13" fill="#DBDBDB"/>
<path id="Vector 10" d="M12.2932 5.90712L7.22649 10.9738C7.03895 11.1613 6.93359 11.4157 6.93359 11.6809V18.0667C6.93359 18.619 7.38131 19.0667 7.93359 19.0667H10.2669C10.8192 19.0667 11.2669 18.619 11.2669 18.0667V15.7333C11.2669 15.1811 11.7146 14.7333 12.2669 14.7333H13.7336C14.2859 14.7333 14.7336 15.1811 14.7336 15.7333V18.0667C14.7336 18.619 15.1813 19.0667 15.7336 19.0667H18.0669C18.6192 19.0667 19.0669 18.619 19.0669 18.0667V11.6809C19.0669 11.4157 18.9616 11.1613 18.774 10.9738L13.7074 5.90712C13.3168 5.51659 12.6837 5.51659 12.2932 5.90712Z" fill="black"/>
</g>
</svg>
