<svg xmlns="http://www.w3.org/2000/svg" width="32" height="32" viewBox="0 0 32 32">
    <path style="fill:none" d="M0 0h32v32H0z"/>
    <path data-name="패스 1484" d="m24 15.4-2.436-2.752a9.962 9.962 0 0 0 0-1.293l1.688-1.906.014-.019.132-.147a.521.521 0 0 0 .034-.056l.549-.672-.632-1.07-2.379-4.072-3.6.7a9.656 9.656 0 0 0-1.187-.676l-.71-2.063L15.008 0h-6L7.82 3.438a9.427 9.427 0 0 0-1.184.677s-1.737-.34-2.46-.48L3.07 3.379l-.446.744c-.008.012-.02.02-.027.032l-.244.419-.025.044L0 8.6l2.435 2.752a9.3 9.3 0 0 0 0 1.293L.6 14.718a.573.573 0 0 0-.038.062l-.536.62.422.759c0 .008 0 .017.011.025l.1.166.034.06 2.438 4.174 3.6-.7a9.643 9.643 0 0 0 1.186.676s.578 1.679.8 2.336L8.995 24h6l1.188-3.438a9.439 9.439 0 0 0 1.185-.677L20 20.4l.948.211.452-.765.017-.031.265-.447h-.005zm-12 1.346A4.82 4.82 0 0 1 7.112 12a4.89 4.89 0 0 1 9.776 0A4.82 4.82 0 0 1 12 16.746" transform="translate(4 4)" style="fill:#fcfcfc;fill-rule:evenodd"/>
</svg>
