<svg xmlns="http://www.w3.org/2000/svg" width="32" height="32" viewBox="0 0 32 32">
    <path style="fill:none" d="M0 0h32v32H0z"/>
    <path data-name="패스 1348" d="M6216.673-1184.131a6.142 6.142 0 0 0 3.673-1.2l.759-.56.561-.759a6.2 6.2 0 0 0 1.187-4.113 6.186 6.186 0 0 0-1.8-3.94 6.158 6.158 0 0 0-4.382-1.815 6.151 6.151 0 0 0-4.38 1.815 6.2 6.2 0 0 0 0 8.762 6.152 6.152 0 0 0 4.38 1.814m10.447 6.273-4.792-4.792a9.535 9.535 0 0 1-12.394-.935 9.533 9.533 0 0 1 0-13.48 9.531 9.531 0 0 1 13.48 0 9.537 9.537 0 0 1 .936 12.393l4.793 4.793z" transform="translate(-6202.143 1204.858)" style="fill:#fcfcfc"/>
</svg>
