<svg width="26" height="26" viewBox="0 0 26 26" fill="none" xmlns="http://www.w3.org/2000/svg">
<g id="&#236;&#156;&#160;&#237;&#138;&#156;&#235;&#184;&#140;_ic">
<circle id="Ellipse 45" cx="13" cy="13" r="13" fill="#FF0000"/>
<path id="path7" d="M19.6475 9.49169C19.4875 8.90847 19.0192 8.44863 18.4253 8.29161C17.3402 8 12.9997 8 12.9997 8C12.9997 8 8.65926 8 7.57414 8.28039C6.99161 8.43741 6.51187 8.90847 6.35196 9.49169C6.06641 10.5572 6.06641 12.7667 6.06641 12.7667C6.06641 12.7667 6.06641 14.9874 6.35196 16.0416C6.51187 16.6249 6.98019 17.0847 7.57414 17.2417C8.67068 17.5333 12.9997 17.5333 12.9997 17.5333C12.9997 17.5333 17.3402 17.5333 18.4253 17.2529C19.0192 17.0959 19.4875 16.6361 19.6475 16.0529C19.933 14.9874 19.933 12.7779 19.933 12.7779C19.933 12.7779 19.9444 10.5572 19.6475 9.49169Z" fill="white"/>
<path id="polygon9" d="M15.6005 12.7667L12.1338 10.6V14.9334L15.6005 12.7667Z" fill="#FF0000"/>
</g>
</svg>
