<svg xmlns="http://www.w3.org/2000/svg" width="18" height="18" viewBox="0 0 18 18">
    <path style="fill:none" d="M0 0h18v18H0z"/>
    <path data-name="패스 1690" d="M9.212 4.154a3.394 3.394 0 0 0 2.364-1.282 4.168 4.168 0 0 0 .919-2.518A1.713 1.713 0 0 0 12.464 0a3.845 3.845 0 0 0-2.569 1.373 3.95 3.95 0 0 0-.951 2.437 1.575 1.575 0 0 0 .034.32 1.155 1.155 0 0 0 .233.024M6.436 18c1.077 0 1.555-.744 2.9-.744 1.365 0 1.665.721 2.864.721 1.177 0 1.965-1.122 2.709-2.22a10.233 10.233 0 0 0 1.2-2.552 3.941 3.941 0 0 1-2.331-3.639 4.1 4.1 0 0 1 1.877-3.433 4.06 4.06 0 0 0-3.46-1.785c-1.322 0-2.4.824-3.075.824-.732 0-1.7-.779-2.842-.779-2.174.001-4.383 1.855-4.383 5.356a11.3 11.3 0 0 0 1.832 5.962C4.595 16.97 5.348 18 6.436 18"/>
</svg>
