<svg xmlns="http://www.w3.org/2000/svg" width="18" height="18" viewBox="0 0 18 18">
    <path style="fill:none" d="M0 0h18v18H0z"/>
    <path data-name="패스 1364" d="M17.64 9.2a10.284 10.284 0 0 0-.164-1.841H9v3.481h4.844a4.143 4.143 0 0 1-1.8 2.717l2.908 2.258A8.777 8.777 0 0 0 17.64 9.2" style="fill:#4285f4"/>
    <path data-name="패스 1365" d="M12.048 13.561a5.43 5.43 0 0 1-8.084-2.851L.958 13.041A9 9 0 0 0 9 18a8.594 8.594 0 0 0 5.957-2.181z" style="fill:#34a853"/>
    <path data-name="패스 1366" d="M3.964 7.29.957 4.958a9.014 9.014 0 0 0 0 8.084l3.007-2.332a5.326 5.326 0 0 1 0-3.42z" style="fill:#fbbc05"/>
    <path data-name="패스 1367" d="M9 0A9 9 0 0 0 .957 4.958L3.964 7.29A5.364 5.364 0 0 1 9 3.58a4.863 4.863 0 0 1 3.44 1.345l2.582-2.581A8.652 8.652 0 0 0 9 0" style="fill:#ea4335"/>
</svg>
