<svg xmlns="http://www.w3.org/2000/svg" width="144" height="40" viewBox="0 0 144 40">
    <defs>
        <filter id="g0jqwu7p4a">
            <feOffset dx="1" dy="1"/>
            <feGaussianBlur stdDeviation="1" result="blur"/>
            <feFlood result="color"/>
            <feComposite operator="out" in="SourceGraphic" in2="blur"/>
            <feComposite operator="in" in="color"/>
            <feComposite operator="in" in2="SourceGraphic"/>
        </filter>
        <filter id="mvxjlx0u4b">
            <feOffset dx="1" dy="1"/>
            <feGaussianBlur stdDeviation="1" result="blur-2"/>
            <feFlood result="color-2"/>
            <feComposite operator="out" in="SourceGraphic" in2="blur-2"/>
            <feComposite operator="in" in="color-2"/>
            <feComposite operator="in" in2="SourceGraphic"/>
        </filter>
        <filter id="wqhyw4mwoc">
            <feOffset dx="1" dy="1"/>
            <feGaussianBlur stdDeviation="1" result="blur-3"/>
            <feFlood result="color-3"/>
            <feComposite operator="out" in="SourceGraphic" in2="blur-3"/>
            <feComposite operator="in" in="color-3"/>
            <feComposite operator="in" in2="SourceGraphic"/>
        </filter>
        <filter id="nn0vqrae7d">
            <feOffset dx="1" dy="1"/>
            <feGaussianBlur stdDeviation="1" result="blur-4"/>
            <feFlood result="color-4"/>
            <feComposite operator="out" in="SourceGraphic" in2="blur-4"/>
            <feComposite operator="in" in="color-4"/>
            <feComposite operator="in" in2="SourceGraphic"/>
        </filter>
        <filter id="pcbwdcisxe">
            <feOffset dx="1" dy="1"/>
            <feGaussianBlur stdDeviation="1" result="blur-5"/>
            <feFlood result="color-5"/>
            <feComposite operator="out" in="SourceGraphic" in2="blur-5"/>
            <feComposite operator="in" in="color-5"/>
            <feComposite operator="in" in2="SourceGraphic"/>
        </filter>
    </defs>
    <path style="fill:none" d="M0 0h144v40H0z"/>
    <g data-type="innerShadowGroup">
        <path data-name="패스 1520" d="M328.967 73.565h-.144q-.145-.205-.613-1.062a8.157 8.157 0 0 0-1.55-1.884 8.969 8.969 0 0 0-2.884-1.746 12.354 12.354 0 0 0-4.542-.719q-6.056 0-8.544 4.007t-2.49 10.583q0 6.508 2.451 10.445t8.58 3.939a11.967 11.967 0 0 0 5.588-1.1 8.861 8.861 0 0 0 2.956-2.295 10.849 10.849 0 0 0 1.045-1.541h.144l1.37 4.247h7.571V68.222h-8.941zm-.5 12.912a4.909 4.909 0 0 1-1.73 2.706 6.2 6.2 0 0 1-3.894 1.027 6.361 6.361 0 0 1-3.93-1.027 4.834 4.834 0 0 1-1.767-2.706 15.743 15.743 0 0 1 0-7.329 4.839 4.839 0 0 1 1.767-2.706 8.077 8.077 0 0 1 7.823-.034 4.749 4.749 0 0 1 1.73 2.671 14.957 14.957 0 0 1 .432 3.733 14.647 14.647 0 0 1-.432 3.664" transform="translate(-261.825 -57.475)" style="fill:#CBCCCD"/>
    </g>
    <g data-type="innerShadowGroup">
        <path data-name="패스 1521" d="M561.344 74.123a8.7 8.7 0 0 0-3.028-3.939 10.251 10.251 0 0 0-6.165-1.575 11.908 11.908 0 0 0-4.758.822 9.279 9.279 0 0 0-2.92 1.884 7.767 7.767 0 0 0-1.478 1.952 7.634 7.634 0 0 1-.5.959h-.144l-1.451-5.549h-7.5v28.152h8.941V83.267a15.418 15.418 0 0 1 .4-3.494 5.151 5.151 0 0 1 1.658-2.808 7.372 7.372 0 0 1 7.679-.034 4.863 4.863 0 0 1 1.586 2.706 16.309 16.309 0 0 1 .361 3.493v13.7h8.436V83.2q0-1.781-.108-4.247a15.375 15.375 0 0 0-1.009-4.829" transform="translate(-453.142 -57.862)" style="fill:#CBCCCD"/>
    </g>
    <g data-type="innerShadowGroup">
        <path data-name="패스 1522" d="M26.891 15.7Q24.3 11.8 18 11.8a10.59 10.59 0 0 0-4.464.822 9.114 9.114 0 0 0-2.8 1.918 9.282 9.282 0 0 0-1.496 1.95 7.1 7.1 0 0 0-.45.925h-.138l-.035-8.152-.017-3.4L0 1.736v38.283h7.268l1.315-4.452h.138q.068.138.554.925a7.977 7.977 0 0 0 1.592 1.747 11 11 0 0 0 2.838 1.712A10.762 10.762 0 0 0 18 40.7q6.368 0 8.929-3.87t2.561-10.377q0-6.849-2.6-10.754m-6.056 14.285A5.25 5.25 0 0 1 19 32.724a6.341 6.341 0 0 1-3.98 1.062q-3.808 0-5.088-2.158a10.089 10.089 0 0 1-1.28-5.24A10.173 10.173 0 0 1 9.9 21.217q1.246-2.158 5.053-2.158a6.506 6.506 0 0 1 4.015 1.062 5.187 5.187 0 0 1 1.869 2.74 12.685 12.685 0 0 1 .485 3.528 12.932 12.932 0 0 1-.485 3.6" transform="translate(0 -1.051)" style="fill:#CBCCCD"/>
    </g>
    <g data-type="innerShadowGroup">
        <path data-name="패스 1523" d="M223.872 0v38.544h8.508V4.082z" transform="translate(-190.186 .423)" style="fill:#CBCCCD"/>
    </g>
    <g data-type="innerShadowGroup">
        <path data-name="패스 1524" d="m772.683 22.036 11.9-11.85h-10.6l-10.89 12.329V4.3L754.3.08v38.532h8.8v-6.918l3.533-3.562 7.787 10.411h10.38z" transform="translate(-640.796 .356)" style="fill:#CBCCCD"/>
    </g>
</svg>
