<svg xmlns="http://www.w3.org/2000/svg" width="112" height="24" viewBox="0 0 112 24">
    <path style="fill:none" d="M0 0h112v24H0z"/>
    <path data-name="패스 1687" d="M93.7 68.678V77.3h8.7z" transform="translate(-84.998 -62.356)" style="fill:#ccc"/>
    <path data-name="패스 1688" d="M5.439 68.678H0V85.93h17.407V77.3h-5.252v3.421h-6.9v-6.838H8.7v-5.2z" transform="translate(0 -62.356)" style="fill:#1e1e1e"/>
    <!-- <path data-name="패스 1689" d="M1090.02-78.583a11.891 11.891 0 0 1-1.513-6.39 12.064 12.064 0 0 1 1.535-6.475q1.536-2.452 5.274-2.452a7.69 7.69 0 0 1 2.8.44 5.542 5.542 0 0 1 1.781 1.069 5.007 5.007 0 0 1 .957 1.152q.288.524.378.65h.089v-3.269h5.52v17.265h-4.673l-.846-2.6h-.089a6.666 6.666 0 0 1-.645.943 5.473 5.473 0 0 1-1.825 1.4 7.445 7.445 0 0 1-3.45.671q-3.779.005-5.293-2.404zm5.1-10.246a2.958 2.958 0 0 0-1.09 1.655 8.89 8.89 0 0 0-.267 2.242 8.88 8.88 0 0 0 .267 2.242 2.957 2.957 0 0 0 1.09 1.655 3.954 3.954 0 0 0 2.426.629 3.85 3.85 0 0 0 2.4-.629 3 3 0 0 0 1.068-1.655 8.875 8.875 0 0 0 .267-2.242 9.059 9.059 0 0 0-.267-2.284 2.9 2.9 0 0 0-1.068-1.635 3.954 3.954 0 0 0-2.4-.608 3.954 3.954 0 0 0-2.43.63zm-26.777 12.194a6.788 6.788 0 0 1-1.752-1.048 4.895 4.895 0 0 1-.983-1.069c-.2-.321-.314-.509-.342-.565h-.086l-.812 2.724h-4.486v-23.421l5.31 2.525.009 2.08.022 4.987h.086a4.356 4.356 0 0 1 .277-.566 5.7 5.7 0 0 1 .919-1.194 5.626 5.626 0 0 1 1.73-1.173 6.585 6.585 0 0 1 2.756-.5q3.888 0 5.49 2.388a11.7 11.7 0 0 1 1.6 6.579 11.276 11.276 0 0 1-1.581 6.348q-1.581 2.368-5.512 2.368a6.7 6.7 0 0 1-2.649-.463zm-2.35-11.461a6.181 6.181 0 0 0-.769 3.164 6.13 6.13 0 0 0 .79 3.206q.79 1.319 3.141 1.32a3.939 3.939 0 0 0 2.457-.65 3.206 3.206 0 0 0 1.132-1.676 7.822 7.822 0 0 0 .3-2.2 7.67 7.67 0 0 0-.3-2.158 3.172 3.172 0 0 0-1.153-1.677 4.046 4.046 0 0 0-2.478-.65q-2.355.001-3.124 1.317zm63.955 11.5v-23.574l5.43 2.582v11.144l6.72-7.543h6.543l-7.344 7.249 7.477 10.1h-6.409l-4.81-6.362-2.181 2.179v4.233zm-7.788 0v-8.381a9.881 9.881 0 0 0-.223-2.137 2.972 2.972 0 0 0-.979-1.656 3.572 3.572 0 0 0-2.359-.649 3.583 3.583 0 0 0-2.381.67 3.145 3.145 0 0 0-1.023 1.718 9.344 9.344 0 0 0-.245 2.137v8.3h-5.52v-17.222h4.629l.89 3.394h.089a4.692 4.692 0 0 0 .312-.586 4.747 4.747 0 0 1 .912-1.194 5.738 5.738 0 0 1 1.8-1.152 7.411 7.411 0 0 1 2.938-.5 6.368 6.368 0 0 1 3.805.964 5.326 5.326 0 0 1 1.87 2.409 9.319 9.319 0 0 1 .623 2.954q.067 1.508.067 2.6v8.339zm-41.482 0v-23.581l5.252 2.5v21.084z" transform="translate(-1037.306 100.174)" style="fill:#1e1e1e"/> -->
</svg>
