<svg xmlns="http://www.w3.org/2000/svg" width="43.001" height="12" viewBox="0 0 43.001 12">
    <path transform="translate(.001)" style="fill:none" d="M0 0h43v12H0z"/>
    <path data-name="패스 1317" d="M39.274 5.705h-.043a4.372 4.372 0 0 1-.183-.318 2.429 2.429 0 0 0-.463-.562 2.672 2.672 0 0 0-.861-.521 3.691 3.691 0 0 0-1.356-.215 2.763 2.763 0 0 0-2.551 1.2 5.933 5.933 0 0 0-.743 3.16 5.843 5.843 0 0 0 .732 3.119 2.774 2.774 0 0 0 2.562 1.176 3.572 3.572 0 0 0 1.669-.327 2.647 2.647 0 0 0 .883-.685 3.3 3.3 0 0 0 .312-.46h.043l.409 1.268h2.261V4.109h-2.67zm-.151 3.855a1.467 1.467 0 0 1-.517.808 1.85 1.85 0 0 1-1.162.307 1.9 1.9 0 0 1-1.173-.307 1.445 1.445 0 0 1-.528-.808 4.711 4.711 0 0 1 0-2.188 1.445 1.445 0 0 1 .528-.808 2.411 2.411 0 0 1 2.336-.01 1.417 1.417 0 0 1 .517.8 4.475 4.475 0 0 1 .129 1.115 4.376 4.376 0 0 1-.129 1.094" transform="translate(-19.225 -1.027)" style="fill:#fcfcfc"/>
    <path data-name="패스 1318" d="M54.929 5.763a2.6 2.6 0 0 0-.9-1.176 3.061 3.061 0 0 0-1.841-.471 3.561 3.561 0 0 0-1.421.246 2.77 2.77 0 0 0-.872.562 2.323 2.323 0 0 0-.442.583 2.333 2.333 0 0 1-.151.286h-.043l-.43-1.657h-2.243v8.406h2.669V8.493a4.591 4.591 0 0 1 .119-1.043 1.538 1.538 0 0 1 .5-.839 2.2 2.2 0 0 1 2.293-.01 1.453 1.453 0 0 1 .473.808 4.852 4.852 0 0 1 .108 1.043v4.09h2.519V8.473q0-.531-.033-1.269a4.582 4.582 0 0 0-.3-1.442" transform="translate(-22.618 -1.034)" style="fill:#fcfcfc"/>
    <path data-name="패스 1319" d="M19.955 3.109a3.168 3.168 0 0 0-1.333.245 2.732 2.732 0 0 0-.837.573 2.8 2.8 0 0 0-.444.583 2.076 2.076 0 0 0-.134.276h-.042l-.01-2.434V1.337L14.581.1v11.436h2.17l.393-1.329h.041c.013.028.069.12.166.276a2.38 2.38 0 0 0 .476.521 3.284 3.284 0 0 0 .847.511 3.217 3.217 0 0 0 1.281.225 2.957 2.957 0 0 0 2.667-1.156 5.544 5.544 0 0 0 .765-3.1 5.751 5.751 0 0 0-.775-3.212 2.951 2.951 0 0 0-2.656-1.165m.848 5.43a1.571 1.571 0 0 1-.547.818 1.892 1.892 0 0 1-1.188.318 1.621 1.621 0 0 1-1.519-.644 3.013 3.013 0 0 1-.383-1.565 3.04 3.04 0 0 1 .372-1.544 1.6 1.6 0 0 1 1.509-.644 1.945 1.945 0 0 1 1.2.317 1.55 1.55 0 0 1 .558.819 3.772 3.772 0 0 1 .145 1.053 3.849 3.849 0 0 1-.151 1.074" transform="translate(-14.581 -.026)" style="fill:#fcfcfc"/>
    <path data-name="패스 1320" d="M28.013 3.287v8.222h2.54V1.219L28.013 0z" transform="translate(-17.954)" style="fill:#fcfcfc"/>
    <path data-name="패스 1321" d="m65.329 6.561 3.553-3.538h-3.166L62.465 6.7V1.265L59.839 0v11.51h2.626V9.445l1.055-1.063 2.325 3.109h3.1z" transform="translate(-25.946 -.001)" style="fill:#fcfcfc"/>
</svg>
