<svg xmlns="http://www.w3.org/2000/svg" width="44" height="12" viewBox="0 0 44 12">
    <path style="fill:none" d="M0 0h44v12H0z"/>
    <path data-name="패스 1584" d="M5483.92 654.8a5.987 5.987 0 0 1-.749-3.194 6.092 6.092 0 0 1 .759-3.238 2.829 2.829 0 0 1 2.612-1.226 3.78 3.78 0 0 1 1.387.22 2.76 2.76 0 0 1 .882.534 2.457 2.457 0 0 1 .473.577c.1.174.159.282.188.325h.044v-1.634h2.732v8.633h-2.314l-.417-1.3h-.044a3.267 3.267 0 0 1-.32.471 2.689 2.689 0 0 1-.9.7 3.661 3.661 0 0 1-1.707.334 2.837 2.837 0 0 1-2.626-1.202zm2.522-5.123a1.49 1.49 0 0 0-.541.828 4.849 4.849 0 0 0 0 2.242 1.48 1.48 0 0 0 .541.828 1.939 1.939 0 0 0 1.2.315 1.891 1.891 0 0 0 1.19-.315 1.5 1.5 0 0 0 .528-.828 4.5 4.5 0 0 0 .132-1.121 4.6 4.6 0 0 0-.132-1.142 1.455 1.455 0 0 0-.528-.816 2.462 2.462 0 0 0-2.391.01zm-13.254 6.1a3.34 3.34 0 0 1-.867-.524 2.389 2.389 0 0 1-.487-.534c-.1-.16-.156-.254-.17-.282h-.041l-.4 1.362H5469V644.08l2.627 1.263.005 1.04.01 2.493h.042a2.4 2.4 0 0 1 .138-.283 2.863 2.863 0 0 1 .453-.6 2.831 2.831 0 0 1 .858-.587 3.237 3.237 0 0 1 1.363-.251 3.018 3.018 0 0 1 2.719 1.195 5.9 5.9 0 0 1 .793 3.289 5.687 5.687 0 0 1-.783 3.174A3.025 3.025 0 0 1 5474.5 656a3.293 3.293 0 0 1-1.312-.23zm-1.164-5.731a3.126 3.126 0 0 0-.38 1.582 3.088 3.088 0 0 0 .392 1.6 1.658 1.658 0 0 0 1.554.659 1.934 1.934 0 0 0 1.216-.325 1.615 1.615 0 0 0 .561-.837 3.949 3.949 0 0 0 .148-1.1 3.859 3.859 0 0 0-.148-1.078 1.6 1.6 0 0 0-.57-.839 2 2 0 0 0-1.228-.325 1.633 1.633 0 0 0-1.545.656zm27.8 5.752V651.6a4.983 4.983 0 0 0-.11-1.069 1.489 1.489 0 0 0-.484-.829 2.255 2.255 0 0 0-2.347.01 1.575 1.575 0 0 0-.506.86 4.719 4.719 0 0 0-.122 1.069v4.149h-2.73v-8.61h2.29l.44 1.7h.044a2.188 2.188 0 0 0 .155-.292 2.328 2.328 0 0 1 .452-.6 2.84 2.84 0 0 1 .892-.577 3.639 3.639 0 0 1 1.454-.251 3.125 3.125 0 0 1 1.883.482 2.659 2.659 0 0 1 .926 1.2 4.7 4.7 0 0 1 .308 1.477q.034.755.034 1.3v4.171zm3.854 0V644l2.688 1.291v5.572l3.327-3.771h3.239l-3.635 3.625 3.7 5.049h-3.172l-2.379-3.184-1.08 1.088v2.116zm-24.388 0V644l2.6 1.25v10.54z" transform="translate(-5469 -644)" style="fill:#fcfcfc"/>
</svg>
