<svg xmlns="http://www.w3.org/2000/svg" width="24" height="24" viewBox="0 0 24 24">
    <path data-name="패스 1411" d="M12 24a12.012 12.012 0 1 1 8.482-3.518A12 12 0 0 1 12 24z" style="fill:#c9c1e8"/>
    <path data-name="패스 1412" d="M5 21.583v-3.777a3.569 3.569 0 0 1 .993-2.49 3.32 3.32 0 0 1 1.093-.764 3.255 3.255 0 0 1 1.3-.266h7.238a3.263 3.263 0 0 1 1.3.266 3.328 3.328 0 0 1 1.093.764 3.59 3.59 0 0 1 .983 2.49v3.774a11.333 11.333 0 0 1-14 0zm4.234-9.627a4.184 4.184 0 0 1 0-5.76 3.862 3.862 0 0 1 1.266-.885 3.781 3.781 0 0 1 3 0 3.862 3.862 0 0 1 1.266.885 4.191 4.191 0 0 1 0 5.76 3.869 3.869 0 0 1-1.267.882 3.78 3.78 0 0 1-3 0 3.866 3.866 0 0 1-1.265-.882z" style="fill:#f1f0f5"/>
</svg>
