<svg xmlns="http://www.w3.org/2000/svg" width="35" height="35" viewBox="0 0 40 40">
    <path style="fill:none" d="M0 0h185v40H0z"/>
    <path data-name="패스 1687" d="M93.7 68.678v14.377h14.377z" transform="translate(-79.325 -58.141)" style="fill:#ccc"/>
    <path data-name="패스 1688" d="M8.984 68.678H0v28.754h28.753V83.055h-8.675v5.7H8.675v-11.4h5.7v-8.677z" transform="translate(0 -58.141)" style="fill:#1e1e1e"/>
    <!-- <path data-name="패스 1689" d="M1109.666-64.19q-2.5-4.016-2.5-10.651 0-6.705 2.536-10.791t8.712-4.086a12.6 12.6 0 0 1 4.631.733 9.142 9.142 0 0 1 2.941 1.781 8.318 8.318 0 0 1 1.58 1.921q.476.873.625 1.083h.147v-5.448h9.117v28.775h-7.719l-1.4-4.33h-.147a11.118 11.118 0 0 1-1.066 1.571 9.048 9.048 0 0 1-3.014 2.339 12.2 12.2 0 0 1-5.7 1.118q-6.243.001-8.743-4.015zm8.418-17.077a4.934 4.934 0 0 0-1.8 2.758 14.946 14.946 0 0 0-.441 3.737 14.931 14.931 0 0 0 .441 3.737 4.931 4.931 0 0 0 1.8 2.758 6.487 6.487 0 0 0 4.007 1.048 6.318 6.318 0 0 0 3.97-1.048 5 5 0 0 0 1.765-2.758 14.931 14.931 0 0 0 .441-3.737 15.241 15.241 0 0 0-.441-3.806 4.843 4.843 0 0 0-1.765-2.724 6.487 6.487 0 0 0-3.97-1.013 6.487 6.487 0 0 0-4.008 1.049zm-44.23 20.324a11.2 11.2 0 0 1-2.894-1.746 8.128 8.128 0 0 1-1.624-1.781 22.233 22.233 0 0 1-.564-.942h-.141l-1.341 4.54h-7.411v-39.036l8.771 4.208.015 3.467.036 8.312h.141a7.3 7.3 0 0 1 .458-.943 9.482 9.482 0 0 1 1.517-1.99 9.3 9.3 0 0 1 2.858-1.956 10.793 10.793 0 0 1 4.552-.838q6.422 0 9.069 3.981t2.647 10.966q0 6.635-2.612 10.58t-9.1 3.946a10.973 10.973 0 0 1-4.378-.768zm-3.882-19.1a10.374 10.374 0 0 0-1.27 5.273 10.288 10.288 0 0 0 1.305 5.343q1.305 2.2 5.188 2.2a6.464 6.464 0 0 0 4.058-1.083 5.346 5.346 0 0 0 1.87-2.794 13.154 13.154 0 0 0 .494-3.667 12.9 12.9 0 0 0-.494-3.6 5.287 5.287 0 0 0-1.905-2.795 6.638 6.638 0 0 0-4.093-1.083q-3.884.004-5.154 2.205zm105.639 19.172v-39.29l8.969 4.3v18.573l11.1-12.571h10.808l-12.131 12.083 12.351 16.832h-10.586l-7.94-10.616-3.6 3.632v7.054zm-12.865 0v-13.97a16.613 16.613 0 0 0-.368-3.561 4.962 4.962 0 0 0-1.617-2.759 5.862 5.862 0 0 0-3.9-1.082 5.882 5.882 0 0 0-3.934 1.117 5.25 5.25 0 0 0-1.69 2.864 15.717 15.717 0 0 0-.4 3.562v13.829h-9.117v-28.707h7.646l1.471 5.657h.147a7.9 7.9 0 0 0 .515-.977 7.9 7.9 0 0 1 1.501-1.991 9.471 9.471 0 0 1 2.977-1.921 12.142 12.142 0 0 1 4.853-.838 10.449 10.449 0 0 1 6.286 1.606 8.867 8.867 0 0 1 3.088 4.016 15.658 15.658 0 0 1 1.029 4.924q.111 2.514.111 4.33v13.9zm-68.519 0v-39.3l8.675 4.162v35.14z" transform="translate(-1022.593 100.174)" style="fill:#1e1e1e"/> -->
</svg>
